<svg width="167" height="194" viewBox="0 0 167 194" fill="none" xmlns="http://www.w3.org/2000/svg">
<path d="M75.7035 8.17793C80.5448 5.45598 86.4552 5.45598 91.2965 8.17792L157.402 45.3448C162.413 48.162 165.514 53.4633 165.514 59.2117V132.79C165.514 138.539 162.413 143.84 157.402 146.657L91.2965 183.824C86.4552 186.546 80.5448 186.546 75.7035 183.824L9.59812 146.657C4.58739 143.84 1.48624 138.539 1.48624 132.79V59.2117C1.48624 53.4633 4.58738 48.162 9.59811 45.3448L75.7035 8.17793Z" fill="black" stroke="#545454" stroke-width="1.38333"/>
<path d="M69.8475 45.001H66.5508V62.5498H69.8475V45.001Z" fill="white"/>
<path d="M80.4687 57.3225C80.4687 60.0551 77.9304 60.2723 77.2195 60.2723C75.4396 60.2723 74.9742 58.6736 74.9742 57.7111V50.9751H72.4102V57.6959C72.4102 59.3914 72.9338 60.7908 73.9079 61.7215C74.8671 62.5844 76.1125 63.0422 77.3918 62.9979C78.4825 62.9703 79.5462 62.6425 80.4687 62.0493V62.5499H83.3991V50.9751H80.4687V57.3225Z" fill="white"/>
<path d="M89.6262 46.8682H86.3295V50.9753H84.498V53.2156H86.3295V62.5501H89.6262V53.2156H91.824V50.9753H89.6262V46.8682Z" fill="white"/>
<path d="M101.315 59.3319C100.622 59.9085 99.7521 60.2169 98.8567 60.2017C96.7688 60.2017 95.2371 58.7414 95.2371 56.7362C95.2371 54.731 96.7023 53.3343 98.8567 53.3343C99.7548 53.3177 100.63 53.6205 101.333 54.1889L101.787 54.5623L103.808 52.6359L103.302 52.2031C102.048 51.1479 100.464 50.5796 98.8377 50.6017C95.0906 50.6017 92.3691 53.1822 92.3691 56.7251C92.3691 60.2681 95.1571 62.9232 98.8377 62.9232C100.472 62.9495 102.062 62.3756 103.317 61.3066L103.804 60.8696L101.753 58.9433L101.314 59.3319H101.315Z" fill="white"/>
<path d="M114.587 52.0648C113.61 51.2032 112.351 50.7483 111.06 50.7911C109.95 50.7773 108.863 51.1078 107.942 51.7398V45.001H105.012V62.5498H107.942V56.4637C107.942 53.7312 110.297 53.5099 111.008 53.5099C112.788 53.5099 113.07 55.1113 113.07 56.0751V62.5498H116.001V56.0904C116.001 54.3949 115.576 52.9982 114.587 52.0648Z" fill="white"/>
<path d="M98.7414 58.8354C99.9372 58.8354 100.907 57.9091 100.907 56.7666C100.907 55.624 99.9372 54.6978 98.7414 54.6978C97.5456 54.6978 96.5762 55.624 96.5762 56.7666C96.5762 57.9091 97.5456 58.8354 98.7414 58.8354Z" fill="#FF3D2E"/>
<path d="M62.9344 58.476C61.7703 59.5989 60.2224 60.2185 58.6188 60.2005C55.2787 60.2005 52.8503 57.6989 52.8503 54.2638C52.8503 50.8287 55.2787 48.3118 58.6188 48.3118C60.2129 48.3035 61.7514 48.9161 62.9194 50.0224L63.3739 50.4594L65.3777 48.5483L64.9381 48.1113C63.2328 46.467 60.9659 45.5654 58.6188 45.5944C53.6996 45.5944 50 49.3282 50 54.279C50 59.2297 53.7145 62.9234 58.6188 62.9234C60.974 62.9511 63.2477 62.0411 64.9558 60.3886L65.3953 59.9557L63.4065 58.0141L62.9344 58.4774V58.476Z" fill="white"/>
<path d="M79.4209 15.4796C81.9527 14.0509 85.0473 14.0509 87.5791 15.4796L153.156 52.4846C155.764 53.9563 157.377 56.7186 157.377 59.7131V133.289C157.377 136.283 155.764 139.046 153.156 140.517L87.5791 177.522C85.0473 178.951 81.9527 178.951 79.4209 177.522L13.8444 140.517C11.2364 139.046 9.62342 136.283 9.62342 133.289V59.7131C9.62342 56.7186 11.2364 53.9563 13.8444 52.4846L79.4209 15.4796Z" stroke="#545454" stroke-width="5.53333"/>
<rect width="144" height="48" transform="translate(11 72.501)" fill="#545454"/>
<path d="M52.825 92.501H51.45V86.066H49.173V84.801H55.102V86.066H52.825V92.501ZM59.7943 92.633C59.0243 92.633 58.324 92.457 57.6933 92.105C57.07 91.7456 56.5786 91.2616 56.2193 90.653C55.86 90.0443 55.6803 89.377 55.6803 88.651C55.6803 87.925 55.86 87.2576 56.2193 86.649C56.5786 86.0403 57.07 85.56 57.6933 85.208C58.324 84.8486 59.0243 84.669 59.7943 84.669C60.5643 84.669 61.261 84.8486 61.8843 85.208C62.515 85.56 63.01 86.0403 63.3693 86.649C63.7286 87.2576 63.9083 87.925 63.9083 88.651C63.9083 89.377 63.7286 90.0443 63.3693 90.653C63.01 91.2616 62.515 91.7456 61.8843 92.105C61.261 92.457 60.5643 92.633 59.7943 92.633ZM59.7943 91.379C60.293 91.379 60.7513 91.258 61.1693 91.016C61.5873 90.774 61.9173 90.444 62.1593 90.026C62.4013 89.608 62.5223 89.1496 62.5223 88.651C62.5223 88.1523 62.4013 87.694 62.1593 87.276C61.9173 86.858 61.5873 86.528 61.1693 86.286C60.7513 86.044 60.293 85.923 59.7943 85.923C59.2956 85.923 58.8373 86.044 58.4193 86.286C58.0013 86.528 57.6713 86.858 57.4293 87.276C57.1873 87.694 57.0663 88.1523 57.0663 88.651C57.0663 89.1496 57.1873 89.608 57.4293 90.026C57.6713 90.444 58.0013 90.774 58.4193 91.016C58.8373 91.258 59.2956 91.379 59.7943 91.379ZM65.5315 92.501V84.801H68.6885C69.1872 84.801 69.6382 84.9146 70.0415 85.142C70.4448 85.362 70.7602 85.6663 70.9875 86.055C71.2148 86.4363 71.3285 86.858 71.3285 87.32C71.3285 87.782 71.2148 88.2073 70.9875 88.596C70.7602 88.9773 70.4448 89.278 70.0415 89.498C69.6382 89.718 69.1872 89.828 68.6885 89.828H66.9065V92.501H65.5315ZM68.6665 88.585C69.0258 88.585 69.3302 88.464 69.5795 88.222C69.8288 87.9726 69.9535 87.672 69.9535 87.32C69.9535 86.9606 69.8288 86.66 69.5795 86.418C69.3302 86.1686 69.0258 86.044 68.6665 86.044H66.9065V88.585H68.6665ZM74.9524 92.501V84.801H77.5924C78.3404 84.801 79.0224 84.977 79.6384 85.329C80.2617 85.6736 80.7494 86.1393 81.1014 86.726C81.4607 87.3126 81.6404 87.9543 81.6404 88.651C81.6404 89.3476 81.4607 89.9893 81.1014 90.576C80.7494 91.1626 80.2617 91.632 79.6384 91.984C79.0224 92.3286 78.3404 92.501 77.5924 92.501H74.9524ZM77.5924 91.258C78.0911 91.258 78.5421 91.1443 78.9454 90.917C79.3561 90.6823 79.6751 90.367 79.9024 89.971C80.1371 89.575 80.2544 89.135 80.2544 88.651C80.2544 88.167 80.1371 87.727 79.9024 87.331C79.6751 86.935 79.3561 86.6233 78.9454 86.396C78.5421 86.1613 78.0911 86.044 77.5924 86.044H76.3274V91.258H77.5924ZM88.9098 92.501H83.2668V84.801H88.7998V86.044H84.6418V87.914H87.9198V89.146H84.6418V91.258H88.9098V92.501ZM92.7508 92.633C92.0981 92.633 91.5261 92.5156 91.0348 92.281C90.5508 92.039 90.1768 91.753 89.9128 91.423L90.8148 90.554C91.3428 91.1113 91.9735 91.39 92.7068 91.39C93.1468 91.39 93.4951 91.2873 93.7518 91.082C94.0085 90.8766 94.1368 90.6273 94.1368 90.334C94.1368 90.1213 94.0671 89.949 93.9278 89.817C93.7958 89.6776 93.6271 89.5676 93.4218 89.487C93.2238 89.399 92.9415 89.3 92.5748 89.19C92.0615 89.0286 91.6435 88.8746 91.3208 88.728C91.0055 88.5813 90.7341 88.3576 90.5068 88.057C90.2795 87.7563 90.1658 87.3566 90.1658 86.858C90.1658 86.4546 90.2758 86.088 90.4958 85.758C90.7158 85.4206 91.0275 85.1566 91.4308 84.966C91.8415 84.768 92.3108 84.669 92.8388 84.669C93.3888 84.669 93.8801 84.7716 94.3128 84.977C94.7528 85.1823 95.0938 85.4206 95.3358 85.692L94.4448 86.572C94.2468 86.3886 94.0158 86.231 93.7518 86.099C93.4878 85.967 93.1981 85.901 92.8828 85.901C92.4648 85.901 92.1421 85.9926 91.9148 86.176C91.6875 86.3593 91.5738 86.5866 91.5738 86.858C91.5738 87.0706 91.6398 87.2466 91.7718 87.386C91.9111 87.518 92.0798 87.628 92.2778 87.716C92.4831 87.7966 92.7655 87.892 93.1248 88.002C93.6381 88.1633 94.0525 88.3173 94.3678 88.464C94.6905 88.6106 94.9655 88.8343 95.1928 89.135C95.4201 89.4356 95.5338 89.8353 95.5338 90.334C95.5338 90.752 95.4201 91.137 95.1928 91.489C94.9655 91.8336 94.6391 92.1123 94.2138 92.325C93.7958 92.5303 93.3081 92.633 92.7508 92.633ZM98.4885 92.501H97.1135V84.801H98.4885V92.501ZM104.245 92.633C103.475 92.633 102.775 92.457 102.144 92.105C101.521 91.7456 101.03 91.2616 100.67 90.653C100.311 90.0443 100.131 89.377 100.131 88.651C100.131 87.925 100.311 87.2576 100.67 86.649C101.03 86.0403 101.521 85.56 102.144 85.208C102.775 84.8486 103.475 84.669 104.245 84.669C104.957 84.669 105.584 84.8156 106.126 85.109C106.669 85.395 107.109 85.7396 107.446 86.143L106.5 86.957C106.214 86.649 105.895 86.3996 105.543 86.209C105.191 86.0183 104.759 85.923 104.245 85.923C103.747 85.923 103.288 86.044 102.87 86.286C102.452 86.528 102.122 86.858 101.88 87.276C101.638 87.694 101.517 88.1523 101.517 88.651C101.517 89.1496 101.638 89.608 101.88 90.026C102.122 90.444 102.452 90.774 102.87 91.016C103.288 91.258 103.747 91.379 104.245 91.379C104.671 91.379 105.059 91.302 105.411 91.148C105.771 90.9866 106.038 90.8106 106.214 90.62V89.531H104.597V88.387H107.578V91.148C107.395 91.3826 107.138 91.6136 106.808 91.841C106.478 92.0683 106.09 92.259 105.642 92.413C105.202 92.5596 104.737 92.633 104.245 92.633ZM110.681 92.501H109.317V84.801H110.549L114.586 90.169H114.619V84.801H115.994V92.501H114.751L110.725 87.133H110.681V92.501ZM58.4838 110.633C57.7138 110.633 57.0134 110.457 56.3828 110.105C55.7594 109.746 55.2681 109.262 54.9088 108.653C54.5494 108.044 54.3698 107.377 54.3698 106.651C54.3698 105.925 54.5494 105.258 54.9088 104.649C55.2681 104.04 55.7594 103.56 56.3828 103.208C57.0134 102.849 57.7138 102.669 58.4838 102.669C59.1951 102.669 59.8221 102.816 60.3648 103.109C60.9074 103.395 61.3474 103.74 61.6848 104.143L60.7388 104.957C60.4528 104.649 60.1338 104.4 59.7818 104.209C59.4298 104.018 58.9971 103.923 58.4838 103.923C57.9851 103.923 57.5268 104.044 57.1088 104.286C56.6908 104.528 56.3608 104.858 56.1188 105.276C55.8768 105.694 55.7558 106.152 55.7558 106.651C55.7558 107.15 55.8768 107.608 56.1188 108.026C56.3608 108.444 56.6908 108.774 57.1088 109.016C57.5268 109.258 57.9851 109.379 58.4838 109.379C59.0044 109.379 59.4481 109.28 59.8148 109.082C60.1814 108.884 60.5041 108.627 60.7828 108.312L61.7398 109.126C61.3951 109.537 60.9441 109.892 60.3868 110.193C59.8294 110.486 59.1951 110.633 58.4838 110.633ZM66.5082 110.633C65.7382 110.633 65.0378 110.457 64.4072 110.105C63.7838 109.746 63.2925 109.262 62.9332 108.653C62.5738 108.044 62.3942 107.377 62.3942 106.651C62.3942 105.925 62.5738 105.258 62.9332 104.649C63.2925 104.04 63.7838 103.56 64.4072 103.208C65.0378 102.849 65.7382 102.669 66.5082 102.669C67.2782 102.669 67.9748 102.849 68.5982 103.208C69.2288 103.56 69.7238 104.04 70.0832 104.649C70.4425 105.258 70.6222 105.925 70.6222 106.651C70.6222 107.377 70.4425 108.044 70.0832 108.653C69.7238 109.262 69.2288 109.746 68.5982 110.105C67.9748 110.457 67.2782 110.633 66.5082 110.633ZM66.5082 109.379C67.0068 109.379 67.4652 109.258 67.8832 109.016C68.3012 108.774 68.6312 108.444 68.8732 108.026C69.1152 107.608 69.2362 107.15 69.2362 106.651C69.2362 106.152 69.1152 105.694 68.8732 105.276C68.6312 104.858 68.3012 104.528 67.8832 104.286C67.4652 104.044 67.0068 103.923 66.5082 103.923C66.0095 103.923 65.5512 104.044 65.1332 104.286C64.7152 104.528 64.3852 104.858 64.1432 105.276C63.9012 105.694 63.7802 106.152 63.7802 106.651C63.7802 107.15 63.9012 107.608 64.1432 108.026C64.3852 108.444 64.7152 108.774 65.1332 109.016C65.5512 109.258 66.0095 109.379 66.5082 109.379ZM73.6204 110.501H72.2454V102.801H73.5104L76.3044 106.387H76.3264L79.1314 102.801H80.3634V110.501H78.9884V105.078H78.9444L76.3044 108.455L73.6644 105.078H73.6204V110.501ZM82.4719 110.501V102.801H85.6289C86.1276 102.801 86.5786 102.915 86.9819 103.142C87.3853 103.362 87.7006 103.666 87.9279 104.055C88.1552 104.436 88.2689 104.858 88.2689 105.32C88.2689 105.782 88.1552 106.207 87.9279 106.596C87.7006 106.977 87.3853 107.278 86.9819 107.498C86.5786 107.718 86.1276 107.828 85.6289 107.828H83.8469V110.501H82.4719ZM85.6069 106.585C85.9662 106.585 86.2706 106.464 86.5199 106.222C86.7693 105.973 86.8939 105.672 86.8939 105.32C86.8939 104.961 86.7693 104.66 86.5199 104.418C86.2706 104.169 85.9662 104.044 85.6069 104.044H83.8469V106.585H85.6069ZM89.7562 110.501H88.3372L91.3842 102.801H92.9022L95.9382 110.501H94.4752L93.7602 108.609H90.4822L89.7562 110.501ZM92.1102 104.308L90.9442 107.399H93.2982L92.1322 104.308H92.1102ZM98.5097 110.501H97.1457V102.801H98.3777L102.415 108.169H102.448V102.801H103.823V110.501H102.58L98.5537 105.133H98.5097V110.501ZM109.222 110.501H107.847V107.773L104.965 102.801H106.538L108.54 106.343H108.584L110.564 102.801H112.115L109.222 107.773V110.501Z" fill="white"/>
<path d="M26.1957 137.75C25.6224 137.75 25.1124 137.627 24.6657 137.38C24.219 137.133 23.869 136.79 23.6157 136.35C23.369 135.91 23.2457 135.41 23.2457 134.85V130.65H24.3457V134.85C24.3457 135.21 24.4257 135.537 24.5857 135.83C24.7524 136.117 24.9757 136.343 25.2557 136.51C25.5357 136.67 25.849 136.75 26.1957 136.75C26.5224 136.75 26.8257 136.667 27.1057 136.5C27.3924 136.327 27.619 136.093 27.7857 135.8C27.959 135.507 28.0457 135.19 28.0457 134.85V130.65H29.1457V134.85C29.1457 135.41 29.019 135.91 28.7657 136.35C28.519 136.79 28.1724 137.133 27.7257 137.38C27.279 137.627 26.769 137.75 26.1957 137.75ZM32.141 137.65H31.041V130.65H32.041L35.861 135.76H35.891V130.65H36.991V137.65H35.991L32.171 132.54H32.141V137.65ZM40.0902 137.65H38.9902V130.65H40.0902V137.65ZM44.4859 137.65H43.3859V131.65H41.2859V130.65H46.5859V131.65H44.4859V137.65ZM52.8391 137.65H47.7891V130.65H52.7391V131.65H48.8891V133.52H51.9391V134.52H48.8891V136.65H52.8391V137.65ZM54.3418 137.65V130.65H56.6918C57.3585 130.65 57.9718 130.81 58.5318 131.13C59.0918 131.443 59.5318 131.87 59.8518 132.41C60.1785 132.943 60.3418 133.523 60.3418 134.15C60.3418 134.777 60.1785 135.36 59.8518 135.9C59.5318 136.433 59.0918 136.86 58.5318 137.18C57.9718 137.493 57.3585 137.65 56.6918 137.65H54.3418ZM56.6918 136.65C57.1651 136.65 57.5951 136.54 57.9818 136.32C58.3751 136.1 58.6818 135.8 58.9018 135.42C59.1285 135.033 59.2418 134.61 59.2418 134.15C59.2418 133.69 59.1285 133.27 58.9018 132.89C58.6818 132.503 58.3751 132.2 57.9818 131.98C57.5951 131.76 57.1651 131.65 56.6918 131.65H55.4418V136.65H56.6918ZM64.1726 137.65H63.0426L65.8426 130.65H67.0426L69.8426 137.65H68.6726L67.9726 135.85H64.8726L64.1726 137.65ZM66.4126 131.92L65.2726 134.85H67.5726L66.4326 131.92H66.4126ZM76.4422 137.65H75.1922L73.7422 135.05H72.0922V137.65H70.9922V130.65H73.8922C74.3322 130.65 74.7255 130.747 75.0722 130.94C75.4255 131.133 75.6989 131.397 75.8922 131.73C76.0922 132.063 76.1922 132.437 76.1922 132.85C76.1922 133.303 76.0722 133.71 75.8322 134.07C75.5922 134.43 75.2689 134.697 74.8622 134.87L76.4422 137.65ZM72.0922 131.65V134.05H73.8922C74.2455 134.05 74.5322 133.937 74.7522 133.71C74.9789 133.483 75.0922 133.197 75.0922 132.85C75.0922 132.497 74.9789 132.21 74.7522 131.99C74.5322 131.763 74.2455 131.65 73.8922 131.65H72.0922ZM78.1277 137.65H76.9977L79.7977 130.65H80.9977L83.7977 137.65H82.6277L81.9277 135.85H78.8277L78.1277 137.65ZM80.3677 131.92L79.2277 134.85H81.5277L80.3877 131.92H80.3677ZM84.9473 137.65V130.65H87.7473C88.1539 130.65 88.5173 130.733 88.8373 130.9C89.1573 131.067 89.4039 131.293 89.5773 131.58C89.7573 131.86 89.8473 132.167 89.8473 132.5C89.8473 132.827 89.7639 133.113 89.5973 133.36C89.4306 133.6 89.2239 133.777 88.9773 133.89C89.2839 134.003 89.5639 134.213 89.8173 134.52C90.0706 134.82 90.1973 135.18 90.1973 135.6C90.1973 135.967 90.0973 136.307 89.8973 136.62C89.7039 136.933 89.4306 137.183 89.0773 137.37C88.7306 137.557 88.3373 137.65 87.8973 137.65H84.9473ZM87.7473 133.5C88.0473 133.5 88.2873 133.413 88.4673 133.24C88.6539 133.06 88.7473 132.83 88.7473 132.55C88.7473 132.27 88.6539 132.043 88.4673 131.87C88.2873 131.69 88.0473 131.6 87.7473 131.6H86.0473V133.5H87.7473ZM87.8973 136.7C88.2439 136.7 88.5306 136.59 88.7573 136.37C88.9839 136.15 89.0973 135.877 89.0973 135.55C89.0973 135.223 88.9839 134.95 88.7573 134.73C88.5306 134.51 88.2439 134.4 87.8973 134.4H86.0473V136.7H87.8973ZM99.0988 137.65H94.0488V130.65H98.9988V131.65H95.1488V133.52H98.1988V134.52H95.1488V136.65H99.0988V137.65ZM101.702 137.65H100.602V130.65H101.612L104.252 134.04H104.272L106.912 130.65H107.902V137.65H106.802V132.53H106.762L104.252 135.75L101.742 132.53H101.702V137.65ZM110.998 137.65H109.898V130.65H110.998V137.65ZM118.444 137.65H117.194L115.744 135.05H114.094V137.65H112.994V130.65H115.894C116.334 130.65 116.727 130.747 117.074 130.94C117.427 131.133 117.701 131.397 117.894 131.73C118.094 132.063 118.194 132.437 118.194 132.85C118.194 133.303 118.074 133.71 117.834 134.07C117.594 134.43 117.271 134.697 116.864 134.87L118.444 137.65ZM114.094 131.65V134.05H115.894C116.247 134.05 116.534 133.937 116.754 133.71C116.981 133.483 117.094 133.197 117.094 132.85C117.094 132.497 116.981 132.21 116.754 131.99C116.534 131.763 116.247 131.65 115.894 131.65H114.094ZM120.13 137.65H119L121.8 130.65H123L125.8 137.65H124.63L123.93 135.85H120.83L120.13 137.65ZM122.37 131.92L121.23 134.85H123.53L122.39 131.92H122.37ZM128.851 137.65H127.751V131.65H125.651V130.65H130.951V131.65H128.851V137.65ZM137.204 137.65H132.154V130.65H137.104V131.65H133.254V133.52H136.304V134.52H133.254V136.65H137.204V137.65ZM140.657 137.75C140.09 137.75 139.59 137.647 139.157 137.44C138.73 137.233 138.397 136.987 138.157 136.7L138.897 135.98C139.384 136.493 139.97 136.75 140.657 136.75C141.09 136.75 141.43 136.65 141.677 136.45C141.93 136.243 142.057 135.993 142.057 135.7C142.057 135.487 141.99 135.313 141.857 135.18C141.73 135.047 141.567 134.94 141.367 134.86C141.174 134.78 140.904 134.693 140.557 134.6C140.084 134.46 139.704 134.327 139.417 134.2C139.13 134.067 138.88 133.863 138.667 133.59C138.46 133.317 138.357 132.953 138.357 132.5C138.357 132.147 138.454 131.823 138.647 131.53C138.84 131.23 139.117 130.993 139.477 130.82C139.844 130.64 140.27 130.55 140.757 130.55C141.23 130.55 141.657 130.64 142.037 130.82C142.424 131 142.73 131.21 142.957 131.45L142.217 132.17C142.044 132.003 141.83 131.86 141.577 131.74C141.33 131.613 141.057 131.55 140.757 131.55C140.35 131.55 140.03 131.643 139.797 131.83C139.57 132.01 139.457 132.233 139.457 132.5C139.457 132.713 139.52 132.887 139.647 133.02C139.78 133.153 139.944 133.26 140.137 133.34C140.337 133.42 140.61 133.507 140.957 133.6C141.43 133.74 141.81 133.877 142.097 134.01C142.384 134.137 142.63 134.337 142.837 134.61C143.05 134.883 143.157 135.247 143.157 135.7C143.157 136.067 143.054 136.407 142.847 136.72C142.647 137.033 142.357 137.283 141.977 137.47C141.597 137.657 141.157 137.75 140.657 137.75Z" fill="#A2A2A2"/>
<path d="M66.906 155.867C66.906 155.083 67.0507 154.406 67.34 153.837C67.6387 153.267 67.9933 152.805 68.404 152.451C68.8147 152.087 69.3467 151.685 70 151.247C70.4573 150.939 70.812 150.687 71.064 150.491C71.316 150.285 71.526 150.057 71.694 149.805C71.862 149.543 71.946 149.254 71.946 148.937C71.946 148.47 71.792 148.097 71.484 147.817C71.176 147.537 70.7467 147.397 70.196 147.397C69.7107 147.397 69.3093 147.532 68.992 147.803C68.6747 148.064 68.4413 148.372 68.292 148.727L67.032 148.167C67.1347 147.812 67.3213 147.467 67.592 147.131C67.8627 146.785 68.2173 146.501 68.656 146.277C69.0947 146.043 69.608 145.927 70.196 145.927C70.8307 145.927 71.4 146.062 71.904 146.333C72.408 146.594 72.7953 146.953 73.066 147.411C73.346 147.868 73.486 148.377 73.486 148.937C73.486 149.459 73.3693 149.921 73.136 150.323C72.912 150.715 72.6367 151.051 72.31 151.331C71.9833 151.601 71.5353 151.928 70.966 152.311C70.378 152.703 69.9067 153.048 69.552 153.347C69.2067 153.645 68.9313 153.995 68.726 154.397H73.486V155.867H66.906ZM79.01 156.007C78.254 156.007 77.568 155.811 76.952 155.419C76.336 155.017 75.846 154.439 75.482 153.683C75.1273 152.917 74.95 152.012 74.95 150.967C74.95 149.921 75.1273 149.021 75.482 148.265C75.846 147.499 76.336 146.921 76.952 146.529C77.568 146.127 78.254 145.927 79.01 145.927C79.766 145.927 80.452 146.127 81.068 146.529C81.684 146.921 82.1693 147.499 82.524 148.265C82.888 149.021 83.07 149.921 83.07 150.967C83.07 152.012 82.888 152.917 82.524 153.683C82.1693 154.439 81.684 155.017 81.068 155.419C80.452 155.811 79.766 156.007 79.01 156.007ZM79.01 154.607C79.4673 154.607 79.8873 154.471 80.27 154.201C80.6527 153.921 80.956 153.51 81.18 152.969C81.4133 152.418 81.53 151.751 81.53 150.967C81.53 150.183 81.4133 149.52 81.18 148.979C80.956 148.428 80.6527 148.017 80.27 147.747C79.8873 147.467 79.4673 147.327 79.01 147.327C78.5527 147.327 78.1327 147.467 77.75 147.747C77.3673 148.017 77.0593 148.428 76.826 148.979C76.602 149.52 76.49 150.183 76.49 150.967C76.49 151.751 76.602 152.418 76.826 152.969C77.0593 153.51 77.3673 153.921 77.75 154.201C78.1327 154.471 78.5527 154.607 79.01 154.607ZM84.2556 155.867C84.2556 155.083 84.4003 154.406 84.6896 153.837C84.9883 153.267 85.343 152.805 85.7536 152.451C86.1643 152.087 86.6963 151.685 87.3496 151.247C87.807 150.939 88.1616 150.687 88.4136 150.491C88.6656 150.285 88.8756 150.057 89.0436 149.805C89.2116 149.543 89.2956 149.254 89.2956 148.937C89.2956 148.47 89.1416 148.097 88.8336 147.817C88.5256 147.537 88.0963 147.397 87.5456 147.397C87.0603 147.397 86.659 147.532 86.3416 147.803C86.0243 148.064 85.791 148.372 85.6416 148.727L84.3816 148.167C84.4843 147.812 84.671 147.467 84.9416 147.131C85.2123 146.785 85.567 146.501 86.0056 146.277C86.4443 146.043 86.9576 145.927 87.5456 145.927C88.1803 145.927 88.7496 146.062 89.2536 146.333C89.7576 146.594 90.145 146.953 90.4156 147.411C90.6956 147.868 90.8356 148.377 90.8356 148.937C90.8356 149.459 90.719 149.921 90.4856 150.323C90.2616 150.715 89.9863 151.051 89.6596 151.331C89.333 151.601 88.885 151.928 88.3156 152.311C87.7276 152.703 87.2563 153.048 86.9016 153.347C86.5563 153.645 86.281 153.995 86.0756 154.397H90.8356V155.867H84.2556ZM97.9062 155.867H96.4362V153.837H91.7462V152.227L96.1562 146.067H97.9062V152.507H99.1662V153.837H97.9062V155.867ZM96.4082 147.929L93.1742 152.507H96.4362V147.929H96.4082Z" fill="white"/>
</svg>
