<svg width="167" height="194" viewBox="0 0 167 194" fill="none" xmlns="http://www.w3.org/2000/svg">
<path d="M75.7035 8.17793C80.5448 5.45598 86.4552 5.45598 91.2965 8.17792L157.402 45.3448C162.413 48.162 165.514 53.4633 165.514 59.2117V132.79C165.514 138.539 162.413 143.84 157.402 146.657L91.2965 183.824C86.4552 186.546 80.5448 186.546 75.7035 183.824L9.59812 146.657C4.58739 143.84 1.48624 138.539 1.48624 132.79V59.2117C1.48624 53.4633 4.58738 48.162 9.59811 45.3448L75.7035 8.17793Z" fill="black" stroke="#545454" stroke-width="1.38333"/>
<path d="M69.8475 45.001H66.5508V62.5498H69.8475V45.001Z" fill="white"/>
<path d="M80.4687 57.3225C80.4687 60.0551 77.9304 60.2723 77.2195 60.2723C75.4396 60.2723 74.9742 58.6736 74.9742 57.7111V50.9751H72.4102V57.6959C72.4102 59.3914 72.9338 60.7908 73.9079 61.7215C74.8671 62.5844 76.1125 63.0422 77.3918 62.9979C78.4825 62.9703 79.5462 62.6425 80.4687 62.0493V62.5499H83.3991V50.9751H80.4687V57.3225Z" fill="white"/>
<path d="M89.6262 46.8682H86.3295V50.9753H84.498V53.2156H86.3295V62.5501H89.6262V53.2156H91.824V50.9753H89.6262V46.8682Z" fill="white"/>
<path d="M101.315 59.3319C100.622 59.9085 99.7521 60.2169 98.8567 60.2017C96.7688 60.2017 95.2371 58.7414 95.2371 56.7362C95.2371 54.731 96.7023 53.3343 98.8567 53.3343C99.7548 53.3177 100.63 53.6205 101.333 54.1889L101.787 54.5623L103.808 52.6359L103.302 52.2031C102.048 51.1479 100.464 50.5796 98.8377 50.6017C95.0906 50.6017 92.3691 53.1822 92.3691 56.7251C92.3691 60.2681 95.1571 62.9232 98.8377 62.9232C100.472 62.9495 102.062 62.3756 103.317 61.3066L103.804 60.8696L101.753 58.9433L101.314 59.3319H101.315Z" fill="white"/>
<path d="M114.587 52.0648C113.61 51.2032 112.351 50.7483 111.06 50.7911C109.95 50.7773 108.863 51.1078 107.942 51.7398V45.001H105.012V62.5498H107.942V56.4637C107.942 53.7312 110.297 53.5099 111.008 53.5099C112.788 53.5099 113.07 55.1113 113.07 56.0751V62.5498H116.001V56.0904C116.001 54.3949 115.576 52.9982 114.587 52.0648Z" fill="white"/>
<path d="M98.7414 58.8354C99.9372 58.8354 100.907 57.9091 100.907 56.7666C100.907 55.624 99.9372 54.6978 98.7414 54.6978C97.5456 54.6978 96.5762 55.624 96.5762 56.7666C96.5762 57.9091 97.5456 58.8354 98.7414 58.8354Z" fill="#FF3D2E"/>
<path d="M62.9344 58.476C61.7703 59.5989 60.2224 60.2185 58.6188 60.2005C55.2787 60.2005 52.8503 57.6989 52.8503 54.2638C52.8503 50.8287 55.2787 48.3118 58.6188 48.3118C60.2129 48.3035 61.7514 48.9161 62.9194 50.0224L63.3739 50.4594L65.3777 48.5483L64.9381 48.1113C63.2328 46.467 60.9659 45.5654 58.6188 45.5944C53.6996 45.5944 50 49.3282 50 54.279C50 59.2297 53.7145 62.9234 58.6188 62.9234C60.974 62.9511 63.2477 62.0411 64.9558 60.3886L65.3953 59.9557L63.4065 58.0141L62.9344 58.4774V58.476Z" fill="white"/>
<path d="M79.4209 15.4796C81.9527 14.0509 85.0473 14.0509 87.5791 15.4796L153.156 52.4846C155.764 53.9563 157.377 56.7186 157.377 59.7131V133.289C157.377 136.283 155.764 139.046 153.156 140.517L87.5791 177.522C85.0473 178.951 81.9527 178.951 79.4209 177.522L13.8444 140.517C11.2364 139.046 9.62342 136.283 9.62342 133.289V59.7131C9.62342 56.7186 11.2364 53.9563 13.8444 52.4846L79.4209 15.4796Z" stroke="#545454" stroke-width="5.53333"/>
<rect width="144" height="48" transform="translate(11 72.501)" fill="#545454"/>
<path d="M61.3651 92.501H59.9901V86.066H57.7131V84.801H63.6421V86.066H61.3651V92.501ZM68.3343 92.633C67.5643 92.633 66.864 92.457 66.2333 92.105C65.61 91.7456 65.1187 91.2616 64.7593 90.653C64.4 90.0443 64.2203 89.377 64.2203 88.651C64.2203 87.925 64.4 87.2576 64.7593 86.649C65.1187 86.0403 65.61 85.56 66.2333 85.208C66.864 84.8486 67.5643 84.669 68.3343 84.669C69.1043 84.669 69.801 84.8486 70.4243 85.208C71.055 85.56 71.55 86.0403 71.9093 86.649C72.2687 87.2576 72.4483 87.925 72.4483 88.651C72.4483 89.377 72.2687 90.0443 71.9093 90.653C71.55 91.2616 71.055 91.7456 70.4243 92.105C69.801 92.457 69.1043 92.633 68.3343 92.633ZM68.3343 91.379C68.833 91.379 69.2913 91.258 69.7093 91.016C70.1273 90.774 70.4573 90.444 70.6993 90.026C70.9413 89.608 71.0623 89.1496 71.0623 88.651C71.0623 88.1523 70.9413 87.694 70.6993 87.276C70.4573 86.858 70.1273 86.528 69.7093 86.286C69.2913 86.044 68.833 85.923 68.3343 85.923C67.8357 85.923 67.3773 86.044 66.9593 86.286C66.5413 86.528 66.2113 86.858 65.9693 87.276C65.7273 87.694 65.6063 88.1523 65.6063 88.651C65.6063 89.1496 65.7273 89.608 65.9693 90.026C66.2113 90.444 66.5413 90.774 66.9593 91.016C67.3773 91.258 67.8357 91.379 68.3343 91.379ZM74.0715 92.501V84.801H77.2285C77.7272 84.801 78.1782 84.9146 78.5815 85.142C78.9849 85.362 79.3002 85.6663 79.5275 86.055C79.7549 86.4363 79.8685 86.858 79.8685 87.32C79.8685 87.782 79.7549 88.2073 79.5275 88.596C79.3002 88.9773 78.9849 89.278 78.5815 89.498C78.1782 89.718 77.7272 89.828 77.2285 89.828H75.4465V92.501H74.0715ZM77.2065 88.585C77.5659 88.585 77.8702 88.464 78.1195 88.222C78.3689 87.9726 78.4935 87.672 78.4935 87.32C78.4935 86.9606 78.3689 86.66 78.1195 86.418C77.8702 86.1686 77.5659 86.044 77.2065 86.044H75.4465V88.585H77.2065ZM86.1294 92.501H84.8314L82.3014 84.801H83.7534L85.5134 90.345H85.5464L87.2844 84.801H88.5824L90.3204 90.345H90.3534L92.1024 84.801H93.5214L90.9914 92.501H89.6824L87.9224 86.88H87.9004L86.1294 92.501ZM100.415 92.501H94.7717V84.801H100.305V86.044H96.1467V87.914H99.4247V89.146H96.1467V91.258H100.415V92.501ZM102.023 92.501V84.801H105.18C105.649 84.801 106.063 84.8926 106.423 85.076C106.782 85.2593 107.061 85.5086 107.259 85.824C107.457 86.132 107.556 86.4693 107.556 86.836C107.556 87.2026 107.46 87.5216 107.27 87.793C107.086 88.0643 106.855 88.2586 106.577 88.376C106.921 88.5006 107.233 88.7316 107.512 89.069C107.798 89.399 107.941 89.7986 107.941 90.268C107.941 90.6713 107.831 91.0453 107.611 91.39C107.398 91.7273 107.094 91.9986 106.698 92.204C106.309 92.402 105.865 92.501 105.367 92.501H102.023ZM105.147 87.903C105.455 87.903 105.7 87.815 105.884 87.639C106.074 87.4556 106.17 87.221 106.17 86.935C106.17 86.649 106.074 86.4143 105.884 86.231C105.7 86.0476 105.455 85.956 105.147 85.956H103.398V87.903H105.147ZM105.334 91.346C105.686 91.346 105.975 91.2323 106.203 91.005C106.437 90.7776 106.555 90.499 106.555 90.169C106.555 89.839 106.437 89.564 106.203 89.344C105.975 89.1166 105.686 89.003 105.334 89.003H103.398V91.346H105.334ZM46.6951 110.501V102.801H49.3351C50.0831 102.801 50.7651 102.977 51.3811 103.329C52.0044 103.674 52.4921 104.139 52.8441 104.726C53.2034 105.313 53.3831 105.954 53.3831 106.651C53.3831 107.348 53.2034 107.989 52.8441 108.576C52.4921 109.163 52.0044 109.632 51.3811 109.984C50.7651 110.329 50.0831 110.501 49.3351 110.501H46.6951ZM49.3351 109.258C49.8337 109.258 50.2847 109.144 50.6881 108.917C51.0987 108.682 51.4177 108.367 51.6451 107.971C51.8797 107.575 51.9971 107.135 51.9971 106.651C51.9971 106.167 51.8797 105.727 51.6451 105.331C51.4177 104.935 51.0987 104.623 50.6881 104.396C50.2847 104.161 49.8337 104.044 49.3351 104.044H48.0701V109.258H49.3351ZM60.6525 110.501H55.0095V102.801H60.5425V104.044H56.3845V105.914H59.6625V107.146H56.3845V109.258H60.6525V110.501ZM65.8465 110.501H64.3285L61.4025 102.801H62.8655L65.0875 108.873H65.1095L67.3535 102.801H68.7725L65.8465 110.501ZM75.6701 110.501H70.0271V102.801H75.5601V104.044H71.4021V105.914H74.6801V107.146H71.4021V109.258H75.6701V110.501ZM82.3271 110.501H77.2781V102.801H78.6531V109.236H82.3271V110.501ZM86.9022 110.633C86.1322 110.633 85.4319 110.457 84.8012 110.105C84.1779 109.746 83.6865 109.262 83.3272 108.653C82.9679 108.044 82.7882 107.377 82.7882 106.651C82.7882 105.925 82.9679 105.258 83.3272 104.649C83.6865 104.04 84.1779 103.56 84.8012 103.208C85.4319 102.849 86.1322 102.669 86.9022 102.669C87.6722 102.669 88.3689 102.849 88.9922 103.208C89.6229 103.56 90.1179 104.04 90.4772 104.649C90.8365 105.258 91.0162 105.925 91.0162 106.651C91.0162 107.377 90.8365 108.044 90.4772 108.653C90.1179 109.262 89.6229 109.746 88.9922 110.105C88.3689 110.457 87.6722 110.633 86.9022 110.633ZM86.9022 109.379C87.4009 109.379 87.8592 109.258 88.2772 109.016C88.6952 108.774 89.0252 108.444 89.2672 108.026C89.5092 107.608 89.6302 107.15 89.6302 106.651C89.6302 106.152 89.5092 105.694 89.2672 105.276C89.0252 104.858 88.6952 104.528 88.2772 104.286C87.8592 104.044 87.4009 103.923 86.9022 103.923C86.4035 103.923 85.9452 104.044 85.5272 104.286C85.1092 104.528 84.7792 104.858 84.5372 105.276C84.2952 105.694 84.1742 106.152 84.1742 106.651C84.1742 107.15 84.2952 107.608 84.5372 108.026C84.7792 108.444 85.1092 108.774 85.5272 109.016C85.9452 109.258 86.4035 109.379 86.9022 109.379ZM92.6394 110.501V102.801H95.7964C96.2951 102.801 96.7461 102.915 97.1494 103.142C97.5527 103.362 97.8681 103.666 98.0954 104.055C98.3227 104.436 98.4364 104.858 98.4364 105.32C98.4364 105.782 98.3227 106.207 98.0954 106.596C97.8681 106.977 97.5527 107.278 97.1494 107.498C96.7461 107.718 96.2951 107.828 95.7964 107.828H94.0144V110.501H92.6394ZM95.7744 106.585C96.1337 106.585 96.4381 106.464 96.6874 106.222C96.9367 105.973 97.0614 105.672 97.0614 105.32C97.0614 104.961 96.9367 104.66 96.6874 104.418C96.4381 104.169 96.1337 104.044 95.7744 104.044H94.0144V106.585H95.7744ZM105.501 110.501H99.8581V102.801H105.391V104.044H101.233V105.914H104.511V107.146H101.233V109.258H105.501V110.501ZM113.236 110.501H111.707L110.178 107.718H108.484V110.501H107.109V102.801H110.387C110.886 102.801 111.329 102.911 111.718 103.131C112.107 103.344 112.411 103.637 112.631 104.011C112.851 104.385 112.961 104.803 112.961 105.265C112.961 105.764 112.833 106.211 112.576 106.607C112.327 107.003 111.982 107.296 111.542 107.487L113.236 110.501ZM108.484 104.044V106.475H110.365C110.724 106.475 111.018 106.361 111.245 106.134C111.472 105.907 111.586 105.617 111.586 105.265C111.586 104.906 111.472 104.612 111.245 104.385C111.018 104.158 110.724 104.044 110.365 104.044H108.484ZM117.055 110.633C116.402 110.633 115.83 110.516 115.339 110.281C114.855 110.039 114.481 109.753 114.217 109.423L115.119 108.554C115.647 109.111 116.278 109.39 117.011 109.39C117.451 109.39 117.799 109.287 118.056 109.082C118.313 108.877 118.441 108.627 118.441 108.334C118.441 108.121 118.371 107.949 118.232 107.817C118.1 107.678 117.931 107.568 117.726 107.487C117.528 107.399 117.246 107.3 116.879 107.19C116.366 107.029 115.948 106.875 115.625 106.728C115.31 106.581 115.038 106.358 114.811 106.057C114.584 105.756 114.47 105.357 114.47 104.858C114.47 104.455 114.58 104.088 114.8 103.758C115.02 103.421 115.332 103.157 115.735 102.966C116.146 102.768 116.615 102.669 117.143 102.669C117.693 102.669 118.184 102.772 118.617 102.977C119.057 103.182 119.398 103.421 119.64 103.692L118.749 104.572C118.551 104.389 118.32 104.231 118.056 104.099C117.792 103.967 117.502 103.901 117.187 103.901C116.769 103.901 116.446 103.993 116.219 104.176C115.992 104.359 115.878 104.587 115.878 104.858C115.878 105.071 115.944 105.247 116.076 105.386C116.215 105.518 116.384 105.628 116.582 105.716C116.787 105.797 117.07 105.892 117.429 106.002C117.942 106.163 118.357 106.317 118.672 106.464C118.995 106.611 119.27 106.834 119.497 107.135C119.724 107.436 119.838 107.835 119.838 108.334C119.838 108.752 119.724 109.137 119.497 109.489C119.27 109.834 118.943 110.112 118.518 110.325C118.1 110.53 117.612 110.633 117.055 110.633Z" fill="white"/>
<path d="M26.1957 137.75C25.6224 137.75 25.1124 137.627 24.6657 137.38C24.219 137.133 23.869 136.79 23.6157 136.35C23.369 135.91 23.2457 135.41 23.2457 134.85V130.65H24.3457V134.85C24.3457 135.21 24.4257 135.537 24.5857 135.83C24.7524 136.117 24.9757 136.343 25.2557 136.51C25.5357 136.67 25.849 136.75 26.1957 136.75C26.5224 136.75 26.8257 136.667 27.1057 136.5C27.3924 136.327 27.619 136.093 27.7857 135.8C27.959 135.507 28.0457 135.19 28.0457 134.85V130.65H29.1457V134.85C29.1457 135.41 29.019 135.91 28.7657 136.35C28.519 136.79 28.1724 137.133 27.7257 137.38C27.279 137.627 26.769 137.75 26.1957 137.75ZM32.141 137.65H31.041V130.65H32.041L35.861 135.76H35.891V130.65H36.991V137.65H35.991L32.171 132.54H32.141V137.65ZM40.0902 137.65H38.9902V130.65H40.0902V137.65ZM44.4859 137.65H43.3859V131.65H41.2859V130.65H46.5859V131.65H44.4859V137.65ZM52.8391 137.65H47.7891V130.65H52.7391V131.65H48.8891V133.52H51.9391V134.52H48.8891V136.65H52.8391V137.65ZM54.3418 137.65V130.65H56.6918C57.3585 130.65 57.9718 130.81 58.5318 131.13C59.0918 131.443 59.5318 131.87 59.8518 132.41C60.1785 132.943 60.3418 133.523 60.3418 134.15C60.3418 134.777 60.1785 135.36 59.8518 135.9C59.5318 136.433 59.0918 136.86 58.5318 137.18C57.9718 137.493 57.3585 137.65 56.6918 137.65H54.3418ZM56.6918 136.65C57.1651 136.65 57.5951 136.54 57.9818 136.32C58.3751 136.1 58.6818 135.8 58.9018 135.42C59.1285 135.033 59.2418 134.61 59.2418 134.15C59.2418 133.69 59.1285 133.27 58.9018 132.89C58.6818 132.503 58.3751 132.2 57.9818 131.98C57.5951 131.76 57.1651 131.65 56.6918 131.65H55.4418V136.65H56.6918ZM64.1726 137.65H63.0426L65.8426 130.65H67.0426L69.8426 137.65H68.6726L67.9726 135.85H64.8726L64.1726 137.65ZM66.4126 131.92L65.2726 134.85H67.5726L66.4326 131.92H66.4126ZM76.4422 137.65H75.1922L73.7422 135.05H72.0922V137.65H70.9922V130.65H73.8922C74.3322 130.65 74.7255 130.747 75.0722 130.94C75.4255 131.133 75.6989 131.397 75.8922 131.73C76.0922 132.063 76.1922 132.437 76.1922 132.85C76.1922 133.303 76.0722 133.71 75.8322 134.07C75.5922 134.43 75.2689 134.697 74.8622 134.87L76.4422 137.65ZM72.0922 131.65V134.05H73.8922C74.2455 134.05 74.5322 133.937 74.7522 133.71C74.9789 133.483 75.0922 133.197 75.0922 132.85C75.0922 132.497 74.9789 132.21 74.7522 131.99C74.5322 131.763 74.2455 131.65 73.8922 131.65H72.0922ZM78.1277 137.65H76.9977L79.7977 130.65H80.9977L83.7977 137.65H82.6277L81.9277 135.85H78.8277L78.1277 137.65ZM80.3677 131.92L79.2277 134.85H81.5277L80.3877 131.92H80.3677ZM84.9473 137.65V130.65H87.7473C88.1539 130.65 88.5173 130.733 88.8373 130.9C89.1573 131.067 89.4039 131.293 89.5773 131.58C89.7573 131.86 89.8473 132.167 89.8473 132.5C89.8473 132.827 89.7639 133.113 89.5973 133.36C89.4306 133.6 89.2239 133.777 88.9773 133.89C89.2839 134.003 89.5639 134.213 89.8173 134.52C90.0706 134.82 90.1973 135.18 90.1973 135.6C90.1973 135.967 90.0973 136.307 89.8973 136.62C89.7039 136.933 89.4306 137.183 89.0773 137.37C88.7306 137.557 88.3373 137.65 87.8973 137.65H84.9473ZM87.7473 133.5C88.0473 133.5 88.2873 133.413 88.4673 133.24C88.6539 133.06 88.7473 132.83 88.7473 132.55C88.7473 132.27 88.6539 132.043 88.4673 131.87C88.2873 131.69 88.0473 131.6 87.7473 131.6H86.0473V133.5H87.7473ZM87.8973 136.7C88.2439 136.7 88.5306 136.59 88.7573 136.37C88.9839 136.15 89.0973 135.877 89.0973 135.55C89.0973 135.223 88.9839 134.95 88.7573 134.73C88.5306 134.51 88.2439 134.4 87.8973 134.4H86.0473V136.7H87.8973ZM99.0988 137.65H94.0488V130.65H98.9988V131.65H95.1488V133.52H98.1988V134.52H95.1488V136.65H99.0988V137.65ZM101.702 137.65H100.602V130.65H101.612L104.252 134.04H104.272L106.912 130.65H107.902V137.65H106.802V132.53H106.762L104.252 135.75L101.742 132.53H101.702V137.65ZM110.998 137.65H109.898V130.65H110.998V137.65ZM118.444 137.65H117.194L115.744 135.05H114.094V137.65H112.994V130.65H115.894C116.334 130.65 116.727 130.747 117.074 130.94C117.427 131.133 117.701 131.397 117.894 131.73C118.094 132.063 118.194 132.437 118.194 132.85C118.194 133.303 118.074 133.71 117.834 134.07C117.594 134.43 117.271 134.697 116.864 134.87L118.444 137.65ZM114.094 131.65V134.05H115.894C116.247 134.05 116.534 133.937 116.754 133.71C116.981 133.483 117.094 133.197 117.094 132.85C117.094 132.497 116.981 132.21 116.754 131.99C116.534 131.763 116.247 131.65 115.894 131.65H114.094ZM120.13 137.65H119L121.8 130.65H123L125.8 137.65H124.63L123.93 135.85H120.83L120.13 137.65ZM122.37 131.92L121.23 134.85H123.53L122.39 131.92H122.37ZM128.851 137.65H127.751V131.65H125.651V130.65H130.951V131.65H128.851V137.65ZM137.204 137.65H132.154V130.65H137.104V131.65H133.254V133.52H136.304V134.52H133.254V136.65H137.204V137.65ZM140.657 137.75C140.09 137.75 139.59 137.647 139.157 137.44C138.73 137.233 138.397 136.987 138.157 136.7L138.897 135.98C139.384 136.493 139.97 136.75 140.657 136.75C141.09 136.75 141.43 136.65 141.677 136.45C141.93 136.243 142.057 135.993 142.057 135.7C142.057 135.487 141.99 135.313 141.857 135.18C141.73 135.047 141.567 134.94 141.367 134.86C141.174 134.78 140.904 134.693 140.557 134.6C140.084 134.46 139.704 134.327 139.417 134.2C139.13 134.067 138.88 133.863 138.667 133.59C138.46 133.317 138.357 132.953 138.357 132.5C138.357 132.147 138.454 131.823 138.647 131.53C138.84 131.23 139.117 130.993 139.477 130.82C139.844 130.64 140.27 130.55 140.757 130.55C141.23 130.55 141.657 130.64 142.037 130.82C142.424 131 142.73 131.21 142.957 131.45L142.217 132.17C142.044 132.003 141.83 131.86 141.577 131.74C141.33 131.613 141.057 131.55 140.757 131.55C140.35 131.55 140.03 131.643 139.797 131.83C139.57 132.01 139.457 132.233 139.457 132.5C139.457 132.713 139.52 132.887 139.647 133.02C139.78 133.153 139.944 133.26 140.137 133.34C140.337 133.42 140.61 133.507 140.957 133.6C141.43 133.74 141.81 133.877 142.097 134.01C142.384 134.137 142.63 134.337 142.837 134.61C143.05 134.883 143.157 135.247 143.157 135.7C143.157 136.067 143.054 136.407 142.847 136.72C142.647 137.033 142.357 137.283 141.977 137.47C141.597 137.657 141.157 137.75 140.657 137.75Z" fill="#A2A2A2"/>
<path d="M66.906 155.867C66.906 155.083 67.0507 154.406 67.34 153.837C67.6387 153.267 67.9933 152.805 68.404 152.451C68.8147 152.087 69.3467 151.685 70 151.247C70.4573 150.939 70.812 150.687 71.064 150.491C71.316 150.285 71.526 150.057 71.694 149.805C71.862 149.543 71.946 149.254 71.946 148.937C71.946 148.47 71.792 148.097 71.484 147.817C71.176 147.537 70.7467 147.397 70.196 147.397C69.7107 147.397 69.3093 147.532 68.992 147.803C68.6747 148.064 68.4413 148.372 68.292 148.727L67.032 148.167C67.1347 147.812 67.3213 147.467 67.592 147.131C67.8627 146.785 68.2173 146.501 68.656 146.277C69.0947 146.043 69.608 145.927 70.196 145.927C70.8307 145.927 71.4 146.062 71.904 146.333C72.408 146.594 72.7953 146.953 73.066 147.411C73.346 147.868 73.486 148.377 73.486 148.937C73.486 149.459 73.3693 149.921 73.136 150.323C72.912 150.715 72.6367 151.051 72.31 151.331C71.9833 151.601 71.5353 151.928 70.966 152.311C70.378 152.703 69.9067 153.048 69.552 153.347C69.2067 153.645 68.9313 153.995 68.726 154.397H73.486V155.867H66.906ZM79.01 156.007C78.254 156.007 77.568 155.811 76.952 155.419C76.336 155.017 75.846 154.439 75.482 153.683C75.1273 152.917 74.95 152.012 74.95 150.967C74.95 149.921 75.1273 149.021 75.482 148.265C75.846 147.499 76.336 146.921 76.952 146.529C77.568 146.127 78.254 145.927 79.01 145.927C79.766 145.927 80.452 146.127 81.068 146.529C81.684 146.921 82.1693 147.499 82.524 148.265C82.888 149.021 83.07 149.921 83.07 150.967C83.07 152.012 82.888 152.917 82.524 153.683C82.1693 154.439 81.684 155.017 81.068 155.419C80.452 155.811 79.766 156.007 79.01 156.007ZM79.01 154.607C79.4673 154.607 79.8873 154.471 80.27 154.201C80.6527 153.921 80.956 153.51 81.18 152.969C81.4133 152.418 81.53 151.751 81.53 150.967C81.53 150.183 81.4133 149.52 81.18 148.979C80.956 148.428 80.6527 148.017 80.27 147.747C79.8873 147.467 79.4673 147.327 79.01 147.327C78.5527 147.327 78.1327 147.467 77.75 147.747C77.3673 148.017 77.0593 148.428 76.826 148.979C76.602 149.52 76.49 150.183 76.49 150.967C76.49 151.751 76.602 152.418 76.826 152.969C77.0593 153.51 77.3673 153.921 77.75 154.201C78.1327 154.471 78.5527 154.607 79.01 154.607ZM84.2556 155.867C84.2556 155.083 84.4003 154.406 84.6896 153.837C84.9883 153.267 85.343 152.805 85.7536 152.451C86.1643 152.087 86.6963 151.685 87.3496 151.247C87.807 150.939 88.1616 150.687 88.4136 150.491C88.6656 150.285 88.8756 150.057 89.0436 149.805C89.2116 149.543 89.2956 149.254 89.2956 148.937C89.2956 148.47 89.1416 148.097 88.8336 147.817C88.5256 147.537 88.0963 147.397 87.5456 147.397C87.0603 147.397 86.659 147.532 86.3416 147.803C86.0243 148.064 85.791 148.372 85.6416 148.727L84.3816 148.167C84.4843 147.812 84.671 147.467 84.9416 147.131C85.2123 146.785 85.567 146.501 86.0056 146.277C86.4443 146.043 86.9576 145.927 87.5456 145.927C88.1803 145.927 88.7496 146.062 89.2536 146.333C89.7576 146.594 90.145 146.953 90.4156 147.411C90.6956 147.868 90.8356 148.377 90.8356 148.937C90.8356 149.459 90.719 149.921 90.4856 150.323C90.2616 150.715 89.9863 151.051 89.6596 151.331C89.333 151.601 88.885 151.928 88.3156 152.311C87.7276 152.703 87.2563 153.048 86.9016 153.347C86.5563 153.645 86.281 153.995 86.0756 154.397H90.8356V155.867H84.2556ZM97.9062 155.867H96.4362V153.837H91.7462V152.227L96.1562 146.067H97.9062V152.507H99.1662V153.837H97.9062V155.867ZM96.4082 147.929L93.1742 152.507H96.4362V147.929H96.4082Z" fill="white"/>
</svg>
