<svg width="114" height="48" viewBox="0 0 114 48" fill="none" xmlns="http://www.w3.org/2000/svg">
<path fill-rule="evenodd" clip-rule="evenodd" d="M49.5788 8.50344C51.2728 9.04516 52.0743 10.2478 52.2807 11.837C52.455 13.1836 52.1698 14.4778 51.7057 15.7421C50.6578 18.5905 48.8595 20.9959 46.5428 23.0795C44.528 24.8897 42.2179 26.2764 39.5359 27.1028C37.4467 27.7463 35.3087 27.9509 33.1252 27.7062C32.2859 27.6116 31.4645 27.4256 30.6863 27.1038C28.2775 26.1047 27.3527 24.056 28.2785 21.772C28.7426 20.6269 29.5185 19.6863 30.4998 18.8855C32.367 17.3611 34.586 16.5768 37.026 16.2797C38.3437 16.1194 39.6635 16.1297 40.9823 16.2818C41.1089 16.2972 41.2365 16.3085 41.3598 16.3373C41.5363 16.3794 41.7372 16.4627 41.6939 16.6457C41.665 16.7762 41.5074 16.9201 41.3687 16.9808C41.2033 17.0507 40.9957 17.0414 40.8058 17.061C39.5947 17.1874 38.4247 17.4577 37.3047 17.9039C35.5396 18.6059 34.0465 19.6318 32.9487 21.1069C32.3625 21.8933 31.9407 22.7454 31.8686 23.7148C31.8508 23.9625 31.8608 24.2174 31.9052 24.461C32.0795 25.418 32.831 26.0626 33.9111 26.2116C34.8569 26.3422 35.786 26.264 36.7052 26.041C38.1894 25.6802 39.5337 25.0408 40.7725 24.2226C44.2904 21.8994 47.0278 18.9616 48.8639 15.3299C49.2769 14.5138 49.5833 13.6606 49.6732 12.756C49.6976 12.5083 49.7031 12.2554 49.6821 12.0077C49.5799 10.8214 48.8672 10.1255 47.5773 9.97338C45.8323 9.76882 44.1128 9.94871 42.4132 10.3352C39.9611 10.8913 37.7009 11.8689 35.534 13.0448C33.1352 14.3472 30.9161 15.883 28.807 17.5533C25.4811 20.1869 22.4628 23.099 19.7054 26.2394C17.4286 28.8318 15.4849 31.6309 13.7531 34.5574C12.9361 35.9389 12.1424 37.3338 11.3265 38.7164C11.1589 38.9991 10.9579 39.2715 10.7293 39.513C10.3885 39.8728 10.0899 39.8296 9.82012 39.4164C9.61476 39.1019 9.56479 38.7503 9.56257 38.3946C9.55924 37.8426 9.67579 37.3133 9.92223 36.8065C12.1202 32.2959 14.7156 27.994 17.8516 23.98C19.2048 22.2489 20.6012 20.5457 22.1453 18.9524C22.8558 18.2184 23.5507 17.4629 24.3289 16.7916C25.5999 15.6979 26.9675 14.7049 28.4018 13.7932C29.5296 13.0767 30.6341 12.3243 31.7909 11.6479C34.9402 9.80891 38.4058 8.77173 42.0813 8.30402C43.9329 8.06863 45.7934 8.03265 47.6695 8.12928C48.3067 8.25057 48.9683 8.30813 49.5788 8.50344ZM56.8632 18.5864C58.2519 17.6232 59.8493 17.0826 61.5011 16.6642C61.7875 16.5922 62.1027 16.5943 62.4036 16.6035C63.0352 16.622 63.4582 17.1905 63.2817 17.7558C63.2639 17.8124 63.245 17.872 63.2095 17.9193C62.7677 18.5073 62.2371 19.012 61.5244 19.3152C61.1936 19.455 60.9927 19.3245 60.935 18.9914C60.8861 18.7046 60.7817 18.5977 60.4754 18.5895C60.3055 18.5844 60.1102 18.5957 59.9659 18.6676C59.3797 18.9626 58.7625 19.2289 58.2408 19.6041C56.4336 20.9013 54.8339 22.4 53.4319 24.0735C53.0123 24.5741 52.6082 25.086 52.192 25.5897C52.0377 25.7768 51.8689 25.9536 51.7091 26.1376C50.9009 27.0668 49.5955 26.7276 49.0393 26.005C48.8029 25.6987 48.7462 25.4037 48.9705 25.0644C49.6243 24.0715 50.2537 23.0651 50.9131 22.0742C51.7745 20.778 52.7559 19.5619 53.8937 18.461C54.2434 18.1228 54.6463 17.8278 55.0482 17.541C55.3734 17.3097 55.7464 17.247 56.1172 17.4721C56.4746 17.688 56.5968 18.0067 56.5513 18.3901C56.539 18.4888 56.529 18.5885 56.5068 18.7941C56.6845 18.6902 56.7788 18.645 56.8632 18.5864ZM84.431 16.7485C85.5244 16.3609 86.6522 16.1173 87.8245 16.068C88.4972 16.0392 89.1644 16.0885 89.7982 16.3209C90.4398 16.5562 90.6518 16.9952 90.4221 17.5975C90.0413 18.5946 89.302 19.3347 88.4017 19.9474C86.8265 21.0185 85.067 21.7206 83.1743 22.1502C82.8391 22.2273 82.5061 22.3086 82.1064 22.4031C82.2308 22.5234 82.2918 22.6067 82.3751 22.6591C83.4496 23.3231 84.3088 24.1886 85.0959 25.1241C85.3201 25.3923 85.5699 25.6442 85.7764 25.9228C86.6256 27.0658 87.8289 27.5859 89.2898 27.7165C91.4322 27.9077 93.5703 28.1328 95.7116 28.3446C95.8537 28.3589 95.9969 28.3713 96.1379 28.396C96.3188 28.4268 96.4654 28.5029 96.5264 28.7485C96.3654 28.7948 96.2122 28.8688 96.0557 28.8781C95.7704 28.8955 95.4818 28.8801 95.1954 28.8709C93.1407 28.804 91.0859 28.7198 89.0312 28.6704C87.628 28.6365 86.226 28.6437 84.8228 28.6416C82.8946 28.6385 80.9653 28.6293 79.0371 28.6499C77.5873 28.6653 76.1375 28.7208 74.6889 28.765C73.2713 28.8092 71.8526 28.8482 70.4372 28.9151C68.8931 28.988 67.3512 29.0765 65.8104 29.1834C64.2374 29.2923 62.6645 29.4105 61.0959 29.5596C58.8291 29.7744 56.5634 29.9913 54.3055 30.2637C52.364 30.497 50.4291 30.7838 48.4998 31.0932C45.5781 31.563 42.7074 32.2343 39.8645 33.0114C38.9942 33.2488 38.1172 33.4647 37.238 33.6723C36.9472 33.7412 36.6419 33.769 36.3411 33.7947C36.0269 33.8203 35.7316 33.772 35.5496 33.4914C35.3675 33.2087 35.4641 32.9528 35.6417 32.7071C35.987 32.2312 36.4399 31.8498 36.9982 31.6185C37.9429 31.2279 38.8954 30.8496 39.8678 30.5279C43.0848 29.465 46.3984 28.7434 49.7553 28.1698C52.5005 27.7 55.2657 27.3793 58.0443 27.1809C60.2678 27.0216 62.498 26.9209 64.7259 26.8335C66.5564 26.7615 68.3903 26.704 70.2219 26.7184C72.3888 26.7348 74.5557 26.8191 76.7214 26.9024C79.0781 26.9928 81.4348 27.1162 83.7904 27.2241C83.8803 27.2282 83.9714 27.2149 84.1423 27.2046C84.0269 27.0884 83.9669 27.0134 83.8915 26.9548C83.5518 26.6886 83.1821 26.4501 82.868 26.1612C81.9 25.2649 80.9575 24.3439 79.9929 23.4434C79.7364 23.2049 79.4533 22.9829 79.1503 22.7989C78.6385 22.4874 78.3377 22.5398 77.9481 22.9654C77.4019 23.5616 76.8724 24.1691 76.3218 24.7612C75.8345 25.2865 75.2584 25.6863 74.5002 25.8282C73.9684 25.9279 73.45 25.8693 72.9394 25.747C72.3943 25.6164 71.9214 25.1364 72.4898 24.498C72.956 23.9748 73.4445 23.4691 73.9196 22.9541C76.6837 19.9608 79.52 17.0312 82.5216 14.2393C84.421 12.4723 86.3791 10.7628 88.4328 9.15104C89.8226 8.05937 91.3012 7.08798 93.0307 6.49384C93.2994 6.40235 93.5736 6.32217 93.85 6.25433C93.9566 6.22863 94.0753 6.2533 94.2441 6.25433C94.1231 6.58429 93.9033 6.75904 93.7035 6.9379C92.983 7.58447 92.2526 8.22076 91.5266 8.86219C89.0578 11.0424 86.7555 13.3656 84.5231 15.7514C84.2533 16.0413 84.0113 16.3527 83.7616 16.658C83.6983 16.7351 83.6572 16.8287 83.6073 16.914C83.927 16.9119 84.1812 16.8358 84.431 16.7485ZM80.1349 21.1573C81.5292 20.8376 82.8635 20.3565 84.1779 19.8312C84.9638 19.5157 85.7253 19.1425 86.4835 18.7714C86.7322 18.6491 86.952 18.4661 87.1551 18.2832C87.2428 18.204 87.326 18.02 87.2839 17.9429C87.2261 17.836 87.0519 17.7301 86.9186 17.7209C86.6711 17.7034 86.4091 17.7301 86.1649 17.7826C85.1658 17.9995 84.2467 18.4096 83.3353 18.829C82.2363 19.3337 81.1651 19.8847 80.2115 20.6084C80.0206 20.7533 79.8163 20.8931 79.7253 21.1079C79.8674 21.2858 80.0073 21.1861 80.1349 21.1573ZM88.9556 23.5739C89.7649 21.1316 91.4178 19.3204 93.7434 17.9995C94.475 17.5842 95.2787 17.356 96.139 17.3231C96.4132 17.3128 96.613 17.2378 96.7962 17.0373C97.2546 16.5367 97.8752 16.3085 98.5678 16.2828C98.9619 16.2684 99.3638 16.3126 99.7556 16.3692C100.15 16.4267 100.468 16.6416 100.691 16.9386C100.993 17.3406 101.396 17.4423 101.896 17.4074C102.623 17.356 103.26 17.1525 103.782 16.6611C104.082 16.3784 104.308 16.4473 104.399 16.842C104.512 17.3323 104.369 17.7754 104.048 18.1711C103.629 18.6882 103.058 19.0192 102.4 19.1744C101.283 19.4396 101.386 19.5136 101.063 20.2866C100.677 21.2117 99.9876 21.9488 99.2117 22.6169C97.4034 24.1753 95.3209 25.2639 92.8787 25.7223C92.1438 25.8601 91.4023 25.9474 90.5697 25.8878C89.1388 25.7788 88.5227 24.8784 88.9556 23.5739ZM97.0315 19.1806C96.926 19.1333 96.7173 19.1939 96.603 19.2669C95.8148 19.7675 95.0278 20.2702 94.263 20.7995C93.3349 21.442 92.569 22.2273 92.0039 23.1689C91.8818 23.3725 91.773 23.5894 91.6975 23.8124C91.6132 24.0612 91.702 24.1845 91.9806 24.2041C92.2648 24.2236 92.5567 24.2277 92.8376 24.1886C94.5871 23.9471 96.0402 23.1617 97.309 22.0577C97.9406 21.5068 98.4602 20.8766 98.7599 20.1119C98.8209 19.9556 98.8387 19.785 98.8887 19.5712C98.1838 19.5116 97.5887 19.4314 97.0315 19.1806ZM64.0532 25.3368C62.6889 25.2361 62.3181 24.3264 62.3081 23.4886C62.3048 23.1453 62.388 22.7814 62.5235 22.4597C62.8021 21.8049 63.0685 21.1305 63.4704 20.5395C64.6904 18.7509 66.2645 17.358 68.6534 17.0445C69.1007 16.9849 69.5769 17.0414 70.0276 17.1113C70.4717 17.1792 70.8003 17.6274 70.7514 18.0334C70.7348 18.166 70.6415 18.3068 70.5438 18.4137C70.455 18.5114 70.3196 18.5772 70.1941 18.6409C68.6223 19.4427 67.4367 20.6248 66.3955 21.9447C66.0869 22.3363 65.8115 22.7536 65.5595 23.1792C65.2554 23.6952 65.4563 24.0026 66.0946 24.0211C66.7451 24.0396 67.3645 23.8926 67.9373 23.6161C70.0587 22.5943 71.5507 21.036 72.4543 18.9986C72.5841 18.7046 72.6274 18.3716 72.6663 18.0519C72.7118 17.6921 72.562 17.3909 72.2467 17.1607C72.1102 17.061 71.9703 16.9541 71.8704 16.8256C71.6162 16.4956 71.7383 16.2088 72.1667 16.1554C73.5033 15.9878 74.4014 16.656 74.6489 17.7209C74.8276 18.4898 74.6478 19.2145 74.3314 19.9196C73.7875 21.1305 72.9083 22.106 71.8393 22.951C70.7248 23.8309 69.4959 24.5279 68.105 24.9678C66.8661 25.3605 65.594 25.4972 64.2907 25.3584C64.2119 25.3512 64.132 25.343 64.0532 25.3368Z" fill="#FE5B50"/>
</svg>
