<svg width="114" height="48" viewBox="0 0 114 48" fill="none" xmlns="http://www.w3.org/2000/svg">
<path fill-rule="evenodd" clip-rule="evenodd" d="M53.4419 25.3131L61.5049 18.9436L54.2724 23.0639L53.4419 25.3131Z" fill="#5E5CE6"/>
<path fill-rule="evenodd" clip-rule="evenodd" d="M53.4419 25.3131L61.5049 18.9436L54.2724 23.0639L53.4419 25.3131Z" fill="#5E5CE6"/>
<path fill-rule="evenodd" clip-rule="evenodd" d="M39.0471 14.293L33.1966 30.0979L27.3551 14.293H23L30.5382 34.7576H35.855L43.3945 14.293H39.0471Z" fill="#5E5CE6"/>
<path fill-rule="evenodd" clip-rule="evenodd" d="M39.0471 14.293L33.1966 30.0979L27.3551 14.293H23L30.5382 34.7576H35.855L43.3945 14.293H39.0471Z" fill="#5E5CE6"/>
<path fill-rule="evenodd" clip-rule="evenodd" d="M90.1896 20.5913C89.6705 19.3594 88.9055 18.2497 87.9426 17.3317C86.9802 16.3883 85.8534 15.634 84.6193 15.1071C83.3491 14.5649 81.984 14.288 80.6056 14.2928H73.7056V34.7845H80.6056C82.0475 34.7845 83.3774 34.5625 84.6193 34.0219C85.8576 33.5035 86.9859 32.7487 87.9426 31.7985C88.9131 30.8656 89.685 29.7415 90.2107 28.4952C90.7364 27.2489 91.0049 25.9069 90.9997 24.5516C91.0139 23.1878 90.7376 21.837 90.1896 20.5913ZM86.395 26.9698C86.0774 27.7111 85.6161 28.3803 85.0384 28.9376C83.8432 30.0909 82.2562 30.7344 80.6056 30.7352H77.8033V18.3679H80.6273C81.455 18.3661 82.2751 18.5288 83.0411 18.8467C83.7781 19.1739 84.4528 19.6294 85.0346 20.1926C85.6142 20.7477 86.0758 21.4169 86.3911 22.1591C86.7294 22.9096 86.8995 23.7266 86.8892 24.5516C86.8971 25.3842 86.7285 26.2088 86.395 26.9698Z" fill="#5E5CE6"/>
<path fill-rule="evenodd" clip-rule="evenodd" d="M90.1896 20.5913C89.6705 19.3594 88.9055 18.2497 87.9426 17.3317C86.9802 16.3883 85.8534 15.634 84.6193 15.1071C83.3491 14.5649 81.984 14.288 80.6056 14.2928H73.7056V34.7845H80.6056C82.0475 34.7845 83.3774 34.5625 84.6193 34.0219C85.8576 33.5035 86.9859 32.7487 87.9426 31.7985C88.9131 30.8656 89.685 29.7415 90.2107 28.4952C90.7364 27.2489 91.0049 25.9069 90.9997 24.5516C91.0139 23.1878 90.7376 21.837 90.1896 20.5913ZM86.395 26.9698C86.0774 27.7111 85.6161 28.3803 85.0384 28.9376C83.8432 30.0909 82.2562 30.7344 80.6056 30.7352H77.8033V18.3679H80.6273C81.455 18.3661 82.2751 18.5288 83.0411 18.8467C83.7781 19.1739 84.4528 19.6294 85.0346 20.1926C85.6142 20.7477 86.0758 21.4169 86.3911 22.1591C86.7294 22.9096 86.8995 23.7266 86.8892 24.5516C86.8971 25.3842 86.7285 26.2088 86.395 26.9698Z" fill="#5E5CE6"/>
<path fill-rule="evenodd" clip-rule="evenodd" d="M66.4995 34.7846H70.5998V14L66.4995 17.0118V34.7846Z" fill="#5E5CE6"/>
<path fill-rule="evenodd" clip-rule="evenodd" d="M66.4995 34.7846H70.5998V14L66.4995 17.0118V34.7846Z" fill="#5E5CE6"/>
<path fill-rule="evenodd" clip-rule="evenodd" d="M59.3282 22.2831C59.5959 22.9992 59.7323 23.7588 59.7307 24.5246C59.731 25.9832 59.2372 27.3978 58.3318 28.5319C57.4264 29.6661 56.1642 30.4512 54.7562 30.756C53.3481 31.0608 51.8794 30.8668 50.5955 30.2066C49.3116 29.5463 48.2903 28.4597 47.7021 27.1284C47.1139 25.797 46.9945 24.3014 47.3639 22.8916C47.7332 21.4818 48.569 20.243 49.7314 19.3824C50.8939 18.5217 52.3127 18.0912 53.7509 18.1628C55.189 18.2344 56.5593 18.8038 57.6328 19.7759L66.4652 14L59.7218 16.1472C57.7308 14.6224 55.2631 13.8777 52.773 14.0501C50.283 14.2226 47.9382 15.3006 46.1706 17.0856C44.4029 18.8707 43.3314 21.2427 43.1534 23.7647C42.9753 26.2867 43.7027 28.789 45.2016 30.8107C46.7004 32.8325 48.8699 34.2376 51.3104 34.7673C53.7509 35.297 56.2981 34.9156 58.483 33.6934C60.6679 32.4711 62.3434 30.4904 63.2009 28.1158C64.0584 25.7412 64.0402 23.1328 63.1496 20.7708L65.5379 17.7228L59.3282 22.2831Z" fill="#5E5CE6"/>
<path fill-rule="evenodd" clip-rule="evenodd" d="M59.3282 22.2831C59.5959 22.9992 59.7323 23.7588 59.7307 24.5246C59.731 25.9832 59.2372 27.3978 58.3318 28.5319C57.4264 29.6661 56.1642 30.4512 54.7562 30.756C53.3481 31.0608 51.8794 30.8668 50.5955 30.2066C49.3116 29.5463 48.2903 28.4597 47.7021 27.1284C47.1139 25.797 46.9945 24.3014 47.3639 22.8916C47.7332 21.4818 48.569 20.243 49.7314 19.3824C50.8939 18.5217 52.3127 18.0912 53.7509 18.1628C55.189 18.2344 56.5593 18.8038 57.6328 19.7759L66.4652 14L59.7218 16.1472C57.7308 14.6224 55.2631 13.8777 52.773 14.0501C50.283 14.2226 47.9382 15.3006 46.1706 17.0856C44.4029 18.8707 43.3314 21.2427 43.1534 23.7647C42.9753 26.2867 43.7027 28.789 45.2016 30.8107C46.7004 32.8325 48.8699 34.2376 51.3104 34.7673C53.7509 35.297 56.2981 34.9156 58.483 33.6934C60.6679 32.4711 62.3434 30.4904 63.2009 28.1158C64.0584 25.7412 64.0402 23.1328 63.1496 20.7708L65.5379 17.7228L59.3282 22.2831Z" fill="#5E5CE6"/>
</svg>
