<svg width="114" height="48" viewBox="0 0 114 48" fill="none" xmlns="http://www.w3.org/2000/svg">
<g id="logos">
<g id="swyft">
<path d="M103 16.1016H99.1389V11.078H93.7135V13.314C93.7135 14.9111 92.7149 16.1307 90.6512 16.1307H85.5253V14.824C85.5253 12.9074 87.0232 12.5009 88.1216 12.5009C89.0868 12.5009 89.5861 12.6171 89.919 12.6751V8.3775C89.3531 8.14519 88.288 8 87.0564 8C82.2301 8 79.5007 10.7005 79.5007 14.6788V16.1597H72.2779L67.9175 25.3358L63.0912 16.1016H52.9725L49.6773 26.3521L45.8162 16.1016H39.3922L35.4978 26.323L32.2026 16.1016H25.9117L32.136 33.3503H38.2605L42.4877 22.1996L46.7815 33.3503H52.8061L57.932 18.9183L64.6556 31.0272L60.1621 40H66.5195L76.4385 20.5445H79.4674V33.3503H85.5253V20.5445H93.1809V28.1234C93.1809 31.5499 95.6773 33.6697 99.8046 33.6697C101.702 33.6697 102.7 33.2922 102.933 33.176V28.8203C102.567 28.8784 101.968 28.9946 101.336 28.9946C100.038 28.9946 99.1389 28.6171 99.1389 27.1942V20.5735H103V16.1016Z" fill="#FF6D0F"/>
<path d="M21.0854 22.6352L18.4559 22.1706C17.5904 22.0254 16.8915 21.6189 16.8915 20.8929C16.8915 19.9927 17.89 19.412 19.055 19.412C20.8857 19.412 21.9175 20.3702 22.0839 21.5318L27.11 20.7187C26.9103 18.7151 24.7135 15.5789 18.9884 15.5789C14.5615 15.5789 11.3994 18.1343 11.3994 21.2995C11.3994 23.7387 13.0637 25.8004 17.2909 26.6134L19.5543 27.078C21.0188 27.3684 21.5181 27.8911 21.5181 28.5009C21.5181 29.2559 20.7525 29.9818 19.2214 29.9818C17.1577 29.9818 16.1925 28.8494 16.1259 27.6588L11 28.4719C11.1664 30.3884 13.1635 33.902 19.3546 33.902C24.6469 33.902 27.2431 31.0272 27.2431 28.0653C27.1766 25.51 25.2127 23.3612 21.0854 22.6352Z" fill="#FF6D0F"/>
</g>
</g>
</svg>
