<svg width="114" height="48" viewBox="0 0 114 48" fill="none" xmlns="http://www.w3.org/2000/svg">
<g clip-path="url(#clip0_1725_8030)">
<path fill-rule="evenodd" clip-rule="evenodd" d="M7.10259 10.1431H21.9622C23.3421 10.1431 24.6133 10.6103 25.61 11.3867L25.6244 11.3976L25.6683 11.4327C25.8999 11.6384 25.9504 11.976 25.7217 12.1952L21.6507 16.2343H17.4438H13.938H11.8346C9.57274 16.2343 7.6277 18.1374 7.6277 20.2944V23.0007V25.7077C7.6277 27.8645 9.57274 29.7676 11.8346 29.7676H13.938H17.4438H21.6507L25.7217 33.8054C25.9504 34.0246 25.8999 34.3622 25.6683 34.5677L25.6244 34.6028L25.61 34.6139C24.6133 35.3901 23.3421 35.8574 21.9622 35.8574H7.10259C3.92149 35.8574 1.31836 33.3757 1.31836 30.3424V23.0004V15.6582C1.31836 12.6249 3.92149 10.1431 7.10259 10.1431ZM21.6514 22.9377V18.4072L24.3288 15.5943C25.2799 14.6877 26.1451 14.8777 26.1451 14.8777C27.5298 14.8777 27.9594 16.1238 27.9594 16.1238L27.9593 23.0004L27.9594 29.7518C27.9594 29.7518 27.5298 30.9978 26.1451 30.9978C26.1451 30.9978 25.2799 31.3124 24.3288 30.4059L21.6514 27.4679V22.9377Z" fill="#34B6EA"/>
<path d="M39.7574 26.772C38.9724 26.772 38.2494 26.5863 37.5885 26.215C36.9276 25.8401 36.4036 25.3326 36.0165 24.6925C35.6331 24.0524 35.4414 23.3521 35.4414 22.5918C35.4414 21.8314 35.6331 21.1312 36.0165 20.4911C36.4036 19.851 36.9276 19.3453 37.5885 18.9739C38.2494 18.5991 38.9724 18.4116 39.7574 18.4116C40.3453 18.4116 40.9241 18.5336 41.4937 18.7777C42.0633 19.0217 42.5417 19.3506 42.9287 19.7643L41.9757 20.5654C41.7018 20.2683 41.3696 20.0367 40.9788 19.8704C40.5881 19.7042 40.181 19.6211 39.7574 19.6211C39.1951 19.6211 38.6803 19.752 38.2129 20.0137C37.7491 20.2754 37.3822 20.6343 37.112 21.0905C36.8417 21.5432 36.7066 22.0436 36.7066 22.5918C36.7066 23.14 36.8417 23.6421 37.112 24.0984C37.3822 24.551 37.7491 24.9082 38.2129 25.1699C38.6803 25.4316 39.1951 25.5625 39.7574 25.5625C40.181 25.5625 40.5881 25.4794 40.9788 25.3131C41.3696 25.1469 41.7018 24.9153 41.9757 24.6182L42.9287 25.4192C42.5417 25.833 42.0633 26.1619 41.4937 26.4059C40.9241 26.65 40.3453 26.772 39.7574 26.772Z" fill="#1F1F2F"/>
<path d="M48.5089 26.772C47.8845 26.772 47.3222 26.6517 46.8219 26.4112C46.3217 26.1708 45.9273 25.8366 45.6388 25.4086C45.354 24.9772 45.2116 24.4909 45.2116 23.9498V18.5177H46.5042V23.7323C46.5042 24.093 46.5901 24.4149 46.7617 24.6978C46.9369 24.9807 47.1761 25.2017 47.4792 25.3609C47.7859 25.52 48.1291 25.5996 48.5089 25.5996C48.8923 25.5996 49.2355 25.52 49.5386 25.3609C49.8453 25.2017 50.0845 24.9807 50.2561 24.6978C50.4314 24.4149 50.519 24.093 50.519 23.7323V18.5177H51.8171V23.9498C51.8171 24.4909 51.6729 24.9772 51.3844 25.4086C51.0996 25.8366 50.7052 26.1708 50.2013 26.4112C49.7011 26.6517 49.1369 26.772 48.5089 26.772Z" fill="#1F1F2F"/>
<path d="M59.4019 22.5122C59.8584 22.6608 60.2144 22.903 60.47 23.239C60.7292 23.5749 60.8589 23.9923 60.8589 24.4909C60.8589 24.9224 60.753 25.3025 60.5412 25.6314C60.3331 25.9603 60.0482 26.215 59.6868 26.3953C59.3253 26.5757 58.9236 26.6659 58.4818 26.6659H54.9271V18.5177H58.071C58.5165 18.5177 58.9218 18.6097 59.2869 18.7936C59.6521 18.9775 59.9405 19.2374 60.1523 19.5734C60.3641 19.9058 60.47 20.2895 60.47 20.7245C60.47 21.1418 60.3769 21.5025 60.1907 21.8067C60.0044 22.1073 59.7415 22.3425 59.4019 22.5122ZM59.2048 20.8359C59.2048 20.6166 59.1463 20.4186 59.0295 20.2418C58.9163 20.0649 58.7629 19.927 58.5694 19.828C58.3759 19.7254 58.1623 19.6742 57.9286 19.6742H56.1923V22.0401H57.9286C58.1586 22.0401 58.3704 21.987 58.5639 21.881C58.7611 21.7749 58.9163 21.6299 59.0295 21.446C59.1463 21.2621 59.2048 21.0587 59.2048 20.8359ZM58.3065 25.5094C58.5402 25.5094 58.7556 25.4581 58.9528 25.3556C59.15 25.253 59.3052 25.1133 59.4184 24.9365C59.5316 24.7561 59.5882 24.5563 59.5882 24.3371C59.5882 24.1178 59.5297 23.918 59.4129 23.7376C59.2997 23.5537 59.1445 23.4087 58.9473 23.3026C58.7538 23.1965 58.5402 23.1435 58.3065 23.1435H56.1923V25.5094H58.3065Z" fill="#1F1F2F"/>
<path d="M64.889 19.6689V22.0136H67.9836V23.17H64.889V25.5147H68.4546V26.6659H63.5964V18.5177H68.4546V19.6689H64.889Z" fill="#1F1F2F"/>
<path d="M75.6999 22.5122C76.1563 22.6608 76.5123 22.903 76.7679 23.239C77.0272 23.5749 77.1568 23.9923 77.1568 24.4909C77.1568 24.9224 77.0509 25.3025 76.8391 25.6314C76.631 25.9603 76.3462 26.215 75.9847 26.3953C75.6232 26.5757 75.2215 26.6659 74.7797 26.6659H71.225V18.5177H74.3689C74.8144 18.5177 75.2197 18.6097 75.5849 18.7936C75.95 18.9775 76.2385 19.2374 76.4503 19.5734C76.662 19.9058 76.7679 20.2895 76.7679 20.7245C76.7679 21.1418 76.6748 21.5025 76.4886 21.8067C76.3024 22.1073 76.0395 22.3425 75.6999 22.5122ZM75.5027 20.8359C75.5027 20.6166 75.4443 20.4186 75.3274 20.2418C75.2142 20.0649 75.0609 19.927 74.8673 19.828C74.6738 19.7254 74.4602 19.6742 74.2265 19.6742H72.4902V22.0401H74.2265C74.4566 22.0401 74.6683 21.987 74.8619 21.881C75.059 21.7749 75.2142 21.6299 75.3274 21.446C75.4443 21.2621 75.5027 21.0587 75.5027 20.8359ZM74.6044 25.5094C74.8381 25.5094 75.0536 25.4581 75.2507 25.3556C75.4479 25.253 75.6031 25.1133 75.7163 24.9365C75.8295 24.7561 75.8861 24.5563 75.8861 24.3371C75.8861 24.1178 75.8277 23.918 75.7108 23.7376C75.5976 23.5537 75.4424 23.4087 75.2453 23.3026C75.0517 23.1965 74.8381 23.1435 74.6044 23.1435H72.4902V25.5094H74.6044Z" fill="#1F1F2F"/>
<path d="M82.9177 23.1753H81.1869V26.6659H79.8943V18.5177H83.5859C84.0278 18.5177 84.4331 18.6238 84.8019 18.836C85.1743 19.0447 85.4664 19.3293 85.6782 19.6901C85.8937 20.0473 86.0014 20.4381 86.0014 20.8624C86.0014 21.2196 85.9265 21.5521 85.7768 21.8597C85.6308 22.1639 85.4244 22.4238 85.1579 22.6395C84.895 22.8517 84.5937 23.002 84.2542 23.0904L86.1876 26.6659H84.7854L82.9177 23.1753ZM81.1869 22.0666H83.4161C83.6644 22.0666 83.889 22.0189 84.0898 21.9234C84.2907 21.8279 84.4477 21.6917 84.5609 21.5149C84.6777 21.3346 84.7361 21.1224 84.7361 20.8783C84.7361 20.6414 84.6777 20.431 84.5609 20.2471C84.444 20.0632 84.2852 19.9217 84.0844 19.8227C83.8835 19.7201 83.6608 19.6689 83.4161 19.6689H81.1869V22.0666Z" fill="#1F1F2F"/>
<path d="M91.9211 26.772C91.2967 26.772 90.7344 26.6517 90.2342 26.4112C89.7339 26.1708 89.3395 25.8366 89.0511 25.4086C88.7663 24.9772 88.6239 24.4909 88.6239 23.9498V18.5177H89.9165V23.7323C89.9165 24.093 90.0023 24.4149 90.1739 24.6978C90.3492 24.9807 90.5883 25.2017 90.8914 25.3609C91.1981 25.52 91.5414 25.5996 91.9211 25.5996C92.3045 25.5996 92.6478 25.52 92.9508 25.3609C93.2576 25.2017 93.4967 24.9807 93.6684 24.6978C93.8436 24.4149 93.9313 24.093 93.9313 23.7323V18.5177H95.2294V23.9498C95.2294 24.4909 95.0851 24.9772 94.7967 25.4086C94.5118 25.8366 94.1175 26.1708 93.6136 26.4112C93.1133 26.6517 92.5492 26.772 91.9211 26.772Z" fill="#1F1F2F"/>
<path d="M100.525 26.772C100.108 26.772 99.7104 26.7101 99.3307 26.5863C98.9509 26.4625 98.6095 26.2998 98.3064 26.0983C98.007 25.8967 97.7569 25.6756 97.5561 25.4352L98.4434 24.5652C98.7209 24.9294 99.0258 25.2071 99.3581 25.398C99.694 25.589 100.072 25.6845 100.492 25.6845C100.78 25.6845 101.034 25.6367 101.253 25.5413C101.472 25.4422 101.642 25.3043 101.763 25.1275C101.883 24.9471 101.943 24.7367 101.943 24.4962C101.943 24.238 101.865 24.0188 101.708 23.8384C101.551 23.6581 101.355 23.5095 101.122 23.3928C100.892 23.2761 100.565 23.1347 100.141 22.9684C99.6812 22.7845 99.3015 22.6059 99.002 22.4327C98.7026 22.2594 98.4489 22.0259 98.2407 21.7324C98.0362 21.4353 97.934 21.064 97.934 20.6184C97.934 20.1728 98.0454 19.7838 98.2681 19.4514C98.4908 19.1154 98.7903 18.859 99.1664 18.6822C99.5461 18.5018 99.966 18.4116 100.426 18.4116C100.948 18.4116 101.421 18.5142 101.845 18.7193C102.268 18.9244 102.641 19.202 102.962 19.5522L102.179 20.3213C101.876 20.0066 101.587 19.7873 101.313 19.6636C101.04 19.5398 100.747 19.4779 100.437 19.4779C100.211 19.4779 100.004 19.5203 99.8181 19.6052C99.6356 19.6865 99.4895 19.805 99.38 19.9606C99.2741 20.1162 99.2211 20.3019 99.2211 20.5176C99.2211 20.7581 99.2923 20.9632 99.4347 21.133C99.5772 21.2992 99.7561 21.4389 99.9715 21.5521C100.187 21.6617 100.477 21.7872 100.842 21.9287C101.357 22.1338 101.77 22.323 102.08 22.4963C102.394 22.6696 102.664 22.9154 102.891 23.2337C103.117 23.5484 103.23 23.9498 103.23 24.4379C103.23 24.9259 103.108 25.3467 102.863 25.7004C102.619 26.0505 102.29 26.3175 101.878 26.5014C101.469 26.6818 101.018 26.772 100.525 26.772Z" fill="#1F1F2F"/>
<path d="M112.552 18.5177V26.6659H111.259V23.1753H107.129V26.6659H105.836V18.5177H107.129V21.9977H111.259V18.5177H112.552Z" fill="#1F1F2F"/>
</g>
<defs>
<clipPath id="clip0_1725_8030">
<rect width="111.363" height="25.7143" fill="white" transform="translate(1.31836 10.1431)"/>
</clipPath>
</defs>
</svg>
