<svg width="127" height="48" viewBox="0 0 127 48" fill="none" xmlns="http://www.w3.org/2000/svg">
<path d="M15.1019 20.3956L18.5707 14.7187C18.6657 14.5628 18.7157 14.3861 18.7156 14.2063C18.7155 14.0265 18.6653 13.8498 18.5702 13.694C18.475 13.5383 18.3382 13.4089 18.1734 13.3189C18.0087 13.2289 17.8217 13.1814 17.6314 13.1812H12.2606C11.7818 13.1808 11.3113 13.2996 10.8965 13.5255L10.8867 14.0521L14.6108 20.147L15.1019 20.3956Z" fill="#359CFC"/>
<path d="M6.70706 20.3948L7.08707 20.6654H14.6249L15.1023 20.3948L10.9047 13.5247C10.4907 13.7502 10.1482 14.0764 9.91278 14.4693L7.28974 18.7541L7.06368 19.1132C6.82797 19.5034 6.70499 19.9454 6.70706 20.3948Z" fill="#086FFF"/>
<path d="M19.0895 27.6091C19.0899 27.1596 18.9642 26.718 18.7251 26.3293L15.1023 20.3965H6.70706C6.70505 20.8452 6.82804 21.2866 7.06368 21.6762L8.25438 23.6299L10.6942 27.6091L11.2555 27.8816H18.5848L19.0895 27.6091Z" fill="#2E3CFE"/>
<path d="M19.0887 27.6082H10.6934L10.7226 28.2011L14.4253 34.2518L14.8969 34.4783C15.3098 34.2547 15.6522 33.9312 15.8888 33.541L18.5372 29.2101L18.732 28.8934C18.9688 28.5022 19.0919 28.0588 19.0887 27.6082Z" fill="#086FFF"/>
<path d="M10.6938 27.6084L9.20684 30.0316L7.22689 33.2853C7.1319 33.4411 7.08194 33.6178 7.08203 33.7977C7.08212 33.9775 7.13226 34.1542 7.22741 34.3099C7.32257 34.4657 7.45939 34.5951 7.62417 34.6851C7.78894 34.7751 7.97587 34.8226 8.1662 34.8228H13.5351C14.0139 34.8231 14.4843 34.7044 14.8992 34.4785L10.6938 27.6084Z" fill="#359CFC"/>
<path fill-rule="evenodd" clip-rule="evenodd" d="M79.6623 25.852C79.9167 26.4286 80.2951 26.9489 80.7737 27.3799C81.763 28.2605 83.0709 28.7509 84.43 28.7509C85.7892 28.7509 87.097 28.2605 88.0864 27.3799C88.5642 26.9485 88.9421 26.4281 89.1961 25.8515C89.4501 25.275 89.5748 24.655 89.5621 24.0306C89.5746 23.4062 89.4499 22.7862 89.1959 22.2097C88.9419 21.6332 88.5641 21.1127 88.0864 20.6812C87.0963 19.802 85.7887 19.3125 84.43 19.3125C83.0713 19.3125 81.7637 19.802 80.7737 20.6812C80.2952 21.1123 79.9169 21.6327 79.6625 22.2092C79.4081 22.7858 79.2832 23.406 79.2958 24.0306C79.2831 24.6552 79.4079 25.2754 79.6623 25.852ZM80.8191 24.0345C80.8191 23.1299 81.1955 22.2615 81.8671 21.6167C82.3741 21.1428 83.0179 20.821 83.7178 20.6915C84.4177 20.5621 85.1425 20.6308 85.8012 20.889C86.4599 21.1472 87.0233 21.5835 87.4206 22.1431C87.818 22.7027 88.0316 23.3606 88.0347 24.0345C88.0375 24.7108 87.8273 25.3727 87.431 25.9359C87.0346 26.4991 86.47 26.9382 85.8088 27.1974C85.1477 27.4566 84.4199 27.5241 83.718 27.3914C83.0161 27.2588 82.3718 26.9318 81.8671 26.4523C81.1955 25.8075 80.8191 24.9391 80.8191 24.0345ZM34.5464 25.6167C34.5957 25.7381 34.6189 25.8676 34.6145 25.9976C34.6187 26.1966 34.5743 26.3939 34.4847 26.5741C34.3951 26.7543 34.2627 26.9126 34.0978 27.0366C33.6914 27.331 33.1871 27.4785 32.6758 27.4525C32.3633 27.4541 32.0519 27.4166 31.7498 27.3412C31.5068 27.2828 31.2717 27.1983 31.0491 27.0893C30.8729 26.9994 30.7073 26.892 30.5551 26.769C30.4946 26.7214 30.4457 26.6772 30.404 26.6395L30.404 26.6395L30.404 26.6395L30.4039 26.6395L30.4039 26.6395L30.4039 26.6395L30.4039 26.6395C30.3687 26.6077 30.3387 26.5806 30.3112 26.56C30.1398 26.4275 30.0087 26.5535 29.9354 26.624L29.9227 26.6362C29.778 26.7749 29.4473 27.0834 29.4473 27.0834L29.4358 27.0943C29.2936 27.2281 29.1724 27.3422 29.5568 27.6693C29.6187 27.7233 29.6835 27.7742 29.7511 27.8216C29.9644 27.9768 30.1889 28.1177 30.4229 28.2435C30.7351 28.4015 31.067 28.5222 31.4108 28.6028C31.8239 28.7042 32.249 28.7547 32.6758 28.7532C33.7588 28.7532 34.6042 28.4954 35.2243 27.9837C35.5245 27.7387 35.763 27.4333 35.9225 27.0901C36.082 26.7468 36.1584 26.3742 36.1461 25.9995C36.1577 25.5855 36.0596 25.1754 35.8609 24.8063C35.6904 24.4937 35.4359 24.229 35.123 24.0387C34.8086 23.8528 34.4739 23.6996 34.1247 23.5817C33.7641 23.4575 33.3971 23.3506 33.0251 23.2614C32.6864 23.1819 32.3531 23.0835 32.0268 22.9665C31.7469 22.8726 31.4942 22.7181 31.2889 22.5154C31.1908 22.4205 31.1138 22.308 31.0623 22.1846C31.0108 22.0612 30.986 21.9293 30.9892 21.7967C30.9917 21.6346 31.0343 21.4752 31.1136 21.3315C31.1929 21.1877 31.3067 21.0634 31.446 20.9686C31.7934 20.7223 32.2212 20.5986 32.6551 20.6191C32.8935 20.6181 33.131 20.6456 33.362 20.7011C33.5494 20.7475 33.731 20.813 33.9035 20.8964C34.0384 20.966 34.1676 21.045 34.29 21.1327C34.3087 21.1474 34.3269 21.1611 34.3441 21.174L34.3441 21.174C34.3725 21.1953 34.3984 21.2148 34.4202 21.2343C34.5629 21.3612 34.6848 21.3319 34.7695 21.2499L35.3586 20.6874L35.3661 20.6805C35.4437 20.6098 35.5958 20.4712 35.3359 20.2539C35.2588 20.1892 35.1781 20.1286 35.094 20.0722C34.9091 19.9483 34.7165 19.8349 34.5174 19.7324C34.2548 19.6042 33.9774 19.5052 33.6906 19.4375C33.3534 19.3535 33.0059 19.3115 32.6572 19.3125C31.6754 19.3125 30.9003 19.5488 30.3257 20.0254C30.0513 20.2424 29.8317 20.5146 29.683 20.822C29.5342 21.1295 29.46 21.4645 29.4659 21.8026C29.4576 22.2174 29.5592 22.6276 29.7614 22.9958C29.9326 23.3074 30.1869 23.5714 30.4993 23.7614C30.8124 23.9486 31.1457 24.1038 31.4935 24.2243C31.8534 24.3509 32.2205 24.4585 32.5931 24.5465C32.9311 24.6284 33.2643 24.7268 33.5914 24.8414C33.8694 24.9369 34.1209 25.0904 34.3272 25.2906C34.4225 25.3844 34.497 25.4953 34.5464 25.6167ZM60.8826 19.5074L57.3234 23.7434C57.3067 23.7629 57.2856 23.7787 57.2617 23.7896C57.2377 23.8004 57.2115 23.806 57.1849 23.806C57.1583 23.806 57.1321 23.8004 57.1081 23.7896C57.0842 23.7787 57.0631 23.7629 57.0464 23.7434L53.4893 19.5074C53.473 19.4874 53.452 19.4713 53.4279 19.4605C53.4039 19.4496 53.3774 19.4443 53.3508 19.4449H52.2987C52.2521 19.4449 52.2075 19.4624 52.1745 19.4935C52.1416 19.5246 52.123 19.5668 52.123 19.6109V28.4657C52.123 28.5097 52.1416 28.5519 52.1745 28.5831C52.2075 28.6142 52.2521 28.6317 52.2987 28.6317H53.4686C53.4918 28.6319 53.5149 28.6278 53.5365 28.6196C53.558 28.6114 53.5776 28.5992 53.5942 28.5838C53.6107 28.5683 53.6238 28.5499 53.6328 28.5297C53.6417 28.5094 53.6464 28.4876 53.6464 28.4657V22.4271C53.6461 22.3924 53.6573 22.3585 53.6784 22.3301C53.6995 22.3018 53.7295 22.2804 53.7642 22.269C53.7989 22.2575 53.8364 22.2567 53.8716 22.2665C53.9069 22.2763 53.9379 22.2962 53.9605 22.3236L57.0402 25.9737C57.0569 25.9932 57.078 26.009 57.1019 26.0199C57.1259 26.0307 57.1521 26.0363 57.1787 26.0363C57.2053 26.0363 57.2315 26.0307 57.2555 26.0199C57.2794 26.009 57.3005 25.9932 57.3172 25.9737L60.4175 22.3158C60.44 22.2885 60.4709 22.2686 60.5059 22.2588C60.5409 22.2489 60.5783 22.2497 60.6129 22.2608C60.6474 22.272 60.6775 22.2931 60.6988 22.3211C60.7201 22.3492 60.7316 22.3828 60.7317 22.4173V28.4579C60.7322 28.5021 60.7512 28.5443 60.7845 28.5754C60.8178 28.6064 60.8627 28.6239 60.9095 28.6239H62.0793C62.1259 28.6239 62.1706 28.6064 62.2036 28.5753C62.2365 28.5441 62.255 28.5019 62.255 28.4579V19.6109C62.255 19.5668 62.2365 19.5246 62.2036 19.4935C62.1706 19.4624 62.1259 19.4449 62.0793 19.4449H61.0211C60.9945 19.4449 60.9683 19.4505 60.9443 19.4613C60.9204 19.4721 60.8993 19.4878 60.8826 19.5074ZM71.9947 28.6265H68.0097C67.9631 28.6265 67.9184 28.609 67.8854 28.5778C67.8525 28.5467 67.834 28.5045 67.834 28.4605V19.6115C67.834 19.5675 67.8525 19.5253 67.8854 19.4941C67.9184 19.463 67.9631 19.4455 68.0097 19.4455H71.7838C72.5304 19.4296 73.2536 19.692 73.797 20.1759C74.0538 20.386 74.2603 20.6452 74.4028 20.9365C74.5454 21.2278 74.6207 21.5444 74.6238 21.8652C74.6281 22.2157 74.5453 22.5622 74.3819 22.8769C74.2723 23.1198 74.1096 23.3381 73.9045 23.5175L73.6544 23.7128C73.6761 23.7236 73.7033 23.7397 73.7371 23.7596C73.7579 23.772 73.7813 23.7857 73.8073 23.8006C73.8755 23.8397 73.9892 23.9276 74.1628 24.0623C74.3302 24.1926 74.4795 24.3422 74.6072 24.5076C74.8111 24.7931 74.9653 25.1076 75.064 25.4392V25.4724C75.1475 25.903 75.1125 26.3467 74.9623 26.7609C74.8121 27.175 74.5517 27.5457 74.2062 27.8375C73.6065 28.3634 72.8126 28.6466 71.9947 28.6265ZM71.788 20.6915H69.5371C69.4901 20.692 69.4452 20.7099 69.412 20.7413C69.3788 20.7726 69.3599 20.8151 69.3594 20.8595V23.0077C69.3599 23.0519 69.3789 23.0942 69.4121 23.1252C69.4454 23.1563 69.4903 23.1737 69.5371 23.1737H71.7838C72.1336 23.1737 72.469 23.0425 72.7163 22.8088C72.9636 22.5751 73.1025 22.2582 73.1025 21.9277C73.1025 21.5973 72.9636 21.2804 72.7163 21.0467C72.469 20.813 72.1336 20.6817 71.7838 20.6817L71.788 20.6915ZM69.3552 27.2066C69.3558 27.2509 69.3747 27.2931 69.408 27.3241C69.4413 27.3552 69.4862 27.3727 69.533 27.3726H71.9926C72.2032 27.3773 72.4125 27.3415 72.608 27.2673C72.8034 27.1931 72.9808 27.0821 73.1294 26.941C73.28 26.8022 73.3987 26.6355 73.478 26.4513C73.5573 26.2672 73.5955 26.0696 73.5903 25.8708C73.5948 25.6712 73.5565 25.4728 73.4777 25.2876C73.3989 25.1024 73.2812 24.9342 73.1317 24.7931C72.9822 24.652 72.804 24.541 72.6079 24.4668C72.4118 24.3926 72.2017 24.3566 71.9905 24.3612H69.533C69.5099 24.3612 69.4871 24.3654 69.4657 24.3738C69.4444 24.3821 69.4251 24.3944 69.4087 24.4098C69.3924 24.4252 69.3795 24.4435 69.3707 24.4636C69.3618 24.4838 69.3573 24.5054 69.3573 24.5272V27.2066H69.3552ZM100.361 28.6258H94.4766C94.4298 28.6258 94.3849 28.6084 94.3516 28.5773C94.3183 28.5462 94.2994 28.504 94.2988 28.4598V19.6108C94.2994 19.5666 94.3183 19.5244 94.3516 19.4933C94.3849 19.4622 94.4298 19.4448 94.4766 19.4448H95.6464C95.6932 19.4448 95.7381 19.4622 95.7714 19.4933C95.8047 19.5244 95.8237 19.5666 95.8242 19.6108V27.1454C95.8242 27.1896 95.8426 27.2321 95.8755 27.2635C95.9084 27.2949 95.9531 27.3129 95.9999 27.3134H100.361C100.408 27.3134 100.453 27.3308 100.486 27.3619C100.519 27.393 100.538 27.4352 100.539 27.4794V28.4559C100.539 28.4782 100.535 28.5003 100.526 28.5211C100.518 28.5418 100.505 28.5606 100.488 28.5765C100.472 28.5923 100.452 28.6049 100.43 28.6134C100.408 28.6218 100.385 28.626 100.361 28.6258ZM104.855 19.6108V28.4598C104.855 28.4817 104.86 28.5033 104.869 28.5235C104.878 28.5436 104.891 28.5619 104.908 28.5772C104.924 28.5925 104.944 28.6045 104.966 28.6125C104.987 28.6205 105.01 28.6243 105.033 28.6238H106.203C106.25 28.6238 106.295 28.6064 106.328 28.5753C106.361 28.5442 106.38 28.502 106.381 28.4578V19.6108C106.38 19.5666 106.361 19.5244 106.328 19.4933C106.295 19.4622 106.25 19.4448 106.203 19.4448H105.033C104.986 19.4448 104.942 19.4622 104.908 19.4933C104.875 19.5244 104.856 19.5666 104.855 19.6108ZM47.6537 19.4448H46.3929C46.3621 19.4448 46.3318 19.4523 46.305 19.4667C46.2782 19.4811 46.2558 19.5018 46.24 19.5268L43.8031 23.5754C43.7876 23.6008 43.7793 23.6297 43.7793 23.6591C43.7793 23.6885 43.7874 23.7174 43.8029 23.7429C43.8183 23.7684 43.8406 23.7897 43.8675 23.8045C43.8944 23.8193 43.9249 23.8271 43.9561 23.8273H45.2148C45.2458 23.827 45.2762 23.819 45.303 23.8043C45.3298 23.7896 45.3521 23.7686 45.3678 23.7433L47.7984 19.6948C47.8138 19.6701 47.8222 19.642 47.8226 19.6133C47.8231 19.5846 47.8157 19.5562 47.8011 19.5311C47.7865 19.5059 47.7653 19.4847 47.7395 19.4696C47.7136 19.4545 47.6841 19.4459 47.6537 19.4448ZM43.0586 28.6243H44.2264C44.2501 28.6243 44.2735 28.6198 44.2954 28.6112C44.3172 28.6025 44.337 28.5898 44.3536 28.5737C44.3701 28.5577 44.3831 28.5388 44.3918 28.5179C44.4005 28.4971 44.4047 28.4748 44.4041 28.4524V25.1109C44.4042 25.0822 44.3964 25.0539 44.3814 25.0289L41.0599 19.5234C41.0442 19.4982 41.0219 19.4772 40.9951 19.4624C40.9683 19.4477 40.9379 19.4398 40.9069 19.4395H39.6461C39.6151 19.4399 39.5846 19.4478 39.5578 19.4627C39.531 19.4775 39.5087 19.4986 39.4931 19.5239C39.4775 19.5493 39.4691 19.5781 39.4688 19.6074C39.4684 19.6368 39.4761 19.6657 39.4911 19.6914L42.8581 25.3062C42.8722 25.3322 42.88 25.3609 42.8808 25.3902V28.4583C42.8808 28.4803 42.8854 28.502 42.8944 28.5223C42.9033 28.5426 42.9165 28.5609 42.933 28.5764C42.9495 28.5918 42.9692 28.604 42.9907 28.6122C43.0123 28.6205 43.0353 28.6246 43.0586 28.6243ZM119.582 28.3605L116.6 24.3687C116.583 24.3469 116.562 24.3292 116.536 24.3169C116.511 24.3047 116.483 24.2983 116.455 24.2983H115.056C115.023 24.2981 114.992 24.3064 114.964 24.3221C114.936 24.3378 114.914 24.3604 114.899 24.3875C114.884 24.4145 114.877 24.4449 114.879 24.4754C114.881 24.5058 114.892 24.5351 114.911 24.56L117.854 28.5519C117.871 28.5739 117.892 28.592 117.917 28.6045C117.943 28.6171 117.971 28.6238 117.999 28.6242H119.446C119.478 28.6232 119.509 28.6141 119.536 28.5977C119.562 28.5813 119.584 28.5583 119.598 28.5312C119.612 28.5041 119.618 28.4739 119.615 28.4438C119.612 28.4137 119.601 28.3849 119.582 28.3605ZM117.639 19.4434H119.101C119.135 19.4435 119.169 19.4532 119.197 19.471C119.226 19.4889 119.249 19.5142 119.262 19.544C119.276 19.5738 119.281 19.6067 119.275 19.6387C119.269 19.6708 119.254 19.7006 119.231 19.7246L114.717 24.2965L113.237 25.8218C113.207 25.8521 113.19 25.8917 113.189 25.9331V28.4524C113.189 28.4967 113.171 28.5391 113.138 28.5705C113.105 28.602 113.06 28.6199 113.014 28.6204H111.844C111.797 28.6199 111.752 28.602 111.719 28.5707C111.685 28.5393 111.667 28.4968 111.666 28.4524V19.6074C111.667 19.563 111.685 19.5206 111.719 19.4892C111.752 19.4578 111.797 19.44 111.844 19.4395H113.016C113.063 19.44 113.108 19.4578 113.141 19.4892C113.174 19.5206 113.193 19.563 113.193 19.6074V23.4821C113.193 23.516 113.203 23.5493 113.223 23.5775C113.242 23.6058 113.271 23.6276 113.304 23.6402C113.337 23.6527 113.374 23.6553 113.409 23.6477C113.444 23.64 113.475 23.6225 113.499 23.5973L117.509 19.4961C117.526 19.4794 117.546 19.4662 117.569 19.4571C117.591 19.448 117.615 19.4434 117.639 19.4434Z" fill="#121928"/>
</svg>
