<svg width="114" height="48" viewBox="0 0 114 48" fill="none" xmlns="http://www.w3.org/2000/svg">
<path d="M53.8959 21.8811H51.0367H49.8446H49.1466H44.9751V25.1853H48.626C47.8708 26.3256 46.5535 27.0836 45.0564 27.0836C42.7178 27.0836 40.8153 25.2368 40.8153 22.9667C40.8153 20.6966 42.7178 18.8497 45.0564 18.8497C46.3438 18.8497 47.4986 19.4106 48.277 20.2926H49.1309H50.4796H53.532C52.3714 16.8162 49.0082 14.3031 45.0406 14.3031C42.1723 14.3031 39.6207 15.6164 37.9876 17.6579V14.7183H33.4879L28.635 21.5134L23.7812 14.7183H19.2815V17.6571C17.6484 15.6164 15.0968 14.3022 12.2285 14.3022C7.29846 14.3022 3.30273 18.181 3.30273 22.9667C3.30273 27.7515 7.29846 31.6311 12.2285 31.6311C15.0968 31.6311 17.6484 30.3178 19.2815 28.2762V31.2151H23.947V22.0461L28.6341 28.4388L33.3212 22.0461V31.2143H37.9868V28.2754C39.6199 30.3162 42.1715 31.6303 45.0398 31.6303C49.2884 31.6303 52.8422 28.7494 53.7442 24.89C53.8884 24.2711 53.9655 23.6274 53.9655 22.9659C53.9655 22.5989 53.9415 22.2368 53.8959 21.8811ZM16.2383 24.3041C16.2341 24.3162 16.23 24.3283 16.2258 24.3403C16.2109 24.3814 16.1943 24.4224 16.1786 24.4627C16.1678 24.4892 16.1579 24.5158 16.1462 24.5415C16.1355 24.5673 16.123 24.593 16.1114 24.6188C16.0932 24.659 16.075 24.6992 16.0559 24.7387C16.0501 24.7499 16.0443 24.7612 16.0385 24.7725C15.6232 25.5941 14.9351 26.262 14.0887 26.6652C14.0771 26.6708 14.0655 26.6764 14.0539 26.6821C14.0133 26.7006 13.9718 26.7183 13.9304 26.736C13.9038 26.7473 13.8773 26.7585 13.8508 26.7698C13.8243 26.7802 13.7969 26.7907 13.7695 26.8012C13.7273 26.8173 13.6858 26.8326 13.6427 26.847C13.6303 26.8511 13.6187 26.8551 13.6062 26.8591C12.7142 27.1552 11.741 27.1552 10.849 26.8591C10.8366 26.8551 10.825 26.8511 10.8125 26.847C10.7703 26.8326 10.728 26.8165 10.6857 26.8004C10.6583 26.7899 10.6318 26.7802 10.6045 26.769C10.5779 26.7585 10.5514 26.7465 10.5241 26.7352C10.4826 26.7175 10.4412 26.6998 10.4014 26.6813C10.3898 26.6756 10.3781 26.67 10.3665 26.6644C9.6362 26.3167 9.02358 25.7719 8.60246 25.1008C8.6008 25.0984 8.59914 25.0952 8.59748 25.0927C8.56432 25.0396 8.53199 24.9857 8.50132 24.931C8.49469 24.9189 8.48889 24.9069 8.48225 24.8956C8.45655 24.8489 8.43168 24.803 8.40847 24.7556C8.08102 24.0941 7.94507 23.3642 8.00227 22.6464L8.00061 22.6448C8.05201 22.0066 8.25262 21.4087 8.57095 20.8841C8.59582 20.8422 8.62235 20.8012 8.64888 20.7601C8.66878 20.7296 8.68867 20.6982 8.7094 20.6684C8.72515 20.6451 8.74338 20.6225 8.75996 20.5992C8.81551 20.5227 8.87271 20.4479 8.93322 20.3755C8.94483 20.361 8.95643 20.3473 8.96887 20.3328C9.00783 20.2878 9.04679 20.2435 9.08741 20.2C9.09073 20.1968 9.09322 20.1936 9.09653 20.1904C9.45466 19.8098 9.8849 19.4951 10.3665 19.2658C10.3781 19.2601 10.3898 19.2545 10.4014 19.2489C10.442 19.2296 10.4834 19.2127 10.5249 19.1949C10.5514 19.1837 10.5779 19.1724 10.6045 19.1612C10.631 19.1507 10.6583 19.1402 10.6857 19.1298C10.728 19.1137 10.7694 19.0984 10.8117 19.0839C10.8241 19.0799 10.8366 19.0759 10.8482 19.0718C11.6175 18.8167 12.4481 18.7813 13.2348 18.9664C13.2382 18.9672 13.2406 18.968 13.244 18.9688C13.3061 18.9833 13.3683 19.0002 13.4297 19.0171C13.4429 19.0211 13.4562 19.0252 13.4694 19.0292C13.5208 19.0445 13.5722 19.0598 13.6236 19.0775C14.3374 19.3205 14.9649 19.743 15.4474 20.2902H15.4499C16.4488 21.424 16.7116 22.9602 16.2383 24.3041Z" fill="#26366A"/>
<path d="M62.7752 22.878C62.0274 22.878 61.3244 22.6986 60.6654 22.3389C60.0063 21.9799 59.4775 21.4834 59.0779 20.8517C58.6783 20.2192 58.4785 19.5191 58.4785 18.7498C58.4785 18.0167 58.6634 17.3311 59.0339 16.6913C59.4037 16.0516 59.9185 15.5398 60.5775 15.1551C61.2366 14.7705 61.9694 14.5781 62.776 14.5781C63.5602 14.5781 64.2823 14.7648 64.9413 15.1382C65.6004 15.5116 66.1201 16.0186 66.5015 16.6575C66.8828 17.2973 67.0735 17.9942 67.0735 18.7482C67.0735 19.4885 66.8812 20.175 66.4965 20.8067C66.1119 21.4392 65.5912 21.9421 64.9363 22.3155C64.2798 22.6913 63.5594 22.878 62.7752 22.878ZM65.5506 18.7393C65.5506 18.2509 65.4288 17.793 65.1842 17.3649C64.9397 16.9376 64.6047 16.5964 64.1795 16.3413C63.7534 16.0862 63.2817 15.959 62.7636 15.959C62.2678 15.959 61.8069 16.0846 61.3808 16.3364C60.9555 16.5883 60.6181 16.9279 60.3703 17.3552C60.1224 17.7825 59.9981 18.2444 59.9981 18.7401C59.9981 19.2286 60.1199 19.6849 60.3645 20.109C60.609 20.5331 60.9431 20.871 61.3692 21.1221C61.7945 21.374 62.2629 21.4995 62.7735 21.4995C63.2916 21.4995 63.7617 21.3716 64.1836 21.1165C64.6056 20.8614 64.9388 20.5234 65.1826 20.1033C65.4288 19.6825 65.5506 19.2278 65.5506 18.7393Z" fill="#26366A"/>
<path d="M74.4185 17.844C74.0339 17.844 73.723 17.9736 73.4859 18.2319C73.2488 18.4902 73.1303 18.8934 73.1303 19.439V22.7158H71.6539V19.3529C71.6539 18.8934 71.5486 18.5264 71.3372 18.2536C71.1266 17.9808 70.8249 17.844 70.4319 17.844C70.0249 17.844 69.7248 17.9841 69.5325 18.2641C69.3402 18.5441 69.244 19.0117 69.244 19.6651V22.715H67.7676V16.7343H69.1221V17.2405H69.1445C69.2929 17.0103 69.5068 16.8349 69.7887 16.7126C70.0697 16.5903 70.3913 16.5291 70.7544 16.5291C71.1242 16.5291 71.4632 16.6096 71.7708 16.7713C72.0775 16.9331 72.3312 17.1649 72.5309 17.4666C72.7755 17.1359 73.0598 16.8977 73.3856 16.7496C73.7114 16.6024 74.0886 16.5283 74.518 16.5283C74.9765 16.5283 75.3951 16.6201 75.7723 16.8027C76.1495 16.9862 76.4512 17.2719 76.6775 17.6598C76.903 18.0476 77.0166 18.5329 77.0166 19.1147V22.7142H75.5402V19.3529C75.5402 18.8717 75.4457 18.4999 75.2575 18.2375C75.0685 17.9752 74.7891 17.844 74.4185 17.844Z" fill="#26366A"/>
<path d="M80.6828 17.8439C80.4979 17.8439 80.3089 17.8906 80.1166 17.9839C79.9242 18.0773 79.7576 18.2446 79.6167 18.4853C79.4757 18.7259 79.4061 19.0478 79.4061 19.4501V22.7157H77.9297V16.7342H79.2959V17.2516C79.5545 17.0078 79.8173 16.8259 80.0842 16.7076C80.3512 16.5893 80.6546 16.5298 80.9945 16.5298C81.3277 16.5298 81.6775 16.6086 82.044 16.7672C82.4104 16.9249 82.7287 17.2017 82.999 17.5968C83.2692 17.992 83.4043 18.5199 83.4043 19.1813V22.7165H81.9279V19.7084C81.9262 18.4659 81.5117 17.8439 80.6828 17.8439Z" fill="#26366A"/>
<path d="M85.7792 14.7402V16.0551H84.3027V14.7402H85.7792ZM85.7792 16.7343V22.7158H84.3027V16.7343H85.7792Z" fill="#26366A"/>
<path d="M89.7871 22.9099C89.1952 22.9099 88.6472 22.7643 88.144 22.4738C87.6408 22.1825 87.2429 21.7914 86.9503 21.2989C86.6576 20.8064 86.5117 20.2729 86.5117 19.6983C86.5117 19.131 86.6576 18.6047 86.9503 18.1194C87.2429 17.6342 87.6383 17.2479 88.1382 16.9606C88.6381 16.6733 89.1835 16.5293 89.7763 16.5293C90.4793 16.5293 91.1126 16.7232 91.6747 17.1111C92.2367 17.499 92.6371 18.0341 92.8734 18.7173H91.2079C91.038 18.43 90.8374 18.2128 90.6086 18.0655C90.379 17.9182 90.1012 17.8442 89.7754 17.8442C89.4347 17.8442 89.128 17.9271 88.8536 18.0921C88.58 18.2578 88.367 18.4824 88.2153 18.7656C88.0636 19.0497 87.9873 19.3675 87.9873 19.7192C87.9873 20.0717 88.0686 20.3895 88.2319 20.6728C88.3944 20.9569 88.6165 21.1814 88.8984 21.3464C89.1794 21.5113 89.4944 21.5942 89.8418 21.5942C90.3972 21.5942 90.8523 21.3174 91.2071 20.7645H92.8725C92.6131 21.4469 92.2118 21.9756 91.668 22.349C91.125 22.7232 90.4983 22.9099 89.7871 22.9099Z" fill="#26366A"/>
<path d="M93.207 19.7305C93.207 19.1631 93.3529 18.6328 93.6456 18.1403C93.9374 17.6487 94.3336 17.2568 94.8335 16.9655C95.3334 16.6741 95.8863 16.5293 96.4931 16.5293C97.1 16.5293 97.6537 16.6733 98.1528 16.9606C98.6527 17.2479 99.0448 17.6358 99.3299 18.1243C99.6151 18.6127 99.7577 19.1414 99.7577 19.7087C99.7577 20.2978 99.6168 20.837 99.3357 21.3254C99.0539 21.8139 98.6643 22.2002 98.1644 22.4842C97.6645 22.7683 97.1074 22.9099 96.4931 22.9099C95.9004 22.9099 95.3533 22.7659 94.8501 22.4786C94.3469 22.1913 93.9473 21.8034 93.6514 21.315C93.3546 20.8265 93.207 20.2986 93.207 19.7305ZM98.2813 19.7417C98.2813 19.4182 98.2034 19.1092 98.0483 18.8147C97.8925 18.5202 97.6778 18.2852 97.4042 18.109C97.1298 17.9327 96.8231 17.845 96.4824 17.845C96.1566 17.845 95.8565 17.9311 95.5829 18.1033C95.3093 18.2755 95.0905 18.5073 94.928 18.7986C94.7647 19.0899 94.6835 19.4005 94.6835 19.7313C94.6835 20.062 94.7614 20.371 94.9164 20.6583C95.0723 20.9456 95.2886 21.1741 95.5663 21.3423C95.844 21.5113 96.1524 21.5958 96.4931 21.5958C96.833 21.5958 97.1389 21.5113 97.4092 21.3423C97.6794 21.1733 97.8925 20.9472 98.0475 20.6631C98.2033 20.3791 98.2813 20.0717 98.2813 19.7417Z" fill="#26366A"/>
<path d="M107.008 17.844C106.624 17.844 106.313 17.9736 106.076 18.2319C105.839 18.4902 105.72 18.8934 105.72 19.439V22.7158H104.244V19.3529C104.244 18.8934 104.138 18.5264 103.927 18.2536C103.716 17.9808 103.415 17.844 103.022 17.844C102.615 17.844 102.315 17.9841 102.122 18.2641C101.93 18.5441 101.834 19.0117 101.834 19.6651V22.715H100.357V16.7343H101.712V17.2405H101.734C101.883 17.0103 102.097 16.8349 102.378 16.7126C102.66 16.5903 102.981 16.5291 103.344 16.5291C103.714 16.5291 104.053 16.6096 104.361 16.7713C104.667 16.9331 104.921 17.1649 105.121 17.4666C105.365 17.1359 105.65 16.8977 105.975 16.7496C106.301 16.6024 106.678 16.5283 107.108 16.5283C107.566 16.5283 107.985 16.6201 108.362 16.8027C108.739 16.9862 109.041 17.2719 109.267 17.6598C109.493 18.0476 109.606 18.5329 109.606 19.1147V22.7142H108.13V19.3529C108.13 18.8717 108.036 18.4999 107.847 18.2375C107.658 17.9752 107.378 17.844 107.008 17.844Z" fill="#26366A"/>
<path d="M65.3846 25.6591L63.0336 31.0878H62.4989L60.1653 25.6591H60.1479V31.0878H59.5195V24.9912H60.487L62.77 30.1817L65.0613 24.9912H66.0288V31.0878H65.4004V25.6591H65.3846Z" fill="#26366A"/>
<path d="M69.1822 30.6768C69.5503 30.6768 69.8877 30.581 70.196 30.3887C70.5044 30.1964 70.7208 29.938 70.8451 29.6145H71.4735C71.2978 30.0926 70.9993 30.4756 70.5782 30.7637C70.1562 31.0518 69.6945 31.1958 69.1905 31.1958C68.7544 31.1958 68.3515 31.0912 67.981 30.8828C67.6104 30.6744 67.3161 30.3887 67.0981 30.0258C66.8801 29.6636 66.7715 29.2677 66.7715 28.8396C66.7715 28.4115 66.8817 28.0156 67.1023 27.6534C67.3228 27.2913 67.6187 27.0024 67.9893 26.7884C68.3598 26.5743 68.7569 26.4673 69.1814 26.4673C69.634 26.4673 70.0452 26.5799 70.4165 26.8053C70.7871 27.0306 71.0797 27.3283 71.2953 27.6993C71.51 28.0703 71.6178 28.4614 71.6178 28.8734L71.6095 29.0464H67.3833C67.4007 29.3377 67.4952 29.6081 67.6676 29.8576C67.8401 30.1078 68.0622 30.3066 68.3341 30.4547C68.6052 30.6027 68.8879 30.6768 69.1822 30.6768ZM69.1822 26.9855C68.8937 26.9855 68.6218 27.0499 68.3673 27.1795C68.1128 27.309 67.8972 27.4901 67.7223 27.7235C67.5466 27.9568 67.4338 28.2248 67.3824 28.5266H71.006C70.9214 28.0711 70.71 27.7001 70.3734 27.4144C70.0377 27.1288 69.6406 26.9855 69.1822 26.9855Z" fill="#26366A"/>
<path d="M76.3903 30.2972C76.1922 30.5829 75.9336 30.8042 75.6136 30.9603C75.2936 31.1164 74.9504 31.1953 74.5823 31.1953C74.1239 31.1953 73.7036 31.0907 73.3223 30.8823C72.9401 30.6738 72.6392 30.3898 72.4187 30.0293C72.1981 29.6695 72.0879 29.2672 72.0879 28.8222C72.0879 28.3828 72.2015 27.9837 72.4278 27.6231C72.6541 27.2634 72.9583 26.9802 73.3405 26.775C73.7227 26.569 74.1363 26.4659 74.584 26.4659C74.9462 26.4659 75.2886 26.544 75.6111 26.7009C75.9336 26.857 76.1939 27.0759 76.392 27.356H76.4086V24.9917H77.003V31.0883H76.4086V30.2972H76.3903ZM76.4409 28.8391C76.4409 28.5099 76.3588 28.2017 76.1947 27.9161C76.0306 27.6304 75.8059 27.4043 75.5199 27.2361C75.2339 27.0687 74.9189 26.985 74.5732 26.985C74.2167 26.985 73.8943 27.0663 73.6058 27.228C73.3173 27.3898 73.091 27.6127 72.9268 27.8951C72.7627 28.1784 72.6806 28.4955 72.6806 28.8463C72.6806 29.1867 72.7627 29.4957 72.9268 29.7734C73.091 30.051 73.3173 30.2707 73.6058 30.4324C73.8943 30.5942 74.2192 30.6754 74.5815 30.6754C74.9205 30.6754 75.2322 30.5934 75.5149 30.4284C75.7976 30.2634 76.0223 30.0413 76.1897 29.7613C76.3572 29.4812 76.4409 29.1738 76.4409 28.8391Z" fill="#26366A"/>
<path d="M78.5006 24.9917V26.0298H77.9062V24.9917H78.5006ZM78.5006 26.5818V31.0883H77.9062V26.5818H78.5006Z" fill="#26366A"/>
<path d="M83.5008 30.2973C83.3085 30.5774 83.054 30.7971 82.7373 30.9564C82.4207 31.1157 82.0725 31.1954 81.6937 31.1954C81.2352 31.1954 80.8149 31.0908 80.4336 30.8824C80.0514 30.6739 79.7505 30.3899 79.53 30.0294C79.3095 29.6697 79.1992 29.2673 79.1992 28.8223C79.1992 28.3829 79.3128 27.9838 79.5391 27.6233C79.7654 27.2635 80.0697 26.9803 80.4518 26.7751C80.834 26.5691 81.2477 26.4661 81.6953 26.4661C82.08 26.4661 82.4306 26.5457 82.7473 26.7051C83.064 26.8644 83.316 27.0865 83.5025 27.3722H83.5191V26.5811H84.1135V31.0876H83.5191V30.2973H83.5008ZM83.5514 28.8392C83.5514 28.5101 83.4693 28.2018 83.3052 27.9162C83.1411 27.6305 82.9164 27.4044 82.6304 27.2362C82.3444 27.0688 82.0294 26.9851 81.6837 26.9851C81.333 26.9851 81.0131 27.0664 80.7246 27.2281C80.4361 27.3899 80.2081 27.6128 80.0415 27.8952C79.8748 28.1785 79.7911 28.4956 79.7911 28.8464C79.7911 29.1868 79.8732 29.4974 80.0373 29.7775C80.2015 30.0575 80.4294 30.2772 80.7204 30.4366C81.0114 30.5959 81.3355 30.6756 81.692 30.6756C82.031 30.6756 82.3427 30.5935 82.6254 30.4285C82.9081 30.2635 83.1328 30.0414 83.3002 29.7614C83.4677 29.4814 83.5514 29.174 83.5514 28.8392Z" fill="#26366A"/>
<path d="M91.4531 28.2869C91.4075 28.8252 91.2326 29.3169 90.9267 29.7619C90.6216 30.2069 90.2221 30.557 89.7305 30.8121C89.238 31.0672 88.7067 31.1951 88.1346 31.1951C87.5635 31.1951 87.0172 31.0575 86.4966 30.7831C85.976 30.5087 85.5573 30.1297 85.2406 29.6461C84.924 29.1632 84.7656 28.6273 84.7656 28.0398C84.7656 27.4685 84.9165 26.9414 85.2199 26.4577C85.5225 25.9749 85.9312 25.5919 86.446 25.3086C86.9608 25.0262 87.5212 24.8845 88.1264 24.8845C88.579 24.8845 89.0092 24.9666 89.4163 25.1316C89.8241 25.2965 90.1748 25.5122 90.4683 25.7786C90.7626 26.0449 90.9715 26.3234 91.0966 26.6147H90.3663C90.1516 26.2574 89.8382 25.9725 89.4287 25.7576C89.0184 25.5436 88.5873 25.4366 88.1346 25.4366C87.648 25.4366 87.1937 25.5532 86.7726 25.7866C86.3515 26.02 86.0157 26.3362 85.767 26.7338C85.5184 27.1321 85.3932 27.5699 85.3932 28.0479C85.3932 28.5259 85.5192 28.9637 85.7712 29.362C86.0232 29.7603 86.3606 30.0734 86.7851 30.3011C87.2095 30.5288 87.6679 30.6431 88.1595 30.6431C88.5384 30.6431 88.9048 30.5667 89.2588 30.4121C89.6119 30.2584 89.9162 30.0444 90.1715 29.7692C90.426 29.4948 90.6017 29.1841 90.6979 28.8381H87.1929V28.2861H91.4531V28.2869Z" fill="#26366A"/>
<path d="M92.7596 26.5819V27.2329H92.777C92.8847 26.9915 93.0389 26.8088 93.2396 26.6849C93.4402 26.5609 93.722 26.4885 94.0843 26.4668V27.0768H94.076C93.6574 27.1154 93.3332 27.257 93.1044 27.5009C92.8756 27.7455 92.7604 28.0545 92.7604 28.4279V31.0891H92.166V26.5827H92.7596V26.5819Z" fill="#26366A"/>
<path d="M94.252 28.8636C94.252 28.4298 94.3622 28.0291 94.5827 27.6605C94.8032 27.2928 95.0992 27.0014 95.4697 26.7874C95.8403 26.5733 96.2407 26.4663 96.6709 26.4663C97.112 26.4663 97.5198 26.5749 97.8929 26.7914C98.2659 27.0087 98.5619 27.2984 98.7799 27.6605C98.9979 28.0226 99.1065 28.4129 99.1065 28.8306C99.1065 29.2587 98.9946 29.6546 98.7716 30.0167C98.5478 30.3789 98.2493 30.6661 97.8763 30.8778C97.5032 31.0894 97.1012 31.1948 96.6709 31.1948C96.2407 31.1948 95.8403 31.0878 95.4697 30.8738C95.0992 30.6597 94.8032 30.374 94.5827 30.0167C94.3622 29.6602 94.252 29.2756 94.252 28.8636ZM98.5121 28.8064C98.5121 28.4821 98.43 28.182 98.2659 27.9043C98.1018 27.6267 97.8779 27.4046 97.5953 27.2372C97.3126 27.0698 97.0042 26.9862 96.6701 26.9862C96.3418 26.9862 96.0376 27.0715 95.7574 27.2413C95.4772 27.4119 95.255 27.6396 95.0909 27.9253C94.9267 28.2109 94.8447 28.5216 94.8447 28.8563C94.8447 29.1806 94.9267 29.4824 95.0909 29.7624C95.255 30.0425 95.478 30.2646 95.7615 30.4296C96.0442 30.5945 96.3501 30.6766 96.6784 30.6766C97.0183 30.6766 97.3275 30.5929 97.6077 30.4255C97.8879 30.2582 98.1084 30.0312 98.2701 29.7455C98.4317 29.4599 98.5121 29.1468 98.5121 28.8064Z" fill="#26366A"/>
<path d="M103.257 30.3874C103.127 30.6457 102.933 30.8445 102.676 30.9845C102.418 31.1245 102.12 31.1945 101.781 31.1945C101.424 31.1945 101.094 31.1269 100.792 30.9925C100.489 30.8581 100.243 30.6393 100.054 30.3375C99.864 30.0357 99.7695 29.643 99.7695 29.1594V26.5811H100.364V29.0934C100.364 30.1476 100.836 30.6755 101.781 30.6755C102.053 30.6755 102.299 30.6135 102.52 30.4904C102.741 30.3665 102.916 30.183 103.047 29.9383C103.177 29.6937 103.242 29.3984 103.242 29.0524V26.5811H103.837V31.0875H103.276V30.3874H103.257Z" fill="#26366A"/>
<path d="M105.328 26.5819V27.3729H105.345C105.56 27.076 105.822 26.8515 106.13 26.6978C106.438 26.5441 106.779 26.4668 107.153 26.4668C107.616 26.4668 108.038 26.5714 108.417 26.7798C108.796 26.9883 109.096 27.2739 109.317 27.6369C109.537 27.999 109.647 28.3949 109.647 28.823C109.647 29.2624 109.538 29.6623 109.321 30.0221C109.103 30.3818 108.804 30.6674 108.426 30.8791C108.047 31.0907 107.622 31.1961 107.152 31.1961C106.784 31.1961 106.442 31.1189 106.125 30.9652C105.808 30.8115 105.548 30.5894 105.344 30.2981H105.327V32.6704H104.732V26.5827H105.328V26.5819ZM107.144 26.985C106.816 26.985 106.509 27.0671 106.223 27.2321C105.937 27.3971 105.711 27.6224 105.544 27.9081C105.377 28.1937 105.294 28.5044 105.294 28.8391C105.294 29.1691 105.376 29.4748 105.54 29.7581C105.704 30.0414 105.927 30.2651 106.211 30.4292C106.493 30.5942 106.807 30.6763 107.152 30.6763C107.515 30.6763 107.839 30.595 108.128 30.4333C108.416 30.2715 108.643 30.0518 108.807 29.7742C108.971 29.4966 109.053 29.1884 109.053 28.8472C109.053 28.5011 108.973 28.1865 108.811 27.904C108.65 27.6216 108.423 27.3971 108.132 27.2329C107.841 27.0679 107.512 26.985 107.144 26.985Z" fill="#26366A"/>
</svg>
