<svg width="114" height="48" viewBox="0 0 114 48" fill="none" xmlns="http://www.w3.org/2000/svg">
<path d="M27.6513 16.0919C26.8784 15.9596 26.0956 15.8822 25.3098 15.8604C24.524 15.8822 23.7411 15.9596 22.9683 16.0919L19.7207 16.557L25.3051 22.3445L30.8872 16.557L27.6513 16.0919Z" fill="#184EFF"/>
<path d="M48.5349 12.0984L48.3967 12.0791L41.4098 15.886L35.1908 16.3383L31.9971 17.7659V19.3864L33.2802 20.2716L29.4917 22.7174C29.1359 22.9749 28.8879 23.3367 28.7893 23.742L26.5859 34.4403L26.8482 34.8283L27.3703 34.7126C27.4995 34.682 27.6208 34.6284 27.7272 34.5548C27.8337 34.4812 27.9233 34.3892 27.9908 34.2839L36.0431 21.8793C36.1524 21.7107 36.221 21.5227 36.2445 21.3279C36.268 21.1331 36.2457 20.9359 36.1792 20.7496C36.1127 20.5633 36.0035 20.3922 35.8589 20.2476C35.7143 20.1031 35.5376 19.9885 35.3407 19.9115L34.7577 19.6843L35.8254 18.9127C36.3308 18.5468 36.9339 18.3115 37.5721 18.231L41.6627 17.7101C42.5016 17.608 43.2815 17.259 43.8847 16.7155L48.5185 12.4628C48.5725 12.416 48.6045 12.3517 48.6075 12.2836C48.6106 12.2156 48.5845 12.1491 48.5349 12.0984Z" fill="#184EFF"/>
<path d="M21.1152 22.7174L17.3267 20.2716L18.6098 19.3864V17.7659L15.416 16.3383L9.19707 15.886L2.21012 12.0791L2.07198 12.0984C2.02289 12.1494 1.99719 12.2157 2.00024 12.2836C2.0033 12.3515 2.03487 12.4157 2.08837 12.4628L6.72214 16.7155C7.32215 17.2648 8.10144 17.62 8.94185 17.7273L13.0324 18.2374C13.6707 18.3179 14.2738 18.5533 14.7791 18.9191L15.8469 19.6908L15.2638 19.918C15.0669 19.9949 14.8903 20.1095 14.7457 20.2541C14.6011 20.3986 14.4918 20.5698 14.4253 20.7561C14.3588 20.9424 14.3366 21.1395 14.36 21.3344C14.3835 21.5292 14.4521 21.7172 14.5614 21.8857L22.616 34.2924C22.6836 34.3977 22.7731 34.4898 22.8796 34.5634C22.9861 34.637 23.1074 34.6906 23.2365 34.7211L23.7587 34.8369L24.0724 34.3953L21.8199 23.7506C21.7227 23.3419 21.4736 22.9767 21.1152 22.7174Z" fill="#184EFF"/>
<path d="M48.1665 12.0366L43.6521 14.3023C42.5833 14.8388 41.3845 15.1211 40.1657 15.1233H36.1243C34.9297 15.123 33.7456 15.3273 32.6331 15.7256L25.8007 18.1757C25.4811 18.2914 25.1253 18.2914 24.8056 18.1757L17.9732 15.7256C16.8607 15.3273 15.6766 15.123 14.4821 15.1233H10.4524C9.22954 15.1229 8.02649 14.8405 6.95423 14.3023L2.43988 12.0366C2.3808 12.0044 2.31092 11.9929 2.24328 12.0043C2.17564 12.0158 2.11486 12.0493 2.07227 12.0988L7.57238 15.8028C8.07371 16.1432 8.67077 16.3454 9.29336 16.3858L14.1051 16.7031C14.8154 16.7502 15.5033 16.9515 16.1117 17.2904L17.0834 17.8327C17.2207 17.9091 17.3323 18.0187 17.4059 18.1494C17.4795 18.2802 17.5123 18.4269 17.5007 18.5736C17.4891 18.7203 17.4335 18.8612 17.34 18.9809C17.2466 19.1005 17.1189 19.1942 16.971 19.2517L16.6315 19.3846L15.8471 19.6911L20.6448 23.1572C20.9997 23.4154 21.2476 23.7769 21.3473 24.1818L23.759 34.8287C24.7732 35.0581 25.8331 35.0581 26.8474 34.8287L29.2567 24.1818C29.3564 23.7769 29.6043 23.4154 29.9592 23.1572L34.7569 19.6911L33.9725 19.3846L33.633 19.2517C33.4851 19.1942 33.3574 19.1005 33.264 18.9809C33.1705 18.8612 33.1149 18.7203 33.1033 18.5736C33.0917 18.4269 33.1245 18.2802 33.1981 18.1494C33.2717 18.0187 33.3833 17.9091 33.5206 17.8327L34.4923 17.2904C35.1007 16.9515 35.7886 16.7502 36.4989 16.7031L41.3106 16.3858C41.9332 16.3454 42.5303 16.1432 43.0316 15.8028L48.5341 12.0988C48.4915 12.0493 48.4307 12.0158 48.3631 12.0043C48.2954 11.9929 48.2255 12.0044 48.1665 12.0366Z" fill="#8BA6FF"/>
<path d="M82.9356 25.2385C82.9356 22.6898 81.1069 21.0586 78.2527 21.0586H72.1719V32.5586H74.8365V29.4183H77.0819L79.7793 32.5586H83.1581L80.1422 29.129C81.889 28.5545 82.9356 27.1419 82.9356 25.2385ZM74.8365 23.4272H78.1848C79.414 23.4272 80.3483 24.0938 80.3483 25.2428C80.3483 26.3917 79.4258 27.0497 78.1848 27.0497H74.8365V23.4272Z" fill="#090F1C"/>
<path d="M47.1903 21.0586L42.0391 32.5586H44.9636L45.9961 30.1214H51.2645L52.3158 32.5586H55.3339L50.1593 21.0586H47.1903ZM46.9093 27.9757L48.6069 24.0038L50.3138 27.9865L46.9093 27.9757Z" fill="#090F1C"/>
<path d="M65.8004 27.5985C65.8004 29.2469 64.7303 30.4987 62.8922 30.4987C61.094 30.4987 60.0052 29.264 60.0052 27.5985V21.0586H57.3242V27.6328C57.3242 30.8245 59.5369 32.8673 62.8922 32.8673C66.2874 32.8673 68.4626 30.8245 68.4626 27.6328V21.0586H65.8004V27.5985Z" fill="#090F1C"/>
<path d="M91.9904 20.8013C87.9584 20.8013 85.3711 23.5471 85.3711 26.8246C85.3711 30.102 87.9584 32.7921 91.9904 32.7921C96.0224 32.7921 98.6098 30.1042 98.6098 26.8246C98.6098 23.545 96.0037 20.8013 91.9904 20.8013ZM91.9904 30.4128C89.553 30.4128 88.0895 28.7302 88.0895 26.8096C88.0895 24.8504 89.5717 23.2042 91.9904 23.2042C94.4092 23.2042 95.8937 24.8611 95.8937 26.8096C95.8937 28.758 94.4092 30.4128 91.9904 30.4128Z" fill="#090F1C"/>
<path d="M107.425 26.6703L111.738 21.0586H108.661L105.905 24.6447L103.243 21.0586H99.885L104.292 26.7239L99.7539 32.5586H103.018L105.83 28.7667L108.642 32.5586H112L107.425 26.6703Z" fill="#090F1C"/>
</svg>
