<svg width="114" height="48" viewBox="0 0 114 48" fill="none" xmlns="http://www.w3.org/2000/svg">
<g clip-path="url(#clip0_1725_145)">
<path fill-rule="evenodd" clip-rule="evenodd" d="M91.682 33.7336L87.9682 27.7519L84.3604 33.7594L76.243 33.7851L88.0212 13.8294L99.7994 33.7336H91.682ZM72.0781 33.8109V21.3578L72.9535 20.0429H72.0781L66.4276 29.634L60.6978 20.0429H59.9815L60.6978 21.3578V33.8109H57.8327L53.9331 27.159V13.4683H62.926L66.4276 19.3469L70.0089 13.4683H78.8426V25.9988V27.159L74.8104 33.8109H72.0781ZM38.8123 27.159H43.5873L44.3832 28.2419H45.0995L40.9612 21.3578H49.1582L56.639 33.8109H36.1862L31.9683 27.159V13.4683H52.6598V20.0429H38.8123V27.159ZM30.7746 27.159L34.8332 33.8109H18.5745L14.3008 26.8381V13.4683H30.7746V20.0429H21.2246V27.159H30.7746Z" fill="#32393F"/>
</g>
<defs>
<clipPath id="clip0_1725_145">
<rect width="85.75" height="21.9429" fill="white" transform="translate(14.3008 13.0286)"/>
</clipPath>
</defs>
</svg>
