<svg width="114" height="48" viewBox="0 0 114 48" fill="none" xmlns="http://www.w3.org/2000/svg">
<g id="logos">
<g id="Vector">
<path d="M65.4555 17.4678H52.6113V19.434H62.4207L52.6113 26.9621V28.9284H65.4555V26.9621H55.6459L65.4555 19.434V17.4678Z" fill="#1D2B2D"/>
<path d="M71.7038 24.4643L73.8849 19.8484L76.0822 24.4643H71.7038ZM78.2072 28.9283H80.8864L75.2135 17.4678H72.552L66.9342 28.9283H69.5946L70.7747 26.4305H77.0181L78.2072 28.9283Z" fill="#1D2B2D"/>
<path d="M93.7491 24.553C93.6017 25.0021 93.3552 25.4034 93.0098 25.7578C92.6654 26.1121 92.1995 26.3926 91.6152 26.5987C91.0298 26.806 90.2933 26.9089 89.4065 26.9089H85.0816V19.4868H89.4065C90.2933 19.4868 91.0298 19.5875 91.6152 19.7883C92.1995 19.9892 92.6654 20.2609 93.0098 20.6031C93.3552 20.9457 93.6017 21.3353 93.7491 21.7721C93.8976 22.2092 93.9714 22.6694 93.9714 23.1535C93.9714 23.6381 93.8976 24.1043 93.7491 24.553ZM96.124 20.9927C95.8962 20.3078 95.5145 19.7025 94.9786 19.1773C94.4427 18.6515 93.7248 18.2355 92.825 17.9282C91.926 17.6212 90.8049 17.4678 89.4615 17.4678H82.6235V28.9283H89.4615C90.7433 28.9283 91.8298 28.7718 92.7233 28.4591C93.6166 28.1462 94.3373 27.7209 94.8862 27.1834C95.4341 26.6462 95.8346 26.0292 96.0867 25.3323C96.3397 24.6357 96.4657 23.9096 96.4657 23.1535C96.4657 22.3979 96.3519 21.6776 96.124 20.9927Z" fill="#1D2B2D"/>
</g>
<path id="path50" d="M27.5406 12.0836C21.1261 12.3725 16 17.4457 16 23.6404V24.1193H21.5328C18.1182 26.2278 16 29.8627 16 33.8336V34.3125H30.7579C37.4397 34.3125 42.8759 29.1223 42.8759 22.7427V22.2638H37.3431C40.7577 20.1555 42.8759 16.5205 42.8759 12.5496V12.0836H27.5406ZM28.3663 14.9407H39.5239C39.3694 18.2321 37.2627 21.1593 34.0685 22.4699L32.2499 23.2161H39.5239C39.3105 27.7869 35.3487 31.4424 30.5095 31.4424H19.352C19.5063 28.1511 21.613 25.2238 24.8075 23.913L26.6258 23.1671H19.352C19.5656 18.5962 23.5273 14.9407 28.3663 14.9407Z" fill="url(#paint0_linear_1725_7978)"/>
</g>
<defs>
<linearGradient id="paint0_linear_1725_7978" x1="29.4379" y1="34.0145" x2="29.4379" y2="12.0502" gradientUnits="userSpaceOnUse">
<stop stop-color="#D3D655"/>
<stop offset="1" stop-color="#6BC4E8"/>
</linearGradient>
</defs>
</svg>
