<svg width="114" height="50" viewBox="0 0 114 50" fill="none" xmlns="http://www.w3.org/2000/svg">
<g id="logos">
<path id="Vector" d="M66.3156 33.4124H65.9218L65.4922 34.3281H65.8001C65.8604 34.3278 65.9193 34.3104 65.97 34.2778C66.0208 34.2452 66.0612 34.1988 66.0865 34.1441L66.234 33.8284L66.3772 33.5169C66.3828 33.5061 66.3855 33.4941 66.3852 33.482C66.3849 33.4699 66.3815 33.458 66.3753 33.4476C66.3691 33.4371 66.3604 33.4284 66.35 33.4223C66.3396 33.4161 66.3277 33.4127 66.3156 33.4124Z" fill="black"/>
<path id="Vector_2" d="M46.0739 25.3557L47.9498 21.3367C47.9816 21.2697 47.9958 21.1956 47.9911 21.1216C47.9865 21.0475 47.9631 20.9759 47.9232 20.9133C47.8832 20.8508 47.8281 20.7994 47.7628 20.764C47.6976 20.7286 47.6245 20.7104 47.5503 20.711H44.9118L42.418 26.0559H45.7474L46.0739 25.3557Z" fill="black"/>
<path id="Vector_3" d="M51.4137 16.6622C51.4494 16.6677 51.4858 16.666 51.5208 16.6573C51.5559 16.6486 51.5888 16.6329 51.6178 16.6113L51.6256 16.6034L51.6178 16.5956C51.529 16.5089 51.4559 16.466 51.3972 16.4717C51.3185 16.4767 51.2784 16.5068 51.2755 16.5633C51.2726 16.6199 51.3249 16.6486 51.4137 16.6622Z" fill="black"/>
<path id="Vector_4" d="M68.5471 33.4121H68.1533L67.8633 34.0336H68.1704C68.2308 34.0335 68.2898 34.0161 68.3406 33.9835C68.3913 33.9509 68.4317 33.9044 68.4568 33.8496L68.6043 33.5338L68.6122 33.5167C68.6179 33.5056 68.6207 33.4933 68.6202 33.4809C68.6197 33.4685 68.616 33.4564 68.6094 33.4458C68.6028 33.4353 68.5936 33.4266 68.5827 33.4207C68.5718 33.4148 68.5595 33.4119 68.5471 33.4121Z" fill="black"/>
<path id="Vector_5" d="M70.3315 33.5239L70.0244 34.1855L69.7129 34.8543H70.0236C70.0623 34.8542 70.1001 34.8431 70.1327 34.8223C70.1653 34.8015 70.1913 34.7719 70.2076 34.7368L70.5148 34.076L70.8263 33.4072H70.5155C70.4769 33.407 70.439 33.4179 70.4064 33.4386C70.3738 33.4593 70.3478 33.4889 70.3315 33.5239Z" fill="black"/>
<path id="Vector_6" d="M47.9003 0L32 34.099L66.099 50L82 15.901L47.9003 0ZM48.9249 2.81318L79.1847 16.9242H55.7606L57.2585 13.71H43.8434L48.9249 2.81318ZM62.4144 34.8494H62.8089L63.6359 33.0794H64.3068L63.3237 35.1844H62.2061C61.7364 35.1844 61.6068 34.898 61.7765 34.5257L62.4545 33.0794H63.1261L62.9693 33.4145L62.3486 34.747C62.3256 34.7935 62.3264 34.8494 62.4144 34.8494ZM61.9225 33.4073H61.3633C61.3246 33.4072 61.2867 33.4181 61.254 33.4388C61.2212 33.4594 61.1951 33.489 61.1786 33.524L61.0848 33.7238L61.4507 34.1534C61.492 34.2023 61.5185 34.2619 61.5273 34.3252C61.536 34.3886 61.5266 34.4532 61.5001 34.5114L61.3146 34.9081C61.2769 34.9892 61.2167 35.0578 61.1412 35.1059C61.0657 35.154 60.9781 35.1795 60.8886 35.1794H59.7316L59.8862 34.8494H60.5421C60.5808 34.8493 60.6188 34.8383 60.6515 34.8175C60.6842 34.7967 60.7103 34.767 60.7268 34.7319L60.8743 34.4147L60.5084 33.9851C60.467 33.9363 60.4405 33.8767 60.4318 33.8132C60.4232 33.7498 60.4329 33.6852 60.4597 33.6271L60.5908 33.3457C60.6285 33.2646 60.6887 33.196 60.7642 33.1479C60.8397 33.0998 60.9273 33.0743 61.0168 33.0744H62.0765L61.9225 33.4073ZM55.5394 34.8544C55.5996 34.8541 55.6586 34.8366 55.7093 34.804C55.7601 34.7714 55.8004 34.7251 55.8258 34.6704L56.4157 33.4116H55.4133L55.5694 33.0765H57.2427L56.4802 34.7104C56.4141 34.8522 56.3089 34.9722 56.177 35.0563C56.0451 35.1404 55.892 35.1851 55.7355 35.1852H54.5864L54.9837 34.3374H55.5451L55.3038 34.8544H55.5394ZM57.6201 33.0794H58.2917L57.3086 35.1844H56.637L57.6201 33.0794ZM59.065 33.4123H58.5129L58.6697 33.0765H60.3466L60.1898 33.4123H59.7373L58.9103 35.1852H58.2387L59.065 33.4123ZM56.4387 31.2951H48.8318L51.1889 26.2337H54.8405L53.4014 29.3218H54.9637C55.3247 29.3217 55.6781 29.2185 55.9825 29.0245C56.2869 28.8304 56.5296 28.5535 56.6821 28.2263L60.1848 20.7083H54.0658L55.0002 18.7035H65.4374L60.885 28.4633C60.4903 29.3096 59.8622 30.0256 59.0746 30.5273C58.2869 31.0289 57.3725 31.2953 56.4387 31.2951ZM49.4526 34.8544C49.5129 34.8541 49.5719 34.8366 49.6226 34.804C49.6733 34.7714 49.7137 34.7251 49.739 34.6704L50.3297 33.4116H49.3273L49.4841 33.0765H51.1574L50.3956 34.7104C50.3295 34.8522 50.2243 34.9722 50.0924 35.0563C49.9605 35.1404 49.8074 35.1851 49.6509 35.1852H48.4996L48.8977 34.3374H49.4583L49.2178 34.8544H49.4526ZM51.5333 33.0794H52.2049L51.2218 35.1844H50.5502L51.5333 33.0794ZM51.9049 34.5264L52.5837 33.0794H53.2546L53.0985 33.4145L52.4777 34.7441C52.4548 34.7928 52.4562 34.8494 52.545 34.8494H52.9388L53.7665 33.0794H54.4381L53.4536 35.1844H52.3345C51.8648 35.1852 51.7352 34.898 51.9049 34.5264ZM49.9717 16.2204C49.9656 16.2195 49.9594 16.2204 49.9537 16.2228C49.9481 16.2251 49.9431 16.229 49.9395 16.234C49.7675 16.4037 49.6254 16.6012 49.5192 16.8182C49.51 16.8318 49.4965 16.8418 49.4809 16.8466C49.4653 16.8515 49.4485 16.8508 49.4333 16.8447C49.4139 16.8447 49.3846 16.8232 49.3817 16.7617C49.3738 16.5218 49.3738 16.2927 49.3896 15.8309C49.4003 15.5394 49.4275 15.2946 49.449 15.1148V15.1077C49.4506 15.0939 49.4542 15.0803 49.4598 15.0676C49.4666 15.0575 49.4748 15.0483 49.4841 15.0404L49.7182 14.8442C49.7182 14.8442 49.7261 14.8385 49.7318 14.8442C49.7376 14.8499 49.7318 14.8521 49.7318 14.8607C49.7154 14.9631 49.6674 15.3433 49.6402 15.8359C49.6402 15.8545 49.6266 16.1939 49.6266 16.3206C49.6266 16.3263 49.6266 16.3392 49.6352 16.3371C49.6438 16.3349 49.6459 16.3235 49.6509 16.3177C49.731 16.1997 49.8275 16.0936 49.9373 16.0027C49.9733 15.9665 50.0211 15.9447 50.0719 15.9411C50.1084 15.9397 50.144 15.9523 50.1715 15.9762C50.1855 15.9954 50.1956 16.0172 50.2011 16.0403C50.2066 16.0634 50.2075 16.0874 50.2037 16.1108C50.1987 16.1996 50.1879 16.3614 50.1879 16.38C50.1879 16.4065 50.1772 16.4846 50.228 16.5146C50.314 16.5683 50.9039 16.5955 51.0414 16.539C51.1087 16.5118 51.1846 16.4094 51.2111 16.3822C51.253 16.3301 51.3122 16.2948 51.3779 16.2826C51.4911 16.264 51.572 16.2991 51.7016 16.4201L51.7123 16.4309V16.4151C51.7198 16.3852 51.7217 16.3541 51.718 16.3235C51.7142 16.2867 51.7013 16.2515 51.6806 16.2209C51.6598 16.1903 51.6319 16.1653 51.5992 16.148C51.5345 16.1184 51.4621 16.1099 51.3923 16.1237C51.3251 16.1403 51.2625 16.1716 51.209 16.2153C51.2011 16.2211 51.1925 16.229 51.1903 16.2261C51.1882 16.2232 51.1846 16.2125 51.1903 16.2017C51.1902 16.1354 51.2141 16.0713 51.2576 16.0213C51.3464 15.9497 51.5104 15.9354 51.6214 15.9461C51.6771 15.9524 51.7307 15.9712 51.7782 16.0011C51.8257 16.031 51.8658 16.0712 51.8956 16.1187C51.955 16.2125 51.9522 16.3929 51.8906 16.5483V16.5562H51.9013C51.9532 16.5729 52.0064 16.5856 52.0603 16.5941C52.1309 16.6091 52.2045 16.5985 52.2679 16.564C52.3084 16.5225 52.3336 16.4685 52.3395 16.4108C52.3395 16.4108 52.3453 16.3943 52.3453 16.3893C52.3453 16.3843 52.3453 16.3729 52.3503 16.3729C52.3553 16.3729 52.3589 16.3865 52.361 16.3915C52.3632 16.3965 52.3696 16.4051 52.3746 16.4158C52.4634 16.5941 52.7763 16.6206 52.8758 16.6177C53.0942 16.6177 53.183 16.5504 53.2503 16.4538C53.2872 16.4014 53.3018 16.3365 53.2911 16.2733C53.2718 16.1874 53.2073 16.1437 53.0999 16.1437C53.0629 16.1439 53.0263 16.1515 52.9922 16.1661C52.9582 16.1807 52.9274 16.202 52.9018 16.2287C52.8762 16.2554 52.8561 16.287 52.8429 16.3216C52.8297 16.3562 52.8236 16.3931 52.825 16.4301V16.5017C52.825 16.5125 52.825 16.5175 52.8193 16.5175L52.8035 16.5125L52.6066 16.3994C52.5988 16.3937 52.5916 16.3872 52.5851 16.38C52.5795 16.3713 52.5767 16.361 52.5772 16.3507C52.5772 16.1781 52.583 15.9819 52.5908 15.8581C52.6016 15.6103 52.6231 15.3676 52.6503 15.1335C52.6511 15.1193 52.6548 15.1054 52.661 15.0927C52.668 15.083 52.6759 15.0742 52.6846 15.0662L52.9109 14.875C52.9109 14.875 52.9216 14.8642 52.9274 14.8693C52.9331 14.8743 52.9274 14.8857 52.9274 14.8857C52.9109 14.991 52.8622 15.3676 52.8357 15.8602C52.83 15.9411 52.8278 16.022 52.825 16.1029V16.1301L52.8407 16.1079C52.8799 16.0601 52.9299 16.0222 52.9865 15.9974C53.0431 15.9725 53.1048 15.9613 53.1665 15.9647C53.2527 15.9606 53.3372 15.9895 53.4028 16.0455C53.4684 16.1015 53.5101 16.1804 53.5195 16.2662C53.5294 16.3579 53.5155 16.4507 53.4793 16.5356C53.4431 16.6204 53.3857 16.6946 53.3126 16.7509C53.1881 16.8344 53.0421 16.8801 52.8923 16.8827C52.7305 16.8827 52.5665 16.8748 52.4584 16.7889C52.4234 16.7596 52.3957 16.7226 52.3775 16.6807C52.3775 16.6944 52.3725 16.708 52.3696 16.7187C52.356 16.7674 52.2944 16.8454 52.1219 16.8504C52.0289 16.8556 51.9359 16.84 51.8498 16.8046C51.816 16.7857 51.7836 16.7641 51.7531 16.7402L51.7474 16.7352L51.7395 16.7402C51.7145 16.7646 51.6863 16.7855 51.6557 16.8025C51.5904 16.84 51.5163 16.8596 51.4409 16.859C51.3921 16.8569 51.3439 16.8477 51.2977 16.8318C51.2344 16.8003 51.1839 16.748 51.1545 16.6836C51.1444 16.7097 51.1298 16.7339 51.1116 16.7552C51.0708 16.801 51.04 16.8411 50.8395 16.8383C50.8395 16.8383 50.2202 16.8519 50.0963 16.7817C49.9724 16.7115 49.9717 16.5433 49.9717 16.4681C49.9717 16.3929 49.9717 16.3628 49.9767 16.3249L49.9824 16.2469C49.9875 16.2361 49.9875 16.2225 49.9717 16.2204ZM50.4858 16.239C50.4844 16.2364 50.4837 16.2336 50.4837 16.2307C50.4837 16.2279 50.4844 16.225 50.4858 16.2225C50.513 16.196 50.5882 16.123 50.6125 16.0965C50.6125 16.0908 50.6233 16.0908 50.629 16.0965C50.6526 16.123 50.7257 16.1931 50.7529 16.2204C50.7552 16.2229 50.7565 16.2262 50.7565 16.2297C50.7565 16.2331 50.7552 16.2365 50.7529 16.239L50.629 16.3628C50.6281 16.3642 50.6268 16.3653 50.6254 16.366C50.624 16.3668 50.6224 16.3671 50.6208 16.3671C50.6191 16.3671 50.6175 16.3668 50.6161 16.366C50.6147 16.3653 50.6135 16.3642 50.6125 16.3628C50.5875 16.3385 50.5152 16.2662 50.4879 16.239H50.4858ZM53.8739 15.886C53.8818 15.8781 53.8847 15.8752 53.8875 15.8781C53.8898 15.8841 53.8898 15.8907 53.8875 15.8967C53.8789 16.075 53.8739 16.2547 53.8739 16.4273V16.6056C53.8789 16.6836 53.8897 16.7294 53.914 16.7488C53.9393 16.7662 53.9682 16.7778 53.9985 16.7829C54.0288 16.788 54.0598 16.7863 54.0894 16.7781H54.103C54.1081 16.7781 54.1159 16.7781 54.1159 16.7781C54.1159 16.7781 54.103 16.7917 54.0973 16.7946C54.0339 16.8286 53.9642 16.8495 53.8925 16.8562H53.8603C53.802 16.8526 53.7468 16.8288 53.7042 16.7889L53.6906 16.7753C53.6837 16.7687 53.6775 16.7615 53.672 16.7538C53.6396 16.7133 53.6232 16.6623 53.6262 16.6106C53.6262 16.5483 53.6262 16.2118 53.6262 16.1094C53.625 16.1013 53.625 16.0931 53.6262 16.085L53.6369 16.0743C53.6878 16.0449 53.8224 15.9289 53.8761 15.886H53.8739ZM53.7687 15.6382L53.8954 15.5115C53.8964 15.5103 53.8977 15.5093 53.8991 15.5087C53.9005 15.508 53.9021 15.5077 53.9036 15.5077C53.9052 15.5077 53.9068 15.508 53.9082 15.5087C53.9096 15.5093 53.9109 15.5103 53.9119 15.5115L54.0357 15.6354C54.0408 15.6411 54.0408 15.6519 54.0357 15.6547C54.0085 15.6812 53.9384 15.7542 53.9119 15.7814C53.9066 15.7836 53.9007 15.7836 53.8954 15.7814C53.8711 15.7542 53.7987 15.6812 53.7715 15.6547C53.77 15.6523 53.7691 15.6495 53.769 15.6466C53.7688 15.6437 53.7695 15.6408 53.7708 15.6382H53.7687ZM46.3115 15.8888C46.2645 15.8457 46.2142 15.8062 46.1611 15.7707C46.1559 15.7676 46.1518 15.7628 46.1497 15.7571C46.1497 15.7571 46.1497 15.7571 46.1583 15.7435C46.1848 15.7163 46.2299 15.6719 46.2499 15.644C46.2549 15.6382 46.2578 15.6332 46.2628 15.6332C46.2678 15.6332 46.2714 15.6332 46.2793 15.6411C46.3115 15.6655 46.363 15.7084 46.3817 15.7249C46.4164 15.759 46.4367 15.8051 46.4382 15.8538C46.4411 15.8708 46.4411 15.8883 46.4382 15.9053C46.4299 15.9561 46.4117 16.0048 46.3845 16.0485C46.3845 16.0542 46.3766 16.065 46.3709 16.0621C46.3652 16.0593 46.3659 16.0514 46.3659 16.0406V16.0192C46.3646 15.9709 46.3461 15.9246 46.3136 15.8888H46.3115ZM46.1683 16.0557C46.1683 16.0664 46.1683 16.0721 46.1575 16.0936C46.1575 16.0936 46.0229 16.2877 45.9929 16.3335C45.9721 16.3692 45.9655 16.4113 45.9743 16.4516C45.983 16.4845 46.0044 16.5125 46.0337 16.5297C46.1217 16.576 46.2209 16.5966 46.3201 16.5891C46.3784 16.585 46.4353 16.5694 46.4876 16.5433C46.4876 16.5433 46.4984 16.2712 46.507 16.1395C46.5063 16.1263 46.509 16.1133 46.5148 16.1015C46.5206 16.0908 46.5284 16.0857 46.5471 16.0721C46.5879 16.0342 46.6573 15.9776 46.6981 15.9425C46.7089 15.9347 46.7167 15.9268 46.7246 15.9297C46.7325 15.9325 46.7332 15.9454 46.7304 15.9619C46.7246 16.0106 46.7031 16.4173 46.7031 16.4301C46.7019 16.4494 46.7051 16.4686 46.7126 16.4864C46.72 16.5042 46.7315 16.52 46.7461 16.5325C46.8299 16.5841 46.9187 16.5841 47.137 16.5891C47.4464 16.5948 47.4764 16.5082 47.495 16.471C47.517 16.4258 47.5315 16.3775 47.538 16.3278C47.538 16.3091 47.5437 16.2955 47.5545 16.2955C47.5652 16.2955 47.5674 16.3063 47.576 16.3278C47.6647 16.5383 48.0714 16.5891 48.1767 16.5891C48.2616 16.5881 48.3462 16.579 48.4294 16.5619C48.5165 16.5432 48.5983 16.5055 48.6691 16.4516C48.7399 16.3976 48.7979 16.3287 48.839 16.2497C48.9156 16.0899 48.9406 15.9103 48.9106 15.7356C48.8933 15.6576 48.8615 15.5835 48.8168 15.5172C48.7433 15.4254 48.6467 15.3547 48.5368 15.3125C48.4449 15.271 48.3429 15.2571 48.2433 15.2724C48.2223 15.2753 48.2022 15.2829 48.1845 15.2945C48.1668 15.3062 48.1519 15.3216 48.1409 15.3397C48.1244 15.3752 48.1151 15.4137 48.1137 15.4528C48.1058 15.5738 48.0951 15.6977 48.0893 15.8187C48.0843 15.8903 48.0843 15.9834 48.0815 16.0557V16.0965V16.3901V16.4115V16.4545C48.0815 16.4681 48.0815 16.4731 48.0757 16.476C48.07 16.4749 48.0644 16.473 48.0593 16.4702L47.8631 16.3578C47.8551 16.3524 47.8478 16.3459 47.8416 16.3385C47.8367 16.3295 47.8347 16.3193 47.8359 16.3091C47.8359 16.1366 47.8416 15.9397 47.8466 15.8165C47.8552 15.6812 47.8982 15.1378 47.9118 14.9759C47.9118 14.9516 47.9118 14.9273 47.9225 14.9244C47.9332 14.9215 47.9354 14.933 47.949 14.9437C47.9843 14.9679 48.0252 14.9827 48.0679 14.9867C48.1595 14.9946 48.3235 14.9974 48.3235 14.9974C48.441 14.9948 48.558 15.014 48.6686 15.054C48.8392 15.1133 48.9857 15.2267 49.086 15.3769C49.2047 15.5434 49.2626 15.7456 49.25 15.9497C49.2594 16.1699 49.1949 16.3869 49.0667 16.5662C48.9753 16.6863 48.8509 16.7771 48.7087 16.8275C48.5409 16.8814 48.365 16.9056 48.1889 16.8991C48.0514 16.8991 47.8036 16.8798 47.6826 16.7724C47.6569 16.7491 47.6352 16.7218 47.6182 16.6915C47.5881 16.7781 47.4915 16.8748 47.1707 16.8776C47.0225 16.8776 46.7411 16.8776 46.6187 16.806C46.5993 16.7948 46.5821 16.7803 46.5678 16.7631L46.5621 16.7574L46.5542 16.7631C46.4892 16.8228 46.4054 16.858 46.3172 16.8626C46.2527 16.8673 46.1878 16.8592 46.1264 16.8388C46.065 16.8184 46.0082 16.7861 45.9592 16.7438C45.882 16.6647 45.8386 16.5586 45.8382 16.448C45.8339 16.2699 45.893 16.0961 46.005 15.9576C46.0071 15.9554 46.0096 15.9537 46.0124 15.9525C46.0152 15.9513 46.0181 15.9507 46.0212 15.9507C46.0242 15.9507 46.0272 15.9513 46.0299 15.9525C46.0327 15.9537 46.0352 15.9554 46.0373 15.9576C46.0484 15.9633 46.0592 15.9698 46.0695 15.9769C46.1046 16.0013 46.1368 16.0199 46.1533 16.0335C46.1616 16.0386 46.1679 16.0465 46.1712 16.0557H46.1683ZM45.511 16.2662C45.4945 16.1795 45.4301 16.1366 45.3227 16.1366C45.2857 16.1368 45.249 16.1444 45.215 16.159C45.181 16.1736 45.1502 16.1948 45.1246 16.2216C45.0989 16.2483 45.0789 16.2799 45.0657 16.3145C45.0525 16.3491 45.0464 16.386 45.0477 16.423V16.4946C45.0477 16.5082 45.0477 16.5111 45.0427 16.5111C45.036 16.5101 45.0295 16.5081 45.0234 16.5053L44.8294 16.3922C44.8202 16.3879 44.8121 16.3815 44.8057 16.3736C44.8005 16.3647 44.7985 16.3544 44.8 16.3442C44.8 16.1717 44.8057 15.9748 44.8107 15.8509C44.8244 15.6032 44.843 15.3612 44.873 15.127C44.873 15.1139 44.8762 15.1009 44.8821 15.0892C44.8881 15.0775 44.8968 15.0674 44.9074 15.0597C44.9074 15.0676 45.1337 14.8764 45.1337 14.8764C45.1337 14.8764 45.1444 14.8678 45.1501 14.8707C45.1559 14.8736 45.1501 14.8872 45.1501 14.8872C45.1365 14.9924 45.085 15.369 45.0585 15.8616C45.0585 15.9425 45.0506 16.0235 45.0477 16.1044V16.1316L45.0635 16.1094C45.1034 16.0617 45.1539 16.0239 45.211 15.9991C45.268 15.9742 45.33 15.963 45.3921 15.9662C45.4783 15.9622 45.5627 15.9911 45.6282 16.0471C45.6938 16.1031 45.7356 16.1819 45.7451 16.2676C45.7547 16.3587 45.7407 16.4507 45.7043 16.5347C45.6679 16.6188 45.6105 16.692 45.5375 16.7473C45.413 16.8302 45.2674 16.8759 45.1179 16.8791C44.9561 16.8791 44.7893 16.8712 44.684 16.7846C44.6246 16.7366 44.5766 16.6693 44.563 16.4803C44.563 16.4645 44.563 16.4452 44.563 16.4266C44.5615 16.4097 44.5615 16.3926 44.563 16.3757C44.563 16.365 44.563 16.3593 44.5709 16.3593C44.5788 16.3593 44.5766 16.3671 44.5788 16.3757C44.5824 16.3859 44.587 16.3957 44.5924 16.4051C44.6811 16.5798 44.9912 16.607 45.0936 16.607C45.3084 16.607 45.4 16.5397 45.4652 16.443C45.5035 16.3925 45.5209 16.3292 45.5139 16.2662H45.511ZM42.5754 16.481C42.5825 16.4289 42.6043 16.3799 42.6383 16.3398C42.6723 16.2998 42.717 16.2702 42.7673 16.2547C42.7751 16.2547 42.7802 16.2547 42.7802 16.2547C42.7802 16.2547 42.7802 16.2597 42.7723 16.2655C42.7343 16.3008 42.7104 16.3486 42.705 16.4001C42.7003 16.4252 42.702 16.451 42.71 16.4753C42.7177 16.502 42.7314 16.5267 42.7501 16.5473C42.7689 16.5679 42.7922 16.584 42.8181 16.5941C42.8428 16.6033 42.869 16.6075 42.8953 16.6065C42.9216 16.6056 42.9474 16.5994 42.9713 16.5884C43.0012 16.5714 43.026 16.5467 43.0429 16.5168C43.0644 16.4738 43.2878 16.0457 43.3744 15.8624C43.446 15.7149 43.5062 15.5824 43.5599 15.4664C43.6408 15.2917 43.7031 15.1542 43.7403 15.0683C43.7529 15.0253 43.7778 14.987 43.8119 14.958C43.8478 14.9345 43.8901 14.923 43.9329 14.9251C43.9534 14.9235 43.9739 14.9275 43.9924 14.9366C44.0083 14.9484 44.0196 14.9653 44.0246 14.9845C44.0246 14.9953 44.1757 15.6039 44.2215 15.8058C44.4313 15.7872 44.5716 15.8624 44.6389 16.0084C44.6647 16.0532 44.6768 16.1046 44.6739 16.1562C44.671 16.2078 44.6531 16.2575 44.6224 16.2991C44.6117 16.3127 44.606 16.3177 44.5981 16.3177C44.5902 16.3177 44.5981 16.3177 44.5981 16.2934C44.5969 16.2366 44.577 16.1817 44.5415 16.1373C44.4878 16.0657 44.3983 16.0428 44.2831 16.0514C44.3267 16.2397 44.4391 16.6786 44.4506 16.7273C44.4613 16.7621 44.4666 16.7983 44.4663 16.8347C44.4663 16.8512 44.4585 16.8776 44.399 16.8698C44.3183 16.8473 44.2391 16.8195 44.162 16.7867C43.7718 16.6034 43.6179 16.3664 43.6608 16.2017C43.6767 16.1234 43.7137 16.0508 43.7678 15.992C43.822 15.9332 43.8912 15.8903 43.968 15.8681L43.8785 15.4292L43.8678 15.4507C43.7897 15.6067 43.6336 15.9275 43.6064 15.9841C43.5792 16.0406 43.4181 16.3714 43.3508 16.506C43.3088 16.6031 43.2536 16.6939 43.1868 16.776C43.0494 16.9192 42.8174 16.8239 42.7572 16.7917C42.7054 16.7633 42.6618 16.7221 42.6305 16.6719C42.5993 16.6217 42.5815 16.5644 42.579 16.5053L42.5754 16.481ZM41.5357 18.7063H49.9438C51.9443 18.7063 52.8372 20.0975 52.2708 21.3119L47.6168 31.298H43.3064L44.8301 28.0316H41.4978L39.9749 31.298H35.6645L41.5357 18.7063ZM65.0751 47.1847L34.8132 33.0794H48.2325L46.8134 36.1224H70.2346L65.0751 47.1847ZM68.562 35.183H67.9821L67.8718 34.3682H67.7129L67.3298 35.1887H66.6546L67.6384 33.0794H68.8978C69.2337 33.0794 69.3826 33.3128 69.2873 33.5162L69.2465 33.6057L69.1119 33.8921C69.0527 34.0192 68.9618 34.129 68.848 34.211C68.7341 34.293 68.6012 34.3444 68.4618 34.3603L68.562 35.183ZM67.0584 33.5104L66.8801 33.8942L66.7463 34.1806C66.6801 34.3223 66.5749 34.4423 66.443 34.5263C66.3111 34.6104 66.158 34.6552 66.0016 34.6553H65.3436L65.098 35.1816H64.4264L65.4066 33.0794H66.6661C67.0019 33.0794 67.1508 33.3099 67.0556 33.5126L67.0584 33.5104ZM70.8941 34.7083C70.8276 34.8498 70.7224 34.9696 70.5905 35.0536C70.4587 35.1376 70.3057 35.1825 70.1494 35.183H69.2931C69.2494 35.183 69.2065 35.172 69.1682 35.151C69.1299 35.13 69.0975 35.0997 69.0741 35.0628C69.0506 35.026 69.0368 34.9839 69.0339 34.9403C69.031 34.8967 69.0391 34.8531 69.0575 34.8136L69.6475 33.5484C69.7148 33.408 69.8204 33.2895 69.9522 33.2065C70.0839 33.1235 70.2364 33.0795 70.3921 33.0794H71.2456C71.2893 33.0793 71.3322 33.0902 71.3705 33.1111C71.4088 33.132 71.4412 33.1623 71.4647 33.199C71.4882 33.2358 71.502 33.2779 71.5049 33.3215C71.5078 33.365 71.4996 33.4086 71.4812 33.4481L70.8941 34.7083ZM77.1591 21.3076L76.0915 23.5988L75.2896 25.3172C74.8948 26.1635 74.2668 26.8796 73.4791 27.3813C72.6915 27.8831 71.7771 28.1496 70.8432 28.1497H66.6109L65.146 31.2944H60.8356L66.7069 18.7027H74.8285C76.8369 18.7042 77.7226 20.0954 77.1562 21.3097L77.1591 21.3076Z" fill="black"/>
<path id="Vector_7" d="M72.4366 20.708H70.0838L67.5312 26.1768H69.3678C69.7288 26.1767 70.0822 26.0735 70.3866 25.8795C70.691 25.6854 70.9337 25.4086 71.0862 25.0814L71.9669 23.1983L72.8354 21.3367C72.8672 21.2695 72.8814 21.1954 72.8769 21.1212C72.8723 21.047 72.849 20.9752 72.8092 20.9125C72.7694 20.8497 72.7143 20.7981 72.6492 20.7623C72.584 20.7266 72.5109 20.7079 72.4366 20.708Z" fill="black"/>
<path id="Vector_8" d="M43.9036 16.325C43.9579 16.3793 44.0205 16.4247 44.089 16.4596C44.089 16.4596 44.0411 16.2283 44.0174 16.1016C43.9771 16.1158 43.939 16.1359 43.9043 16.161C43.8255 16.2283 43.8606 16.2741 43.9036 16.325Z" fill="black"/>
</g>
</svg>
