<svg width="114" height="48" viewBox="0 0 114 48" fill="none" xmlns="http://www.w3.org/2000/svg">
<g id="logos">
<path id="Vector" d="M13 14V18.1776H18.485V33.8922H23.3278V18.1776H28.8128V14H13Z" fill="black"/>
<path id="Vector_2" d="M69.2682 14L65.7671 26.2156H65.7087L62.5577 14H57.4227L54.2139 26.2156H54.1555L50.6544 14H45.4609L51.9383 33.8922H56.4018L60.0198 20.8085H60.049L63.5208 33.8922H67.9842L74.4609 14H69.2682Z" fill="black"/>
<path id="Vector_3" d="M80.4232 19.6597H80.4817L82.7573 26.3559H78.1754L80.4232 19.6597ZM78.1184 14L70.5332 33.8922H75.639L76.8352 30.3342H84.0996L85.3251 33.8922H90.4309L82.7865 14H78.1184Z" fill="black"/>
<path id="Vector_4" d="M88.0059 14L95.6503 33.8922H99.9997L92.356 14H88.0059Z" fill="#FFCD00"/>
<path id="Vector_5" d="M41.1798 27.7005C41.1798 26.4675 40.2174 25.5994 38.1165 25.5994H35.3155V29.8023H38.1165C39.9251 29.8023 41.1798 29.1005 41.1798 27.7012V27.7005ZM35.3155 21.9292H37.6196C39.0811 21.9292 40.2452 21.285 40.2452 20.0239C40.2452 18.9011 39.399 18.1186 37.4442 18.1186H35.3155V21.9292ZM46.2564 28.3454C46.2564 31.5392 44.0685 33.8929 39.6335 33.8929H30.5312V14H38.3503C42.9599 14 45.177 15.793 45.177 18.8471C45.177 20.5559 44.4185 22.3489 42.1722 23.2457V23.3019C44.9731 24.0303 46.2571 25.8794 46.2571 28.3447" fill="black"/>
</g>
</svg>
