<svg width="109" height="41" viewBox="0 0 109 41" fill="none" xmlns="http://www.w3.org/2000/svg">
<g id="Universal_Music_Group 1" clip-path="url(#clip0_1725_10875)">
<g id="layer1">
<g id="g3134">
<g id="g3229">
<path id="path3231" fill-rule="evenodd" clip-rule="evenodd" d="M54.9731 9.45232C55.0641 9.31708 55.3394 9.40724 55.5331 9.41186C55.7933 9.41764 55.7314 9.79907 56.0919 9.72394C56.4512 9.64766 56.4559 10.0626 56.9692 10.0476C57.4849 10.0314 56.8666 10.2256 56.8666 10.2256C56.8666 10.2256 56.5481 10.073 56.3428 10.1759C56.2331 10.2302 56.3824 10.1447 56.1993 9.99673C55.9169 9.76787 55.9554 10.0395 55.4818 9.64072C55.1458 9.35869 54.8238 9.67424 54.9731 9.45232Z" fill="#231F20"/>
</g>
<g id="g3233">
<path id="path3235" d="M51.1075 9.97816C50.803 9.49039 51.0305 8.88356 51.3758 8.29292C51.629 7.85832 52.3068 7.66644 52.896 7.89415C53.5575 7.37748 53.7161 7.93345 54.3018 7.68263C55.0718 7.35205 54.6413 8.55992 55.3856 8.86391C55.6936 8.05019 54.6845 7.43874 55.3168 7.05615C55.7694 6.78221 56.1113 6.6123 56.2968 6.24705C56.5604 5.7246 56.6631 5.34317 56.8673 5.27498C57.3363 5.11547 57.2348 4.67393 57.2348 4.67393C57.2348 4.67393 57.7352 4.81841 58.1226 4.45779C57.8262 4.29828 57.3923 4.16304 57.5078 3.84634C57.6419 3.47415 58.6476 4.23124 58.9451 3.61979C58.3466 3.36203 57.7352 2.80029 57.3701 2.67083C57.1204 2.94246 56.9629 2.83381 56.6398 2.58067C56.0926 2.15185 56.0471 2.55871 55.7041 2.26513C55.4323 2.80722 55.8441 2.76446 55.9689 2.89969C56.3201 3.28228 55.6131 2.55871 55.6819 3.52963C55.6994 3.78161 55.3238 3.829 55.0438 3.28228C54.898 2.99678 53.736 3.05573 53.5598 2.7841C53.7208 2.4674 55.0893 1.33813 57.1881 1.60975C54.1373 0.421534 50.0167 1.7184 49.9747 2.16919C49.564 2.42463 49.7052 2.71706 49.4999 2.7841C49.144 2.902 48.7579 3.97695 48.7579 3.97695C48.7579 3.97695 48.9784 4.12259 48.2889 4.88776C47.7207 5.51771 47.5527 6.47244 47.5527 6.47244C47.5527 6.47244 47.9284 7.15324 47.8561 7.93691C47.8036 8.53565 47.7779 8.0918 48.0404 8.52525C48.1932 8.77953 48.3601 9.66492 48.4616 9.31932C48.6552 8.66048 48.1081 8.05019 48.1991 7.39482C48.2201 7.47688 48.4091 7.13475 48.4021 7.44452C48.3822 8.25362 49.4077 9.81403 49.4077 9.81403C49.4077 9.81403 49.025 10.2001 49.4264 10.2001L49.3237 10.4393C49.3237 10.4393 49.6212 10.422 49.8125 10.5769C50.005 10.7329 50.1707 10.9248 50.3457 10.9248H53.2961C53.2961 10.9248 53.5061 10.0383 53.6776 9.88685C53.8491 9.73658 53.3346 9.88685 53.183 9.73658C53.0302 9.58517 52.9345 9.86835 52.8587 10.0186C52.7817 10.17 52.6872 10.4347 52.4585 10.5099C52.2298 10.585 51.6792 10.6231 51.5648 10.6231C51.4505 10.6231 51.1075 9.97816 51.1075 9.97816Z" fill="#231F20"/>
</g>
<g id="g3237">
<path id="path3239" d="M64.9303 19.4704C64.816 19.3201 64.949 19.0924 64.949 19.0924H56.6296L57.5571 19.8946C57.7601 19.9755 58.0167 20.1778 58.1346 20.4864C58.4122 21.2157 57.9992 20.6251 57.9992 21.7278C57.9992 22.7415 57.7111 22.5773 57.7111 22.5773C57.7111 22.5773 57.6492 23.7759 57.0227 24.5122C56.6249 24.9087 56.9341 25.2369 56.9341 25.2369C56.9341 25.2369 56.7999 25.3121 56.6051 26.1813C56.5409 26.4622 56.9049 26.8968 57.2199 26.7881C57.4567 26.706 56.6459 26.6286 57.5256 26.2622C57.8639 26.12 57.5874 25.853 57.5874 25.853C57.5874 25.853 58.1556 25.8091 58.4764 24.9572C59.0434 25.0393 58.8334 24.6948 60 24.4452C60.308 24.3805 60.3734 24.288 60.3349 24.0013C60.2964 23.7135 60.7152 24.0429 61.8713 22.8744C62.7813 21.9532 62.4535 21.7451 63.0835 21.4111C63.7496 21.0597 63.8103 21.4411 64.0331 21.1556C64.5418 20.4991 64.3633 20.5419 64.5745 20.1234L64.725 19.8934C64.725 19.8934 65.0435 19.6206 64.9303 19.4704Z" fill="#231F20"/>
</g>
<g id="g3241">
<path id="path3243" d="M59.1154 10.6754L58.9299 10.7852L58.8926 10.6025L59.1154 10.6754Z" fill="#231F20"/>
</g>
<g id="g3245">
<path id="path3247" d="M58.4517 10.5294C58.1542 10.593 57.8404 10.5294 57.5639 10.749L57.3784 10.6022H57.2676C57.5266 10.3919 57.1194 10.1722 57.5639 10.163C57.9057 10.1722 58.1542 10.4092 58.4517 10.5294Z" fill="#231F20"/>
</g>
<g id="g3249">
<path id="path3251" fill-rule="evenodd" clip-rule="evenodd" d="M40.5781 10.7918C42.4996 4.90391 47.0484 0.356766 54.6502 0.356766C61.7143 0.356766 66.9047 4.96632 68.7877 10.9201C66.8231 5.37087 61.2406 1.36814 54.6607 1.36814C48.1298 1.36814 42.5824 5.30961 40.5781 10.7918ZM68.7562 19.7983C66.8441 25.7012 61.4658 30.2935 54.6502 30.2935C47.4205 30.2935 42.5626 25.7637 40.6085 19.9266C42.6419 25.3637 48.1637 29.2636 54.6607 29.2636C61.2056 29.2636 66.7647 25.3025 68.7562 19.7983Z" fill="#231F20"/>
</g>
<g id="g3253">
<path id="path3255" d="M29.2226 12.2332H26.9045L27.251 12.6412V15.658C27.251 16.3353 26.7983 16.6208 26.1205 16.6208C25.445 16.6208 24.9912 16.3353 24.9912 15.658V12.6412L25.3377 12.2332H23.0195L23.366 12.6412V15.7065C23.366 17.2103 24.2153 17.7905 26.1205 17.7905C28.0256 17.7905 28.8749 17.2103 28.8749 15.7065V12.6412L29.2226 12.2332Z" fill="#231F20"/>
</g>
<g id="g3257">
<path id="path3259" d="M37.2681 12.2336H35.3128L35.6581 12.6416V15.3879L32.8546 12.2336H31.0977L31.4442 12.6416V17.2754L31.0977 17.6846H33.053L32.7065 17.2754V14.4805L35.6838 17.6846H36.9216V12.6416L37.2681 12.2336Z" fill="#231F20"/>
</g>
<g id="g3261">
<path id="path3263" d="M41.772 17.6846L41.4255 17.2766V12.6427L41.772 12.2336H39.4375L39.7852 12.6427V17.2766L39.4375 17.6846H41.772Z" fill="#231F20"/>
</g>
<g id="g3265">
<path id="path3267" d="M49.471 12.2336H47.5075L47.854 12.6416L46.468 15.641L45.1322 12.6416L45.4787 12.2336H43.1699L45.7342 17.6846H46.881L49.471 12.2336Z" fill="#231F20"/>
</g>
<g id="g3269">
<path id="path3271" d="M56.0256 17.6846V16.2051L55.6126 16.5484H52.7998V15.5023H54.5825L54.9861 15.8468V14.0725L54.5825 14.4158H52.7998V13.3698H55.6126L56.0256 13.713V12.2336H50.8457L51.191 12.6427V17.2766L50.8457 17.6846H56.0256Z" fill="#231F20"/>
</g>
<g id="g3273">
<path id="path3275" fill-rule="evenodd" clip-rule="evenodd" d="M62.013 13.9985C62.013 14.3904 61.6338 14.7094 61.1053 14.7094H60.0588V13.3698H61.3036C61.6665 13.3698 62.013 13.5489 62.013 13.9985ZM63.9099 17.6846L62.4178 15.5347C63.1516 15.2411 63.6638 14.677 63.6638 13.8841C63.6638 12.9768 63.1026 12.2335 61.5346 12.2335H58.1035L58.45 12.6427V17.2754L58.1035 17.6846H60.4041L60.0588 17.2754V15.7312H60.7518L61.8065 17.2754L61.4611 17.6846H63.9099Z" fill="#231F20"/>
</g>
<g id="g3277">
<path id="path3279" d="M70.8803 16.0904C70.8803 15.2247 70.178 14.7416 69.1642 14.4144C68.5038 14.211 67.5717 14.0642 67.5717 13.6308C67.5717 13.4181 67.8272 13.2713 68.2728 13.2713C68.8678 13.2713 69.8397 13.5163 70.5992 13.8758V12.053L70.1617 12.4703C69.6997 12.2819 68.8993 12.0854 68.3475 12.0854C66.475 12.0854 65.873 12.9026 65.873 13.647C65.873 14.6606 66.5497 15.1022 67.6137 15.4697C68.4047 15.7391 69.1397 15.7633 69.1397 16.2118C69.1397 16.5979 68.6858 16.6464 68.4537 16.6464C67.8692 16.6464 66.8297 16.4418 65.9057 15.8454V17.8635L66.3432 17.3896C66.7725 17.5526 67.7374 17.8312 68.5283 17.8312C70.1547 17.8312 70.8803 17.1203 70.8803 16.0904Z" fill="#231F20"/>
</g>
<g id="g3281">
<path id="path3283" fill-rule="evenodd" clip-rule="evenodd" d="M76.4591 15.7231H74.6368L75.5444 13.7708L76.4591 15.7231ZM79.1062 17.6846L76.3996 12.2336H74.5446L74.7418 12.6427L72.293 17.6846H74.3124L73.9671 17.2754L74.2389 16.7032H76.8616L77.1276 17.2754L76.7799 17.6846H79.1062Z" fill="#231F20"/>
</g>
<g id="g3285">
<path id="path3287" d="M85.6279 17.6843V16.2048L85.2149 16.5481H82.5666V12.6425L82.9131 12.2333H80.6113L80.959 12.6425V17.2763L80.6113 17.6843H85.6279Z" fill="#231F20"/>
</g>
<g id="g3289">
<path id="path3291" d="M84.4668 13.4123C84.4668 12.8124 84.9591 12.3258 85.5646 12.3258C86.1701 12.3258 86.6624 12.8124 86.6624 13.4123C86.6624 14.0122 86.1701 14.4988 85.5646 14.4988C84.9591 14.4988 84.4668 14.0122 84.4668 13.4123ZM84.5706 13.4123C84.5706 13.9555 85.014 14.3982 85.5646 14.3982C86.1141 14.3982 86.5598 13.9555 86.5598 13.4123C86.5598 12.8679 86.1141 12.4263 85.5646 12.4263C85.014 12.4263 84.5706 12.8679 84.5706 13.4123Z" fill="#231F20"/>
</g>
<g id="g3293">
<path id="path3295" fill-rule="evenodd" clip-rule="evenodd" d="M85.977 12.987C85.8685 12.8957 85.7379 12.8529 85.5967 12.8529C85.2735 12.8529 85.0332 13.1014 85.0332 13.4158C85.0332 13.7325 85.2689 13.9822 85.5944 13.9822C85.7402 13.9822 85.879 13.929 85.991 13.8331V13.6909C85.8895 13.81 85.7449 13.8839 85.5885 13.8839C85.3307 13.8839 85.1405 13.662 85.1405 13.4158C85.1405 13.1696 85.333 12.9523 85.5909 12.9523C85.746 12.9523 85.8744 13.0159 85.977 13.128V12.987Z" fill="#231F20"/>
</g>
<g id="g3297">
<path id="path3299" d="M4.28507 37.4621V39.5253C4.28507 40.5378 3.71341 40.9285 2.4301 40.9285C1.14795 40.9285 0.575127 40.5378 0.575127 39.5253V37.4621L0.341797 37.187H1.90277L1.66944 37.4621V39.4917C1.66944 39.9483 1.97511 40.1413 2.4301 40.1413C2.88626 40.1413 3.19075 39.9483 3.19075 39.4917V37.4621L2.95742 37.187H4.5184L4.28507 37.4621Z" fill="#231F20"/>
</g>
<g id="g3301">
<path id="path3303" d="M10.2688 37.4622V40.8569H9.43578L7.43147 38.7001V40.5818L7.6648 40.8569H6.34766L6.58099 40.5818V37.4622L6.34766 37.1871H7.53064L9.41944 39.3104V37.4622L9.18611 37.1871H10.5021L10.2688 37.4622Z" fill="#231F20"/>
</g>
<g id="g3305">
<path id="path3307" d="M12.5293 40.8569L12.7626 40.5818V37.4622L12.5293 37.1871H14.1008L13.8674 37.4622V40.5818L14.1008 40.8569H12.5293Z" fill="#231F20"/>
</g>
<g id="g3309">
<path id="path3311" d="M18.1279 40.8569H17.3555L15.6289 37.1871H17.184L16.9507 37.4622L17.8502 39.4815L18.7835 37.4622L18.5502 37.1871H19.872L18.1279 40.8569Z" fill="#231F20"/>
</g>
<g id="g3313">
<path id="path3315" d="M21.3711 40.8569L21.6044 40.5818V37.4622L21.3711 37.1871H24.8582V38.1834L24.5805 37.9523H22.6871V38.6562H23.8864L24.1582 38.425V39.619L23.8864 39.3878H22.6871V40.0918H24.5805L24.8582 39.8606V40.8569H21.3711Z" fill="#231F20"/>
</g>
<g id="g3317">
<path id="path3319" d="M28.9849 37.9523H28.1461V38.8538H28.8519C29.2065 38.8538 29.462 38.64 29.462 38.3753C29.462 38.0725 29.2287 37.9523 28.9849 37.9523ZM29.0899 40.8569L29.3232 40.5818L28.6127 39.5416H28.1461V40.5818L28.3794 40.8569H26.8301L27.0634 40.5818V37.4622L26.8301 37.1871H29.14C30.1959 37.1871 30.5727 37.6876 30.5727 38.299C30.5727 38.8319 30.2285 39.2121 29.735 39.4098L30.7395 40.8569H29.0899Z" fill="#231F20"/>
</g>
<g id="g3321">
<path id="path3323" d="M34.4154 40.9566C33.8823 40.9566 33.2324 40.7693 32.9443 40.6595L32.6491 40.9785V39.6192C33.2709 40.0215 33.9709 40.159 34.3653 40.159C34.5204 40.159 34.8261 40.1255 34.8261 39.8677C34.8261 39.5649 34.3326 39.5476 33.7994 39.3661C33.0831 39.1187 32.627 38.8217 32.627 38.1397C32.627 37.6392 33.0329 37.0891 34.2929 37.0891C34.6651 37.0891 35.2041 37.2208 35.5156 37.348L35.8096 37.0671V38.2935C35.2986 38.0519 34.6429 37.8866 34.2428 37.8866C33.9429 37.8866 33.7714 37.986 33.7714 38.1282C33.7714 38.4206 34.3991 38.5188 34.8424 38.6564C35.5261 38.8772 35.9986 39.2008 35.9986 39.7845C35.9986 40.478 35.5097 40.9566 34.4154 40.9566Z" fill="#231F20"/>
</g>
<g id="g3325">
<path id="path3327" d="M39.7109 38.2216L39.1007 39.5369H40.3281L39.7109 38.2216ZM40.5439 40.8569L40.7772 40.5818L40.5999 40.1969H38.8336L38.6504 40.5818L38.8837 40.8569H37.5234L39.1731 37.4622L39.0389 37.1871H40.2884L42.1107 40.8569H40.5439Z" fill="#231F20"/>
</g>
<g id="g3329">
<path id="path3331" d="M43.6953 40.8572L43.9286 40.5821V37.4624L43.6953 37.1873H45.2446L45.0113 37.4624V40.092H46.7939L47.0716 39.8608V40.8572H43.6953Z" fill="#231F20"/>
</g>
<g id="g3333">
<path id="path3335" d="M55.3952 40.8572L55.6285 40.5821V38.8217L54.645 40.8572H54.1294L53.0176 38.7882V40.5821L53.2509 40.8572H51.9688L52.2021 40.5821V37.4624L51.9688 37.1873H53.2742L54.4782 39.432L55.5784 37.1873H56.9107L56.6773 37.4624V40.5821L56.9107 40.8572H55.3952Z" fill="#231F20"/>
</g>
<g id="g3337">
<path id="path3339" d="M62.6874 37.4623V39.5255C62.6874 40.538 62.1146 40.9287 60.8324 40.9287C59.5503 40.9287 58.9775 40.538 58.9775 39.5255V37.4623L58.7441 37.1872H60.3051L60.0718 37.4623V39.492C60.0718 39.9485 60.3774 40.1416 60.8324 40.1416C61.2874 40.1416 61.5931 39.9485 61.5931 39.492V37.4623L61.3598 37.1872H62.9207L62.6874 37.4623Z" fill="#231F20"/>
</g>
<g id="g3341">
<path id="path3343" d="M66.4857 40.9566C65.9526 40.9566 65.3028 40.7693 65.0146 40.6595L64.7194 40.9785V39.6192C65.3413 40.0215 66.0412 40.159 66.4356 40.159C66.5907 40.159 66.8964 40.1255 66.8964 39.8677C66.8964 39.5649 66.4029 39.5476 65.8697 39.3661C65.1534 39.1187 64.6973 38.8217 64.6973 38.1397C64.6973 37.6392 65.1033 37.0891 66.3644 37.0891C66.7354 37.0891 67.2744 37.2208 67.5847 37.348L67.8799 37.0671V38.2935C67.3689 38.0519 66.7132 37.8866 66.3131 37.8866C66.0132 37.8866 65.8417 37.986 65.8417 38.1282C65.8417 38.4206 66.4694 38.5188 66.9139 38.6564C67.5964 38.8772 68.0689 39.2008 68.0689 39.7845C68.0689 40.478 67.5801 40.9566 66.4857 40.9566Z" fill="#231F20"/>
</g>
<g id="g3345">
<path id="path3347" d="M70.0391 40.8569L70.2724 40.5818V37.4622L70.0391 37.1871H71.6105L71.3772 37.4622V40.5818L71.6105 40.8569H70.0391Z" fill="#231F20"/>
</g>
<g id="g3349">
<path id="path3351" d="M75.5865 40.9287C74.4595 40.9287 73.4434 40.3785 73.4434 39.0192C73.4434 37.9466 74.2204 37.1155 75.6308 37.1155C76.059 37.1155 76.5198 37.2149 76.78 37.3143L77.0355 37.0716V38.2934C76.6365 38.0518 76.2142 37.9085 75.6927 37.9085C74.9087 37.9085 74.603 38.4251 74.603 39.0192C74.603 39.685 75.0475 40.1369 75.7253 40.1369C76.4078 40.1369 76.8197 39.8723 77.0413 39.7347V40.5935C76.7753 40.7472 76.136 40.9287 75.5865 40.9287Z" fill="#231F20"/>
</g>
<g id="g3353">
<path id="path3355" d="M84.5882 39.0366H85.91V40.5057C85.5822 40.7091 84.8542 40.9287 84.2277 40.9287C83.0995 40.9287 82.0391 40.3785 82.0391 39.0204C82.0391 37.6449 83.194 37.1167 84.2277 37.1167C84.8274 37.1167 85.2158 37.2658 85.4492 37.3479L85.7432 37.0728V38.3327C85.343 38.1119 84.8659 37.9085 84.2825 37.9085C83.6047 37.9085 83.1999 38.3546 83.1999 39.0204C83.1999 39.6862 83.6047 40.1369 84.2825 40.1369C84.4552 40.1369 84.6489 40.1092 84.8274 40.0768V39.3163L84.5882 39.0366Z" fill="#231F20"/>
</g>
<g id="g3357">
<path id="path3359" d="M89.8696 37.9525H89.0308V38.8541H89.7366C90.0913 38.8541 90.3468 38.6402 90.3468 38.3756C90.3468 38.0727 90.1135 37.9525 89.8696 37.9525ZM89.9746 40.8572L90.208 40.5821L89.4975 39.5418H89.0308V40.5821L89.2642 40.8572H87.7148L87.9482 40.5821V37.4624L87.7148 37.1873H90.0248C91.0806 37.1873 91.4575 37.6878 91.4575 38.2993C91.4575 38.8321 91.1133 39.2124 90.6198 39.41L91.6243 40.8572H89.9746Z" fill="#231F20"/>
</g>
<g id="g3361">
<path id="path3363" d="M95.4967 37.8855C94.8025 37.8855 94.5202 38.3421 94.5202 39.0194C94.5202 39.6956 94.8025 40.1579 95.4967 40.1579C96.1908 40.1579 96.4685 39.6956 96.4685 39.0194C96.4685 38.3421 96.1908 37.8855 95.4967 37.8855ZM95.4967 40.9497C94.4525 40.9497 93.3535 40.4111 93.3535 39.0194C93.3535 37.6266 94.4525 37.0938 95.4967 37.0938C96.5408 37.0938 97.6293 37.6266 97.6293 39.0194C97.6293 40.4111 96.5408 40.9497 95.4967 40.9497Z" fill="#231F20"/>
</g>
<g id="g3365">
<path id="path3367" d="M103.191 37.4623V39.5255C103.191 40.538 102.62 40.9287 101.336 40.9287C100.054 40.9287 99.4814 40.538 99.4814 39.5255V37.4623L99.248 37.1872H100.809L100.576 37.4623V39.492C100.576 39.9485 100.881 40.1416 101.336 40.1416C101.791 40.1416 102.097 39.9485 102.097 39.492V37.4623L101.864 37.1872H103.425L103.191 37.4623Z" fill="#231F20"/>
</g>
<g id="g3369">
<path id="path3371" d="M107.196 37.9523H106.574V39.063H107.095C107.596 39.063 107.873 38.9371 107.873 38.4689C107.873 38.0621 107.59 37.9523 107.196 37.9523ZM107.218 39.7901H106.574V40.5818L106.807 40.8569H105.258L105.491 40.5818V37.4622L105.258 37.1871H107.252C107.984 37.1871 109 37.3905 109 38.403C109 39.5589 108.107 39.7901 107.218 39.7901Z" fill="#231F20"/>
</g>
</g>
</g>
</g>
<defs>
<clipPath id="clip0_1725_10875">
<rect width="108.659" height="40.6214" fill="white" transform="translate(0.339844 0.356934)"/>
</clipPath>
</defs>
</svg>
