<svg width="114" height="48" viewBox="0 0 114 48" fill="none" xmlns="http://www.w3.org/2000/svg">
<path d="M17.9856 18.92V22.2H26.2494C25.9965 24.04 25.35 25.3867 24.3662 26.3333C23.1575 27.48 21.2743 28.7333 17.9856 28.7333C12.8981 28.7333 8.92078 24.84 8.92078 20.0133C8.92078 15.1867 12.8981 11.2933 17.9856 11.2933C20.7262 11.2933 22.7359 12.32 24.2116 13.64L26.6429 11.3333C24.5911 9.44 21.8365 8 17.9856 8C11.0148 8 5.1543 13.3867 5.1543 20C5.1543 26.6133 11.0148 32 17.9856 32C21.7521 32 24.5911 30.8267 26.8116 28.64C29.0884 26.48 29.8051 23.4267 29.8051 20.9733C29.8051 20.2133 29.7489 19.5067 29.6224 18.92H17.9856Z" fill="#4285F4"/>
<path d="M40.1349 16.2534C35.6236 16.2534 31.9414 19.5068 31.9414 24.0001C31.9414 28.4534 35.6236 31.7468 40.1349 31.7468C44.6463 31.7468 48.3284 28.4668 48.3284 24.0001C48.3284 19.5068 44.6463 16.2534 40.1349 16.2534ZM40.1349 28.6934C37.6614 28.6934 35.5252 26.7601 35.5252 24.0001C35.5252 21.2134 37.6614 19.3068 40.1349 19.3068C42.6084 19.3068 44.7447 21.2134 44.7447 24.0001C44.7447 26.7601 42.6084 28.6934 40.1349 28.6934Z" fill="#EA4335"/>
<path d="M80.3025 17.9868H80.176C79.375 17.0801 77.829 16.2534 75.8755 16.2534C71.7998 16.2534 68.2441 19.6268 68.2441 24.0001C68.2441 28.3468 71.7998 31.7467 75.8755 31.7467C77.829 31.7467 79.375 30.9201 80.176 29.9867H80.3025V31.0667C80.3025 34.0267 78.6301 35.6134 75.9458 35.6134C73.7533 35.6134 72.3901 34.1201 71.8279 32.8534L68.7079 34.0801C69.6074 36.1334 71.9825 38.6534 75.9458 38.6534C80.1479 38.6534 83.7036 36.3067 83.7036 30.5868V16.6534H80.3025V17.9868ZM76.1847 28.6934C73.7112 28.6934 71.8279 26.6934 71.8279 24.0001C71.8279 21.2668 73.7112 19.3068 76.1847 19.3068C78.6301 19.3068 80.5414 21.3068 80.5414 24.0268C80.5555 26.7334 78.6301 28.6934 76.1847 28.6934Z" fill="#4285F4"/>
<path d="M58.4045 16.2534C53.8931 16.2534 50.2109 19.5068 50.2109 24.0001C50.2109 28.4534 53.8931 31.7468 58.4045 31.7468C62.9158 31.7468 66.598 28.4668 66.598 24.0001C66.598 19.5068 62.9158 16.2534 58.4045 16.2534ZM58.4045 28.6934C55.9309 28.6934 53.7947 26.7601 53.7947 24.0001C53.7947 21.2134 55.9309 19.3068 58.4045 19.3068C60.878 19.3068 63.0142 21.2134 63.0142 24.0001C63.0142 26.7601 60.878 28.6934 58.4045 28.6934Z" fill="#FBBC05"/>
<path d="M86.5137 8.31982H90.0412V31.7465H86.5137V8.31982Z" fill="#34A853"/>
<path d="M100.933 28.6934C99.106 28.6934 97.813 27.9068 96.9698 26.3468L107.89 22.0668L107.524 21.1868C106.85 19.4534 104.77 16.2534 100.54 16.2534C96.3374 16.2534 92.8379 19.3868 92.8379 24.0001C92.8379 28.3468 96.2952 31.7468 100.933 31.7468C104.671 31.7468 106.836 29.5734 107.735 28.3201L104.952 26.5601C104.025 27.8401 102.76 28.6934 100.933 28.6934ZM100.68 19.1601C102.128 19.1601 103.364 19.8668 103.772 20.8668L96.3936 23.7601C96.3936 20.5068 98.8249 19.1601 100.68 19.1601Z" fill="#EA4335"/>
</svg>
