<svg width="114" height="48" viewBox="0 0 114 48" fill="none" xmlns="http://www.w3.org/2000/svg">
<path d="M3.00977 21.1736L3.00977 9.5916H5.21497L5.21497 21.1736H3.00977ZM8.45076 13.8766H8.48188C9.01362 13.132 10.0297 12.7019 10.953 12.7019C11.937 12.7019 12.7811 13.1156 13.2512 13.8766C13.9089 13.2154 14.9247 12.7187 15.8483 12.7019C17.6133 12.6851 18.5378 13.8277 18.5692 15.7295V21.1568H16.4882V16.1273C16.4882 15.1678 16.1755 14.1751 15.1446 14.1751C14.1437 14.1751 13.5186 14.803 13.5186 16.2421V21.1733H11.4379V16.1273C11.4379 14.9694 10.9533 14.1751 10.0617 14.1751C9.07586 14.1751 8.46706 14.8858 8.46706 16.2924V21.1736H6.38634L6.38634 12.9006H8.45076V13.8766ZM23.7998 14.0262C24.9871 14.0262 25.5817 15.4493 25.5817 16.8718C25.5817 18.3279 25.1134 20.0484 23.7224 20.0484C22.5958 20.0484 21.7982 18.8737 21.7982 17.1365C21.7979 15.2335 22.4861 14.0262 23.7998 14.0262ZM21.7979 12.9006H19.719V25.3108H21.7979V20.1476C22.3774 20.8769 23.1889 21.3717 24.1424 21.3717C26.3793 21.3717 27.7866 19.0398 27.7866 16.8553C27.7866 15.035 26.7866 12.7022 24.3315 12.7022C23.3931 12.7022 22.3771 13.1989 21.829 14.042H21.7979V12.9006ZM30.7669 16.0439C30.7512 14.9374 31.2821 13.9266 32.4712 13.9266C33.5027 13.9266 33.9254 14.7869 33.8468 16.0439H30.7669ZM35.8036 17.2351C35.9581 14.7704 34.9417 12.7019 32.5026 12.7019C30.2663 12.7019 28.5152 14.3235 28.5152 16.8718C28.5152 19.6024 30.2814 21.3714 32.6434 21.3714C33.5344 21.3714 34.6447 21.1067 35.7082 20.4455L35.1136 19.2877C34.5985 19.6674 33.784 19.9501 33.0187 19.9501C31.7207 19.9501 30.6893 18.791 30.7367 17.2348L35.8036 17.2351ZM38.8708 14.3564H38.9019L39.3234 13.7114C39.5735 13.3631 40.0273 12.7019 40.6681 12.7019C41.1376 12.7019 41.6374 12.9672 42.076 13.4462L41.2944 14.9694C40.9506 14.7869 40.7313 14.6874 40.3092 14.6874C39.5901 14.6874 38.8856 15.2997 38.8856 17.0864V21.1736H36.8055V12.9006H38.8705L38.8708 14.3564ZM44.8216 12.9006V21.1739H42.7426V12.9006H44.8216ZM42.5396 10.4198C42.5396 9.78971 43.0399 9.14561 43.7436 9.14561C44.4626 9.14561 45.0258 9.77414 45.0258 10.4198C45.0258 11.1304 44.54 11.8084 43.7735 11.8084C43.0399 11.8084 42.5396 11.1304 42.5396 10.4198ZM50.47 16.3755C50.6262 18.8069 49.5485 19.8997 48.7195 19.8997C48.2192 19.8997 47.7799 19.4037 47.7799 18.675C47.7799 17.7324 48.2968 17.1041 49.3129 16.772L50.47 16.3755ZM50.4395 19.9657C50.4395 20.4123 50.4857 20.8921 50.6417 21.1736H52.8472C52.5964 20.5942 52.5185 19.8167 52.5185 19.1549V15.7802C52.5185 13.1986 50.7522 12.7019 49.3132 12.7019C48.2346 12.7019 47.2814 12.9834 46.3104 13.8277L46.9826 14.8699C47.5309 14.3732 48.1566 14.0262 49.0488 14.0262C49.721 14.0262 50.3613 14.506 50.4706 15.2667L48.625 15.8455C46.8107 16.391 45.7321 17.2848 45.7321 18.8576C45.7321 20.3784 46.7482 21.3711 47.9678 21.3711C48.6875 21.3711 49.3926 20.8589 49.9709 20.3784L50.4395 19.9657ZM53.8167 21.1736V9.01221H55.8953V21.1739L53.8167 21.1736ZM69.6204 11.6927C69.0872 11.3945 68.1968 11.0477 67.3514 11.0477C65.1003 11.0477 63.4751 12.719 63.4751 15.3501C63.4751 18.0968 65.2734 19.7181 67.4146 19.7181C68.2599 19.7181 69.0409 19.4696 69.6204 19.1387L70.2304 20.5786C69.5578 20.9923 68.385 21.3723 67.3215 21.3723C63.5205 21.3723 61.1282 18.7251 61.1282 15.3177C61.1282 12.157 63.506 9.39379 67.3514 9.39379C68.4938 9.39379 69.5578 9.82421 70.3074 10.2876L69.6204 11.6927Z" fill="#1A3E70"/>
<path d="M74.3559 20.1476C72.8698 20.1476 72.464 18.3942 72.464 16.9381C72.464 15.565 72.9323 13.9266 74.3559 13.9266C75.8101 13.9266 76.2633 15.565 76.2633 16.9381C76.2633 18.3942 75.8732 20.1476 74.3559 20.1476ZM74.3559 21.3717C76.8122 21.3717 78.4673 19.5032 78.4673 16.9384C78.4673 14.2578 76.4672 12.7022 74.3559 12.7022C72.2601 12.7022 70.2594 14.2578 70.2594 16.9384C70.2594 19.5032 71.9169 21.3717 74.3559 21.3717ZM79.3645 21.1736V9.01221H81.4455V21.1739L79.3645 21.1736ZM82.7559 21.1736V9.01221H84.8351V21.1739L82.7559 21.1736ZM87.9526 16.0439C87.9349 14.9374 88.4669 13.9266 89.6552 13.9266C90.6881 13.9266 91.1096 14.7869 91.0322 16.0439H87.9526ZM92.9867 17.2351C93.1435 14.7704 92.1274 12.7019 89.6875 12.7019C87.4517 12.7019 85.6982 14.3235 85.6982 16.8718C85.6982 19.6024 87.4657 21.3714 89.8286 21.3714C90.7189 21.3714 91.8292 21.1067 92.8939 20.4455L92.2993 19.2877C91.7842 19.6674 90.9697 19.9501 90.2038 19.9501C88.9065 19.9501 87.8732 18.791 87.9206 17.2348L92.9867 17.2351ZM104.936 16.0439C104.921 14.9374 105.452 13.9266 106.641 13.9266C107.672 13.9266 108.096 14.7869 108.017 16.0439H104.936ZM109.972 17.2351C110.127 14.7704 109.112 12.7019 106.672 12.7019C104.435 12.7019 102.685 14.3235 102.685 16.8718C102.685 19.6024 104.451 21.3714 106.813 21.3714C107.705 21.3714 108.815 21.1067 109.878 20.4455L109.284 19.2877C108.768 19.6674 107.955 19.9501 107.189 19.9501C105.89 19.9501 104.86 18.791 104.905 17.2348L109.972 17.2351ZM97.8479 14.0262C99.0999 14.0262 99.7401 15.3666 99.7401 16.8056C99.7401 18.4601 99.1453 20.0484 97.7534 20.0484C96.5494 20.0484 95.9566 18.4928 95.9566 16.8877C95.956 15.2835 96.5035 14.0262 97.8479 14.0262ZM101.82 12.9006H99.7398V13.9102H99.709C99.2712 13.1656 98.3322 12.7022 97.3784 12.7022C95.2515 12.7022 93.7508 14.7872 93.7508 16.9384C93.7508 19.5856 95.1119 21.3717 97.1914 21.3717C98.3808 21.3717 99.1927 20.6772 99.709 19.9818H99.7398V21.0741C99.7398 22.9933 98.6769 23.8871 97.3002 23.8871C96.2373 23.8871 95.3454 23.6719 94.5801 23.1755L94.1726 24.5318C95.0959 25.0278 96.285 25.3108 97.4567 25.3108C99.7873 25.3108 101.82 24.1023 101.82 20.4294V12.9006ZM3.00977 26.1384H5.23098V36.1635H9.90549V37.7192H3.00977L3.00977 26.1384ZM22.1082 30.4225C22.8501 29.6282 23.8851 29.2472 24.9225 29.2472C26.8479 29.2472 27.77 30.3068 27.77 32.3911L27.77 37.7189H25.6801L25.6801 32.6396C25.6801 31.4823 25.1697 30.7213 24.0339 30.7213C22.963 30.7213 22.1245 31.4317 22.1245 32.7882L22.1245 37.7189H20.0343L20.0343 29.4468H22.1085L22.1082 30.4225ZM33.1823 30.5726C34.4995 30.5726 35.1738 31.9131 35.1738 33.3511C35.1738 35.0069 34.5496 36.594 33.0833 36.594C31.8168 36.594 31.1914 35.0389 31.1914 33.4339C31.1914 31.8291 31.7679 30.5726 33.1823 30.5726ZM35.1738 37.7192H37.2643V25.5593H35.1738V30.4072H35.1406C34.6471 29.6779 33.6933 29.2475 32.6236 29.2475C30.4172 29.2475 28.8706 31.3327 28.8706 33.4836C28.8706 36.1303 30.3019 37.9167 32.4585 37.9167C33.7422 37.9167 34.5979 37.2225 35.1406 36.5268H35.1735L35.1738 37.7192ZM42.6955 36.6923C41.1332 36.6923 40.7034 34.9394 40.7034 33.4833C40.7034 32.1106 41.1966 30.4725 42.6955 30.4725C44.227 30.4725 44.703 32.1106 44.703 33.4833C44.703 34.9394 44.2928 36.6923 42.6955 36.6923ZM42.6955 37.9167C45.2792 37.9167 47.0232 36.0469 47.0232 33.4836C47.0232 30.8046 44.9176 29.2475 42.6955 29.2475C40.49 29.2475 38.3832 30.8046 38.3832 33.4836C38.3832 36.0469 40.1281 37.9167 42.6955 37.9167ZM50.2332 30.4225C50.9742 29.6282 52.0107 29.2472 53.0469 29.2472C54.9726 29.2472 55.8947 30.3068 55.8947 32.3911V37.7189H53.8048V32.6396C53.8048 31.4823 53.2944 30.7213 52.158 30.7213C51.0892 30.7213 50.2492 31.4317 50.2492 32.7882V37.7189H48.159V29.4468H50.2329L50.2332 30.4225ZM14.5346 36.6923C12.9697 36.6923 12.5428 34.9394 12.5428 33.4833C12.5428 32.1106 13.036 30.4725 14.5346 30.4725C16.0652 30.4725 16.5424 32.1106 16.5424 33.4833C16.5427 34.9394 16.1302 36.6923 14.5346 36.6923ZM14.5346 37.9167C17.1181 37.9167 18.8627 36.0469 18.8627 33.4836C18.8627 30.8046 16.7559 29.2475 14.5346 29.2475C12.3288 29.2475 10.2223 30.8046 10.2223 33.4836C10.2226 36.0469 11.9663 37.9167 14.5346 37.9167Z" fill="#1A3E70"/>
</svg>
