<svg width="95" height="16" viewBox="0 0 95 16" fill="none" xmlns="http://www.w3.org/2000/svg">
<path id="metro" d="M89.5637 12.1364C89.5388 12.3163 89.4649 12.7895 88.7945 12.8509H82.9067C82.2363 12.7895 82.1139 12.3163 82.0888 12.1364V3.77904C82.1136 3.59874 82.2065 3.21548 82.8769 3.15402H88.7971C89.4678 3.21548 89.5388 3.59874 89.5637 3.77904V12.1364ZM91.6023 0.00517515L80.0501 0.00517515C78.3144 0.133932 76.8481 0.943357 76.6525 2.75416V13.1011C76.8481 14.9119 78.3144 15.8712 80.0501 16H91.6023C93.3381 15.8712 94.8041 14.9119 95 13.1011V2.75416C94.8041 0.943357 93.3381 0.133932 91.6023 0.00517515ZM44.8497 3.15402H39.685V0.00517515L55.4507 0.00517515V3.15402H50.286V16H44.8497V3.15402ZM38.0543 3.15402V0.00517515L23.9196 0.00517515V16L38.2422 15.9966L38.2474 12.8512H29.3697L29.3706 9.4254H38.0543V6.28432H29.3706V3.15402H38.0543L38.0543 3.15402ZM69.5852 5.63319C69.5852 5.97935 69.4916 6.28302 68.8158 6.28302H62.518V3.14345L68.824 3.14345C69.5911 3.14345 69.5852 3.60499 69.5852 3.89313V5.63319ZM71.0911 9.78212C72.787 9.65724 74.4778 8.59591 74.4778 6.85283V2.90405C74.281 1.10166 72.8103 0.128326 71.0667 0L57.0814 0L57.0819 16H62.5179V9.78212H64.6816L68.2151 16H74.467L70.2591 9.78212H71.0911H71.0911ZM12.6666 16L16.3089 5.95325V16H21.7452V0.00517515L14.4063 0.00517515L10.8726 8.0028L7.3389 0.00517515L0 0.00517515L0 16H5.43635L5.43635 5.95325L9.10558 16H12.6666Z" fill="#FFBF00"/>
</svg>
