<svg width="114" height="48" viewBox="0 0 114 48" fill="none" xmlns="http://www.w3.org/2000/svg">
<g clip-path="url(#clip0_1725_90)">
<path d="M50.3535 27.6093V22.5122H56.1393V23.4633H51.4256V26.6501H56.7945V27.6093H50.3535Z" fill="#17171B"/>
<path d="M50.3535 19.4231V18.4719H56.5307L56.5988 19.4231H50.3535Z" fill="#17171B"/>
<path d="M104.951 27.6091V19.4391H101.99V18.4717H109.01V19.4391H106.032V27.6091H104.951Z" fill="#17171B"/>
<path d="M63.7461 27.6091V18.4717H64.8182V26.6499H69.9233V27.6091H63.7461Z" fill="#17171B"/>
<path d="M75.793 27.6093V22.5122H81.5788V23.4633H76.865V26.6501H82.2339V27.6093H75.793Z" fill="#17171B"/>
<path d="M75.793 19.4231V18.4719H81.9701L82.0382 19.4231H75.793Z" fill="#17171B"/>
<path d="M40.9763 22.7238L39.3086 22.3092C37.9558 21.9515 37.5389 21.6345 37.5389 20.7403C37.5389 19.4396 38.8322 19.2607 39.9212 19.2607C40.7806 19.2607 41.6144 19.3339 42.3972 19.4639L42.5163 19.4883L42.4398 18.4965C41.7165 18.399 41.0018 18.3096 39.8617 18.3096C37.7005 18.3096 36.4668 19.1469 36.4668 20.7728C36.4668 22.106 37.1475 22.7807 38.8151 23.236L40.4913 23.6425C41.8867 24.0327 42.3292 24.3335 42.3292 25.2277C42.3292 26.3252 41.5208 26.8373 39.9212 26.8373C38.7301 26.8373 37.8367 26.7072 37.19 26.5853C37.122 26.569 37.0028 26.5446 36.8752 26.5203L36.9518 27.5364C37.658 27.6584 38.628 27.7884 39.9468 27.7884C42.1505 27.7884 43.4097 26.878 43.4097 25.2114C43.4182 23.8294 42.712 23.1872 40.9763 22.7238Z" fill="#17171B"/>
<path d="M95.9577 26.5607C95.1069 26.7396 94.3496 26.8209 93.4818 26.8209C91.244 26.8209 90.2485 25.7559 90.2485 23.0407C90.2485 20.3174 91.244 19.2605 93.4818 19.2605C94.171 19.2605 94.9623 19.3581 95.8982 19.5532C95.9407 19.5613 96.1109 19.5938 96.1109 19.5938L96.0343 18.5614C95.3111 18.4313 94.4603 18.3013 93.4392 18.3013C90.5293 18.3013 89.168 19.7077 89.168 23.0407C89.168 26.3331 90.5634 27.7801 93.4392 27.7801C94.6049 27.7801 94.9112 27.7395 96.0173 27.5525C96.0258 27.5525 96.0258 27.5525 96.0343 27.5525L96.1109 26.5282C96.0513 26.5445 96.0003 26.5526 95.9577 26.5607Z" fill="#17171B"/>
<path d="M24.4039 30.5363C24.6762 27.5284 23.2467 24.8538 20.4134 23.0979C18.8734 22.1468 16.0741 21.1794 13.2833 20.1307C11.8283 19.586 10.8328 18.8056 10.0841 17.9357C8.23773 15.7814 8.25475 13.0174 8.78228 11.2046C6.7998 12.3996 5.37887 14.4563 5.18318 16.9358C4.97047 19.7079 6.37437 22.3988 9.12262 23.9108C10.8158 24.8457 13.8278 26.0895 15.6912 26.813C17.9374 27.7235 19.1201 28.8779 19.9029 30.2436C21.3493 32.7881 20.5495 35.2839 20.1922 36.5602C22.7277 35.3001 24.2082 32.7963 24.4039 30.5363Z" fill="#E6E9EC"/>
<path d="M21.3739 15.9681C19.6637 12.5538 15.6562 11.0823 12.3379 10.5539C12.3379 10.5539 13.912 10.5214 15.6732 10.684C18.1577 10.9116 20.421 11.6839 21.8249 12.5781L21.3739 15.9681Z" fill="#17171B"/>
<path d="M6.52637 30.3896L6.51786 33.7796L4.98633 35.6331C7.67502 36.9419 10.7721 37.7061 13.9968 37.7061C15.0008 37.7061 15.9623 37.6411 16.9238 37.5029C11.4783 36.7143 8.09193 33.7308 6.52637 30.3896Z" fill="#17171B"/>
<path d="M6.52506 30.3896C8.09062 33.7227 11.4685 36.7062 16.9054 37.5029C12.2428 37.5029 8.5671 35.8607 6.21875 33.4788L6.52506 30.3896Z" fill="#17171B"/>
<path d="M6.52637 30.3896L7.32617 34.4706L4.98633 35.6331L6.52637 30.3896Z" fill="#17171B"/>
<path d="M21.0761 12.6759C18.2853 10.9768 14.6267 10.546 12.3379 10.546C12.3379 10.546 13.7758 10.2939 15.5456 10.2939C18.0896 10.2939 20.4295 10.7167 22.6672 11.5377L21.0761 12.6759Z" fill="#17171B"/>
<path d="M21.3731 15.9684L20.8711 12.554L22.6664 11.5378L21.3731 15.9684Z" fill="#17171B"/>
<path d="M9.85394 21.2606C13.3169 23.8621 18.6517 24.5449 20.8469 26.9106C23.7143 29.9997 22.4465 34.414 20.1918 36.5602C22.7188 35.3001 24.1993 32.7963 24.4035 30.5363C24.6758 27.5284 23.2463 24.8538 20.413 23.0979C18.873 22.1468 16.0737 21.1794 13.2829 20.1307C11.8279 19.586 10.8324 18.8056 10.0837 17.9357C8.23732 15.7814 8.25434 13.0174 8.78187 11.2046C6.73983 13.3751 5.84643 18.2528 9.85394 21.2606Z" fill="url(#paint0_radial_1725_90)"/>
<path d="M9.85394 21.2606C13.3169 23.8621 18.6517 24.5449 20.8469 26.9106C23.7143 29.9997 22.4465 34.414 20.1918 36.5602C22.7188 35.3001 24.1993 32.7963 24.4035 30.5363C24.6758 27.5284 23.2463 24.8538 20.413 23.0979C18.873 22.1468 16.0737 21.1794 13.2829 20.1307C11.8279 19.586 10.8324 18.8056 10.0837 17.9357C8.23732 15.7814 8.25434 13.0174 8.78187 11.2046C6.73983 13.3751 5.84643 18.2528 9.85394 21.2606Z" fill="#17171B"/>
<path d="M20.8558 26.9106C18.6521 24.5449 13.3173 23.8621 9.85435 21.2606C5.84684 18.2528 6.74024 13.3751 8.78228 11.2046C6.7998 12.3996 5.37887 14.4563 5.18318 16.9358C4.97047 19.7079 6.37437 22.3988 9.12262 23.9108C10.8158 24.8457 13.8278 26.0895 15.6912 26.813C17.9374 27.7235 19.1201 28.8779 19.9029 30.2436C21.3493 32.7881 20.5495 35.2839 20.1922 36.5602C22.4554 34.4221 23.7232 29.9997 20.8558 26.9106Z" fill="#17171B"/>
</g>
<defs>
<radialGradient id="paint0_radial_1725_90" cx="0" cy="0" r="1" gradientUnits="userSpaceOnUse" gradientTransform="translate(8.69874 11.1724) rotate(75.4872) scale(25.4431 32.0571)">
<stop offset="0.0595902" stop-color="#A5AFBC"/>
<stop offset="0.702" stop-color="#A5AFBC" stop-opacity="0"/>
</radialGradient>
<clipPath id="clip0_1725_90">
<rect width="104.025" height="27.4286" fill="white" transform="translate(4.98633 10.2856)"/>
</clipPath>
</defs>
</svg>
