<svg width="114" height="48" viewBox="0 0 114 48" fill="none" xmlns="http://www.w3.org/2000/svg">
<path d="M43.0318 24.7605L43.1033 24.7206C43.57 24.4615 44.1754 24.5492 44.5075 24.9518C45.0078 25.5538 45.7436 25.8608 46.7147 25.8608C47.9844 25.8608 48.5604 25.3784 48.5604 24.7047C48.5604 24.314 48.3796 24.0189 48.018 23.8156C47.6565 23.5963 47.0132 23.3611 46.0757 23.1139C45.0372 22.8189 44.4108 22.5837 43.6877 22.0973C42.9814 21.599 42.603 20.8494 42.603 19.8488C42.603 18.864 42.9646 18.0667 43.7045 17.4926C44.4444 16.8985 45.3526 16.6035 46.3868 16.6035C47.7742 16.6035 48.943 17.1098 49.7754 18.0069C50.2337 18.5052 50.0949 19.2787 49.4937 19.6096C49.0397 19.8567 48.4637 19.765 48.1147 19.3943C47.6733 18.9278 47.0973 18.6966 46.3868 18.6966C45.4493 18.6966 44.8733 19.1511 44.8733 19.789C44.8733 20.1318 45.0204 20.4149 45.3189 20.6342C45.63 20.8375 46.2102 21.0727 47.0637 21.3199L47.8541 21.5711C48.0349 21.6189 48.2829 21.7106 48.594 21.8382C48.9051 21.9458 49.1532 22.0574 49.3172 22.1651C49.6619 22.3684 50.1916 22.7591 50.406 23.1339C50.6541 23.5086 50.8349 24.0548 50.8349 24.6807C50.8349 25.6974 50.4397 26.4907 49.6661 27.0848C48.8925 27.6788 47.8877 27.9738 46.6517 27.9738C44.8733 27.9738 43.5111 27.3519 42.6913 26.2914C42.3045 25.7811 42.4685 25.0714 43.0318 24.7605Z" fill="#0B115E"/>
<path d="M60.412 27.9659C58.7471 27.9659 57.3345 27.4197 56.1615 26.3274C55.0096 25.219 54.4336 23.8755 54.4336 22.2848C54.4336 20.69 55.0096 19.3505 56.1615 18.2541C57.3303 17.1458 58.7471 16.5996 60.412 16.5996C62.0769 16.5996 63.4937 17.1458 64.6625 18.2541C65.8313 19.3465 66.4073 20.69 66.4073 22.2848C66.4073 23.8755 65.8313 25.219 64.6625 26.3274C63.4895 27.4197 62.0769 27.9659 60.412 27.9659ZM60.412 25.8569C61.4673 25.8569 62.3544 25.53 63.0649 24.8562C63.7712 24.1865 64.137 23.3253 64.137 22.2808C64.137 21.2362 63.7754 20.3751 63.0649 19.7053C62.3586 19.0355 61.4673 18.6887 60.412 18.6887C59.3568 18.6887 58.4697 19.0315 57.7591 19.7053C57.0528 20.3751 56.6871 21.2362 56.6871 22.2808C56.6871 23.3253 57.0486 24.1865 57.7591 24.8562C58.4697 25.53 59.3568 25.8569 60.412 25.8569Z" fill="#0B115E"/>
<path d="M73.003 25.6854H76.3117C76.9129 25.6854 77.4006 26.1478 77.4006 26.718C77.4006 27.2881 76.9129 27.7505 76.3117 27.7505H71.9183C71.2625 27.7505 70.7285 27.2442 70.7285 26.6223V17.8992C70.7285 17.3052 71.2372 16.8228 71.8637 16.8228C72.4901 16.8228 72.9988 17.3052 72.9988 17.8992V25.6854H73.003Z" fill="#0B115E"/>
<path d="M82.5472 16.8149C83.1737 16.8149 83.6824 17.2973 83.6824 17.8914V26.6663C83.6824 27.2603 83.1737 27.7427 82.5472 27.7427C81.9208 27.7427 81.4121 27.2603 81.4121 26.6663V17.8914C81.4121 17.2973 81.9208 16.8149 82.5472 16.8149Z" fill="#0B115E"/>
<path d="M94.0038 27.9659C92.3389 27.9659 90.9263 27.4197 89.7533 26.3274C88.6014 25.219 88.0254 23.8755 88.0254 22.2848C88.0254 20.69 88.6014 19.3505 89.7533 18.2541C90.9221 17.1458 92.3389 16.5996 94.0038 16.5996C95.6687 16.5996 97.0855 17.1458 98.2543 18.2541C99.4231 19.3465 99.9991 20.69 99.9991 22.2848C99.9991 23.8755 99.4231 25.219 98.2543 26.3274C97.0813 27.4197 95.6687 27.9659 94.0038 27.9659ZM94.0038 25.8569C95.0591 25.8569 95.9462 25.53 96.6567 24.8562C97.363 24.1865 97.7288 23.3253 97.7288 22.2808C97.7288 21.2362 97.3672 20.3751 96.6567 19.7053C95.9504 19.0355 95.0591 18.6887 94.0038 18.6887C92.9485 18.6887 92.0615 19.0315 91.3509 19.7053C90.6446 20.3751 90.2789 21.2362 90.2789 22.2808C90.2789 23.3253 90.6404 24.1865 91.3509 24.8562C92.0615 25.53 92.9485 25.8569 94.0038 25.8569Z" fill="#0B115E"/>
<path d="M47.1064 34.572C46.2067 34.4085 45.2356 33.671 45.2356 32.8417V32.467H44.7437V32.8417C44.7437 33.671 43.7767 34.4045 42.877 34.572L43.0872 34.9428C43.8608 34.7673 44.6638 34.2491 44.9875 33.5354C45.3154 34.253 46.1142 34.7753 46.892 34.9428L47.1064 34.572ZM42.6836 35.9753V36.3461H47.3377V35.9753H42.6836ZM48.6158 32.9693H50.0536V35.3973H48.6158V32.9693ZM48.1575 35.7561H50.5119V32.6105H48.1575V35.7561ZM52.7485 34.0697H51.8993V32.1321H51.4284V36.996H51.8993V34.4444H52.7485V34.0697ZM57.3396 34.7514H54.2873V33.9819H57.1714V33.6271H54.2873V32.9055H57.2891V32.5467H53.8122V35.1102H57.3396V34.7514ZM53.211 35.9993V36.3621H57.8735V35.9993H53.211ZM61.6489 32.9494H62.927V34.5441H61.6489V32.9494ZM62.5234 36.0232V34.9029H64.1798V34.5441H63.3937V32.9494H64.1883V32.5906H60.3792V32.9494H61.1738V34.5441H60.3876V34.9029H62.0441V36.0232H59.9672V36.386H64.6213V36.0232H62.5234ZM69.3595 34.7514H66.3072V33.9819H69.1913V33.6271H66.3072V32.9055H69.309V32.5467H65.8321V35.1102H69.3595V34.7514ZM65.2309 35.9993V36.3621H69.8934V35.9993H65.2309ZM71.5373 36.1268H74.5559V35.0783H71.0622V35.4092H74.0892V35.8119H71.079V36.9401H74.7073V36.6052H71.5373V36.1268ZM72.1847 32.5985H73.4628V33.5275H72.1847V32.5985ZM73.0592 34.3328V33.8663H74.6862V33.5235H73.9295V32.5945H74.703V32.2517H70.9361V32.5945H71.7138V33.5235H70.9529V33.8663H72.5883V34.3328H70.4988V34.6916H75.1403V34.3328H73.0592ZM76.5403 34.3128H78.4364V32.5746H76.0526V32.9374H77.9571V33.954H76.0694V35.8199H76.4941C77.3769 35.8199 78.1547 35.788 79.0839 35.6404L79.0376 35.2776C78.1379 35.4132 77.3811 35.4531 76.5403 35.4531V34.3128ZM79.5169 32.1201V36.9999H79.9878V32.1201H79.5169ZM81.9427 33.7188C81.9427 33.1607 82.5439 32.7939 83.3638 32.7939C84.1836 32.7939 84.7764 33.1567 84.7764 33.7188C84.7764 34.281 84.1794 34.6438 83.3638 34.6438C82.5481 34.6438 81.9427 34.281 81.9427 33.7188ZM83.5992 35.9993V34.9826C84.5536 34.9188 85.2262 34.4325 85.2262 33.7188C85.2262 32.9414 84.4485 32.443 83.3638 32.443C82.2749 32.443 81.4929 32.9414 81.4929 33.7188C81.4929 34.4364 82.1698 34.9188 83.1241 34.9826V35.9993H81.0346V36.37H85.7013V35.9993H83.5992Z" fill="#888CA4"/>
<path d="M13.9696 25.9406C12.2501 23.8316 12.8933 20.7658 15.336 19.4421L29.8448 11.3131C30.8748 10.735 32.1949 10.9782 32.9265 11.8712C33.6496 12.7563 33.5739 14.0122 32.7499 14.8175L20.9486 26.3194C18.9852 28.229 15.6933 28.0496 13.9696 25.9406Z" fill="url(#paint0_linear_1725_10575)"/>
<path d="M29.5118 28.6515C29.3731 28.6515 29.2344 28.6475 29.0956 28.6356L17.206 27.6269C14.6667 27.4116 12.7916 25.2867 13.0186 22.8786C13.2457 20.4706 15.4823 18.6925 18.0259 18.9078L29.9154 19.9165C32.4548 20.1317 34.3299 22.2567 34.1029 24.6647C33.8926 26.9372 31.8788 28.6515 29.5118 28.6515Z" fill="url(#paint1_linear_1725_10575)"/>
<path d="M33.1567 21.599C34.8762 23.708 34.2329 26.7739 31.7903 28.0975L17.3109 36.2385C16.2724 36.8206 14.9439 36.5814 14.204 35.6764C13.4766 34.7833 13.5523 33.5195 14.3805 32.7102L26.1776 21.2243C28.1452 19.3106 31.4329 19.49 33.1567 21.599Z" fill="url(#paint2_linear_1725_10575)"/>
<defs>
<linearGradient id="paint0_linear_1725_10575" x1="19.6754" y1="20.5922" x2="32.7254" y2="16.7762" gradientUnits="userSpaceOnUse">
<stop offset="0.2442" stop-color="#00B8FF"/>
<stop offset="1" stop-color="#57E1FF"/>
</linearGradient>
<linearGradient id="paint1_linear_1725_10575" x1="16.2838" y1="20.2248" x2="28.0882" y2="26.6171" gradientUnits="userSpaceOnUse">
<stop stop-color="#00B8FF"/>
<stop offset="0.6383" stop-color="#4668F9"/>
</linearGradient>
<linearGradient id="paint2_linear_1725_10575" x1="32.3409" y1="22.189" x2="15.246" y2="36.1879" gradientUnits="userSpaceOnUse">
<stop offset="0.2556" stop-color="#4668F9"/>
<stop offset="1" stop-color="#2F25E2"/>
</linearGradient>
</defs>
</svg>
